<svg width="53" height="61" viewBox="0 0 53 61" fill="none" xmlns="http://www.w3.org/2000/svg">
<path d="M12.2852 58V52.3633H13.7812V54.5664H17.2188V52.3633H18.7148V58H17.2188V55.7148H13.7812V58H12.2852ZM22.625 58.1055C22.0599 58.1055 21.569 58.0143 21.1523 57.832C20.7357 57.6471 20.4128 57.3867 20.1836 57.0508C19.957 56.7122 19.8438 56.3125 19.8438 55.8516V55.8398C19.8438 55.3789 19.9583 54.9805 20.1875 54.6445C20.4167 54.3086 20.7396 54.0495 21.1562 53.8672C21.5729 53.6823 22.0625 53.5898 22.625 53.5898C23.1901 53.5898 23.681 53.681 24.0977 53.8633C24.5143 54.0456 24.8359 54.306 25.0625 54.6445C25.2917 54.9805 25.4062 55.3789 25.4062 55.8398V55.8516C25.4062 56.3125 25.2917 56.7122 25.0625 57.0508C24.8359 57.3867 24.5143 57.6471 24.0977 57.832C23.681 58.0143 23.1901 58.1055 22.625 58.1055ZM22.625 57.0898C22.888 57.0898 23.1172 57.0417 23.3125 56.9453C23.5078 56.8464 23.6589 56.7044 23.7656 56.5195C23.875 56.3346 23.9297 56.112 23.9297 55.8516V55.8438C23.9297 55.5807 23.875 55.3581 23.7656 55.1758C23.6589 54.9909 23.5078 54.849 23.3125 54.75C23.1172 54.651 22.888 54.6016 22.625 54.6016C22.3646 54.6016 22.1354 54.651 21.9375 54.75C21.7422 54.849 21.5898 54.9909 21.4805 55.1758C21.3737 55.3581 21.3203 55.5807 21.3203 55.8438V55.8516C21.3203 56.112 21.3737 56.3346 21.4805 56.5195C21.5898 56.7044 21.7422 56.8464 21.9375 56.9453C22.1354 57.0417 22.3646 57.0898 22.625 57.0898ZM26.4219 58V53.6914H27.8672V54.4844H27.9102C28.0456 54.1953 28.2539 53.974 28.5352 53.8203C28.8164 53.6641 29.1432 53.5859 29.5156 53.5859C29.7786 53.5859 30.0143 53.625 30.2227 53.7031C30.4336 53.7786 30.6133 53.888 30.7617 54.0312C30.9102 54.1745 31.0247 54.3477 31.1055 54.5508H31.1484C31.2474 54.3424 31.3802 54.1667 31.5469 54.0234C31.7161 53.8802 31.9128 53.7721 32.1367 53.6992C32.3607 53.6237 32.6042 53.5859 32.8672 53.5859C33.2578 53.5859 33.5885 53.6602 33.8594 53.8086C34.1302 53.9544 34.3372 54.1641 34.4805 54.4375C34.6237 54.7083 34.6953 55.0339 34.6953 55.4141V58H33.2461V55.7266C33.2461 55.4948 33.2109 55.2995 33.1406 55.1406C33.0729 54.9818 32.9688 54.862 32.8281 54.7812C32.6901 54.6979 32.5143 54.6562 32.3008 54.6562C32.082 54.6562 31.8945 54.7018 31.7383 54.793C31.5846 54.8841 31.4661 55.0143 31.3828 55.1836C31.2995 55.3503 31.2578 55.5469 31.2578 55.7734V58H29.8516V55.7109C29.8516 55.487 29.8164 55.2969 29.7461 55.1406C29.6784 54.9818 29.5742 54.862 29.4336 54.7812C29.293 54.6979 29.1185 54.6562 28.9102 54.6562C28.694 54.6562 28.5078 54.7031 28.3516 54.7969C28.1953 54.888 28.0755 55.0195 27.9922 55.1914C27.9089 55.3607 27.8672 55.5612 27.8672 55.793V58H26.4219ZM38.4336 58.1055C37.8607 58.1055 37.3672 58.0169 36.9531 57.8398C36.5417 57.6628 36.224 57.4076 36 57.0742C35.776 56.7383 35.6641 56.3346 35.6641 55.8633V55.8594C35.6641 55.3906 35.7773 54.987 36.0039 54.6484C36.2305 54.3073 36.5469 54.0456 36.9531 53.8633C37.362 53.6784 37.8359 53.5872 38.375 53.5898C38.9271 53.5898 39.4036 53.6849 39.8047 53.875C40.2057 54.0651 40.5143 54.332 40.7305 54.6758C40.9466 55.0169 41.0547 55.4193 41.0547 55.8828V56.1523H36.4141V55.4062H40.1211L39.6992 55.957V55.6875C39.6992 55.4479 39.6471 55.2422 39.543 55.0703C39.4414 54.8958 39.2943 54.7617 39.1016 54.668C38.9089 54.5742 38.6771 54.5273 38.4062 54.5273C38.125 54.5273 37.8841 54.5729 37.6836 54.6641C37.4831 54.7552 37.3294 54.8906 37.2227 55.0703C37.1159 55.2474 37.0625 55.4674 37.0625 55.7305V55.9492C37.0625 56.2409 37.1224 56.4779 37.2422 56.6602C37.3646 56.8398 37.5312 56.9714 37.7422 57.0547C37.9557 57.1354 38.2018 57.1758 38.4805 57.1758C38.6628 57.1758 38.8294 57.1562 38.9805 57.1172C39.1341 57.0755 39.2669 57.0195 39.3789 56.9492C39.4935 56.8789 39.5781 56.7982 39.6328 56.707L39.6445 56.6836L40.9961 56.6797L40.9844 56.7227C40.9245 56.931 40.8203 57.1211 40.6719 57.293C40.526 57.4622 40.3424 57.6081 40.1211 57.7305C39.9023 57.8503 39.6497 57.9427 39.3633 58.0078C39.0794 58.0729 38.7695 58.1055 38.4336 58.1055Z" fill="#F9F9F3"/>
<g filter="url(#filter0_d_432_1769)">
<path d="M48.9952 14.3734C48.9957 14.3737 48.9963 14.3739 48.9969 14.3739C48.9986 14.3739 49 14.3753 49 14.377V44.55C49 44.7985 48.7985 45 48.55 45H31.9745C31.726 45 31.5245 44.7985 31.5245 44.55V30.054C31.5245 29.8055 31.323 29.604 31.0745 29.604H21.7199C21.4714 29.604 21.2699 29.8055 21.2699 30.054V44.55C21.2699 44.7985 21.0685 45 20.8199 45H4.45108C4.20255 45 4.00108 44.7985 4.00108 44.55V14.3754C4.00108 14.3752 4.00084 14.3749 4.00054 14.3749C4 14.3749 3.9998 14.3742 4.00025 14.3739L26.2549 0.071438C26.4031 -0.0238132 26.5933 -0.0238125 26.7415 0.0714391L48.9952 14.3734Z" fill="#3D5A47"/>
</g>
<defs>
<filter id="filter0_d_432_1769" x="0" y="0" width="53" height="53" filterUnits="userSpaceOnUse" color-interpolation-filters="sRGB">
<feFlood flood-opacity="0" result="BackgroundImageFix"/>
<feColorMatrix in="SourceAlpha" type="matrix" values="0 0 0 0 0 0 0 0 0 0 0 0 0 0 0 0 0 0 127 0" result="hardAlpha"/>
<feOffset dy="4"/>
<feGaussianBlur stdDeviation="2"/>
<feComposite in2="hardAlpha" operator="out"/>
<feColorMatrix type="matrix" values="0 0 0 0 0 0 0 0 0 0 0 0 0 0 0 0 0 0 0.25 0"/>
<feBlend mode="normal" in2="BackgroundImageFix" result="effect1_dropShadow_432_1769"/>
<feBlend mode="normal" in="SourceGraphic" in2="effect1_dropShadow_432_1769" result="shape"/>
</filter>
</defs>
</svg>
