<svg width="53" height="61" viewBox="0 0 53 61" fill="none" xmlns="http://www.w3.org/2000/svg">
<g filter="url(#filter0_d_432_1774)">
<path d="M15.5741 29.4359C14.1639 28.3062 12.023 28.438 10.7894 29.7296L4.83815 35.9672C3.60535 37.2588 3.74922 39.2214 5.15949 40.3512L9.27142 43.6472C11.5027 45.208 13.5091 44.9917 13.5436 44.9877C14.3939 44.8433 16.091 45.1259 17.3316 44.7659C22.1706 43.3606 29.1332 40.5249 37.0642 32.2125C44.9951 23.9001 47.5848 16.7183 48.834 11.7438C49.2225 10.1957 48.7926 8.40832 48.9003 7.46727C48.902 7.43648 48.9692 5.61438 47.2462 4.23359C47.1187 4.13175 47.0248 4.04254 46.9525 3.96202L44.1026 1.62755L42.9215 0.76781C41.5121 -0.361925 39.3696 -0.229294 38.1367 1.06228L32.1855 7.29991C30.9527 8.59148 31.0957 10.5541 32.506 11.6846L37.6336 15.7923C35.6694 19.3575 33.5493 22.6567 29.906 26.4754C26.7297 29.8062 24.0504 31.7957 20.9998 33.7843L15.5741 29.4367V29.4359Z" fill="#3D5A47"/>
</g>
<path d="M9.79688 58.125C9.08854 58.125 8.47656 58.0052 7.96094 57.7656C7.44531 57.526 7.04818 57.1862 6.76953 56.7461C6.49089 56.306 6.35156 55.7852 6.35156 55.1836V55.1758C6.35156 54.5742 6.49089 54.0534 6.76953 53.6133C7.04818 53.1732 7.44401 52.8333 7.95703 52.5938C8.47266 52.3542 9.08594 52.2344 9.79688 52.2344C10.401 52.2344 10.9401 52.3294 11.4141 52.5195C11.8906 52.707 12.276 52.9727 12.5703 53.3164C12.8646 53.6576 13.0443 54.0612 13.1094 54.5273L13.1133 54.5781H11.6328L11.625 54.5469C11.5573 54.3047 11.4414 54.099 11.2773 53.9297C11.1133 53.7578 10.9062 53.6276 10.6562 53.5391C10.4089 53.4479 10.1263 53.4023 9.80859 53.4023C9.40755 53.4023 9.0625 53.4753 8.77344 53.6211C8.48698 53.7643 8.26562 53.9688 8.10938 54.2344C7.95573 54.5 7.87891 54.8138 7.87891 55.1758V55.1797C7.87891 55.5417 7.95573 55.8555 8.10938 56.1211C8.26562 56.3867 8.48828 56.5924 8.77734 56.7383C9.06641 56.8841 9.41016 56.957 9.80859 56.957C10.1237 56.957 10.4049 56.9128 10.6523 56.8242C10.9023 56.7331 11.1094 56.6029 11.2734 56.4336C11.4401 56.2643 11.556 56.0599 11.6211 55.8203L11.6328 55.7852H13.1133L13.1094 55.8359C13.0443 56.3021 12.8646 56.707 12.5703 57.0508C12.276 57.3919 11.8919 57.6562 11.418 57.8438C10.944 58.0312 10.4036 58.125 9.79688 58.125ZM16.7227 58.1055C16.1576 58.1055 15.6667 58.0143 15.25 57.832C14.8333 57.6471 14.5104 57.3867 14.2812 57.0508C14.0547 56.7122 13.9414 56.3125 13.9414 55.8516V55.8398C13.9414 55.3789 14.056 54.9805 14.2852 54.6445C14.5143 54.3086 14.8372 54.0495 15.2539 53.8672C15.6706 53.6823 16.1602 53.5898 16.7227 53.5898C17.2878 53.5898 17.7786 53.681 18.1953 53.8633C18.612 54.0456 18.9336 54.306 19.1602 54.6445C19.3893 54.9805 19.5039 55.3789 19.5039 55.8398V55.8516C19.5039 56.3125 19.3893 56.7122 19.1602 57.0508C18.9336 57.3867 18.612 57.6471 18.1953 57.832C17.7786 58.0143 17.2878 58.1055 16.7227 58.1055ZM16.7227 57.0898C16.9857 57.0898 17.2148 57.0417 17.4102 56.9453C17.6055 56.8464 17.7565 56.7044 17.8633 56.5195C17.9727 56.3346 18.0273 56.112 18.0273 55.8516V55.8438C18.0273 55.5807 17.9727 55.3581 17.8633 55.1758C17.7565 54.9909 17.6055 54.849 17.4102 54.75C17.2148 54.651 16.9857 54.6016 16.7227 54.6016C16.4622 54.6016 16.2331 54.651 16.0352 54.75C15.8398 54.849 15.6875 54.9909 15.5781 55.1758C15.4714 55.3581 15.418 55.5807 15.418 55.8438V55.8516C15.418 56.112 15.4714 56.3346 15.5781 56.5195C15.6875 56.7044 15.8398 56.8464 16.0352 56.9453C16.2331 57.0417 16.4622 57.0898 16.7227 57.0898ZM20.5195 58V53.6953H21.9648V54.5234H22.0078C22.1536 54.2344 22.3763 54.0065 22.6758 53.8398C22.9753 53.6706 23.3385 53.5859 23.7656 53.5859C24.3802 53.5859 24.8555 53.7539 25.1914 54.0898C25.5299 54.4232 25.6992 54.8958 25.6992 55.5078V58H24.25V55.8125C24.25 55.4323 24.1589 55.1445 23.9766 54.9492C23.7969 54.7539 23.5299 54.6562 23.1758 54.6562C22.9258 54.6562 22.7109 54.7057 22.5312 54.8047C22.3516 54.901 22.2122 55.0391 22.1133 55.2188C22.0143 55.3984 21.9648 55.612 21.9648 55.8594V58H20.5195ZM29.3359 58.0391C28.6615 58.0391 28.1719 57.9245 27.8672 57.6953C27.5651 57.4661 27.4141 57.0951 27.4141 56.582V54.6758H26.5352V53.6953H27.4141V52.6562H28.8633V53.6953H30.207V54.6758H28.8633V56.3477C28.8633 56.5951 28.9284 56.7734 29.0586 56.8828C29.1888 56.9922 29.4062 57.0469 29.7109 57.0469C29.8073 57.0469 29.8958 57.043 29.9766 57.0352C30.0599 57.0273 30.1367 57.0182 30.207 57.0078V57.9727C30.0872 57.9909 29.9518 58.0065 29.8008 58.0195C29.6497 58.0326 29.4948 58.0391 29.3359 58.0391ZM32.8555 58.0703C32.4779 58.0703 32.1484 58.0195 31.8672 57.918C31.5885 57.8138 31.3711 57.6628 31.2148 57.4648C31.0612 57.2643 30.9844 57.0182 30.9844 56.7266V56.7227C30.9844 56.4701 31.0508 56.2513 31.1836 56.0664C31.3164 55.8789 31.5247 55.7318 31.8086 55.625C32.0951 55.5182 32.4661 55.4596 32.9219 55.4492L35.3477 55.4023V56.125L33.1602 56.1758C32.8919 56.1836 32.6966 56.2279 32.5742 56.3086C32.4544 56.3867 32.3945 56.4961 32.3945 56.6367V56.6445C32.3945 56.8216 32.4779 56.9544 32.6445 57.043C32.8138 57.1289 33.0339 57.1719 33.3047 57.1719C33.5729 57.1719 33.806 57.1354 34.0039 57.0625C34.2044 56.9896 34.3581 56.8867 34.4648 56.7539C34.5742 56.6185 34.6289 56.4596 34.6289 56.2773V55.2656C34.6289 55.0365 34.5378 54.8594 34.3555 54.7344C34.1758 54.6094 33.918 54.5469 33.582 54.5469C33.2904 54.5469 33.0586 54.5911 32.8867 54.6797C32.7174 54.7656 32.6068 54.8841 32.5547 55.0352L32.543 55.0625H31.1836L31.1914 55.0156C31.2435 54.7344 31.3698 54.487 31.5703 54.2734C31.7734 54.0573 32.0456 53.8893 32.3867 53.7695C32.7305 53.6497 33.1406 53.5898 33.6172 53.5898C34.1354 53.5898 34.5768 53.6562 34.9414 53.7891C35.3086 53.9193 35.5885 54.1107 35.7812 54.3633C35.974 54.6159 36.0703 54.9219 36.0703 55.2812V58H34.6289V57.3164H34.5898C34.4935 57.4727 34.3607 57.6081 34.1914 57.7227C34.0221 57.8346 33.8242 57.9206 33.5977 57.9805C33.3737 58.0404 33.1263 58.0703 32.8555 58.0703ZM39.8047 58.1055C39.2396 58.1055 38.7526 58.0156 38.3438 57.8359C37.9349 57.6536 37.6198 57.3945 37.3984 57.0586C37.1771 56.7201 37.0664 56.3164 37.0664 55.8477V55.8398C37.0664 55.3711 37.1771 54.9688 37.3984 54.6328C37.6198 54.2969 37.9349 54.0391 38.3438 53.8594C38.7526 53.6797 39.2396 53.5898 39.8047 53.5898C40.2943 53.5898 40.724 53.6602 41.0938 53.8008C41.4635 53.9414 41.7604 54.1419 41.9844 54.4023C42.2109 54.6602 42.3516 54.9688 42.4062 55.3281L42.4102 55.3633H41.0273L41.0195 55.3398C40.9544 55.1055 40.819 54.9245 40.6133 54.7969C40.4076 54.6667 40.1497 54.6016 39.8398 54.6016C39.5664 54.6016 39.332 54.651 39.1367 54.75C38.944 54.8464 38.7956 54.987 38.6914 55.1719C38.5898 55.3542 38.5391 55.5768 38.5391 55.8398V55.8477C38.5391 56.1107 38.5898 56.3346 38.6914 56.5195C38.7956 56.7044 38.944 56.8464 39.1367 56.9453C39.332 57.0417 39.5664 57.0898 39.8398 57.0898C40.1471 57.0898 40.4023 57.0286 40.6055 56.9062C40.8112 56.7839 40.9492 56.6042 41.0195 56.3672L41.0273 56.3438L42.4062 56.3398L42.4023 56.3789C42.3477 56.7331 42.207 57.0391 41.9805 57.2969C41.7565 57.5547 41.4596 57.7539 41.0898 57.8945C40.7201 58.0352 40.2917 58.1055 39.8047 58.1055ZM45.8281 58.0391C45.1536 58.0391 44.6641 57.9245 44.3594 57.6953C44.0573 57.4661 43.9062 57.0951 43.9062 56.582V54.6758H43.0273V53.6953H43.9062V52.6562H45.3555V53.6953H46.6992V54.6758H45.3555V56.3477C45.3555 56.5951 45.4206 56.7734 45.5508 56.8828C45.681 56.9922 45.8984 57.0469 46.2031 57.0469C46.2995 57.0469 46.388 57.043 46.4688 57.0352C46.5521 57.0273 46.6289 57.0182 46.6992 57.0078V57.9727C46.5794 57.9909 46.444 58.0065 46.293 58.0195C46.1419 58.0326 45.987 58.0391 45.8281 58.0391Z" fill="#F9F9F3"/>
<defs>
<filter id="filter0_d_432_1774" x="0" y="0" width="53" height="53" filterUnits="userSpaceOnUse" color-interpolation-filters="sRGB">
<feFlood flood-opacity="0" result="BackgroundImageFix"/>
<feColorMatrix in="SourceAlpha" type="matrix" values="0 0 0 0 0 0 0 0 0 0 0 0 0 0 0 0 0 0 127 0" result="hardAlpha"/>
<feOffset dy="4"/>
<feGaussianBlur stdDeviation="2"/>
<feComposite in2="hardAlpha" operator="out"/>
<feColorMatrix type="matrix" values="0 0 0 0 0 0 0 0 0 0 0 0 0 0 0 0 0 0 0.25 0"/>
<feBlend mode="normal" in2="BackgroundImageFix" result="effect1_dropShadow_432_1774"/>
<feBlend mode="normal" in="SourceGraphic" in2="effect1_dropShadow_432_1774" result="shape"/>
</filter>
</defs>
</svg>
