<svg width="53" height="61" viewBox="0 0 53 61" fill="none" xmlns="http://www.w3.org/2000/svg">
<g filter="url(#filter0_d_426_3517)">
<path d="M48.55 10.35C48.7985 10.35 49 10.5515 49 10.8V44.55C49 44.7985 48.7985 45 48.55 45H4.45C4.20147 45 4 44.7985 4 44.55V10.8C4 10.5515 4.20147 10.35 4.45 10.35H48.55ZM14.08 12.15C13.8315 12.15 13.63 12.3515 13.63 12.6V17.55H7.15C6.90147 17.55 6.7 17.7515 6.7 18V18.9C6.7 19.1485 6.90147 19.35 7.15 19.35H13.63V26.82H7.15C6.90147 26.82 6.7 27.0215 6.7 27.27V28.17C6.7 28.4185 6.90147 28.62 7.15 28.62H13.63V36.09H7.15C6.90147 36.09 6.7 36.2915 6.7 36.54V37.44C6.7 37.6885 6.90147 37.89 7.15 37.89H13.63V42.84C13.63 43.0885 13.8315 43.29 14.08 43.29H14.98C15.2285 43.29 15.43 43.0885 15.43 42.84V37.89H25.6V42.84C25.6 43.0885 25.8015 43.29 26.05 43.29H26.95C27.1985 43.29 27.4 43.0885 27.4 42.84V37.89H37.57V42.84C37.57 43.0885 37.7715 43.29 38.02 43.29H38.92C39.1685 43.29 39.37 43.0885 39.37 42.84V37.89H45.85C46.0985 37.89 46.3 37.6885 46.3 37.44V36.54C46.3 36.2915 46.0985 36.09 45.85 36.09H39.37V28.62H45.85C46.0985 28.62 46.3 28.4185 46.3 28.17V27.27C46.3 27.0215 46.0985 26.82 45.85 26.82H39.37V19.35H45.85C46.0985 19.35 46.3 19.1485 46.3 18.9V18C46.3 17.7515 46.0985 17.55 45.85 17.55H39.37V12.6C39.37 12.3515 39.1685 12.15 38.92 12.15H38.02C37.7715 12.15 37.57 12.3515 37.57 12.6V17.55H27.4V12.6C27.4 12.3515 27.1985 12.15 26.95 12.15H26.05C25.8015 12.15 25.6 12.3515 25.6 12.6V17.55H15.43V12.6C15.43 12.3515 15.2285 12.15 14.98 12.15H14.08ZM25.6 36.09H15.43V28.62H25.6V36.09ZM37.57 36.09H27.4V28.62H37.57V36.09ZM25.6 26.82H15.43V19.35H25.6V26.82ZM37.57 26.82H27.4V19.35H37.57V26.82ZM10.3 0C10.7971 0 11.2 0.402944 11.2 0.9V4.95H41.8V0.9C41.8 0.402944 42.2029 7.2479e-09 42.7 0H45.4C45.8971 0 46.3 0.402944 46.3 0.9V4.95H48.55C48.7985 4.95 49 5.15147 49 5.4V9C49 9.24853 48.7985 9.45 48.55 9.45H4.45C4.20147 9.45 4 9.24853 4 9V5.4C4 5.15147 4.20147 4.95 4.45 4.95H6.7V0.9C6.7 0.402944 7.10294 7.2479e-09 7.6 0H10.3Z" fill="#3D5A47"/>
</g>
<path d="M14.957 58V52.3633H18.1094C18.8047 52.3633 19.3919 52.4714 19.8711 52.6875C20.3529 52.9036 20.7188 53.2201 20.9688 53.6367C21.2188 54.0508 21.3438 54.5534 21.3438 55.1445V55.1523C21.3438 55.7643 21.2188 56.2826 20.9688 56.707C20.7188 57.1315 20.3529 57.4531 19.8711 57.6719C19.3919 57.8906 18.8047 58 18.1094 58H14.957ZM16.4531 56.8633H17.9922C18.3802 56.8633 18.7096 56.8008 18.9805 56.6758C19.2539 56.5508 19.4609 56.3633 19.6016 56.1133C19.7448 55.8633 19.8164 55.5534 19.8164 55.1836V55.1758C19.8164 54.8138 19.7474 54.5091 19.6094 54.2617C19.474 54.0117 19.2695 53.8229 18.9961 53.6953C18.7253 53.5651 18.3906 53.5 17.9922 53.5H16.4531V56.8633ZM24.3086 58.1055C23.9049 58.1055 23.5599 58.0312 23.2734 57.8828C22.9896 57.7344 22.7708 57.5182 22.6172 57.2344C22.4661 56.9505 22.3906 56.6042 22.3906 56.1953V53.6914H23.8398V55.8906C23.8398 56.2604 23.9284 56.5443 24.1055 56.7422C24.2826 56.9401 24.5456 57.0391 24.8945 57.0391C25.0768 57.0391 25.2409 57.0117 25.3867 56.957C25.5352 56.8997 25.6628 56.8203 25.7695 56.7188C25.8763 56.6146 25.9583 56.4883 26.0156 56.3398C26.0729 56.1914 26.1016 56.0221 26.1016 55.832V53.6914H27.5469V58H26.1016V57.1719H26.0586C25.9622 57.362 25.8307 57.5273 25.6641 57.668C25.4974 57.806 25.2995 57.9141 25.0703 57.9922C24.8411 58.0677 24.5872 58.1055 24.3086 58.1055ZM31.2305 58.0391C30.556 58.0391 30.0664 57.9245 29.7617 57.6953C29.4596 57.4661 29.3086 57.0951 29.3086 56.582V54.6758H28.4297V53.6953H29.3086V52.6562H30.7578V53.6953H32.1016V54.6758H30.7578V56.3477C30.7578 56.5951 30.8229 56.7734 30.9531 56.8828C31.0833 56.9922 31.3008 57.0469 31.6055 57.0469C31.7018 57.0469 31.7904 57.043 31.8711 57.0352C31.9544 57.0273 32.0312 57.0182 32.1016 57.0078V57.9727C31.9818 57.9909 31.8464 58.0065 31.6953 58.0195C31.5443 58.0326 31.3893 58.0391 31.2305 58.0391ZM34.0781 59.4805C33.9401 59.4805 33.8073 59.4727 33.6797 59.457C33.5547 59.444 33.4427 59.4258 33.3438 59.4023V58.4141C33.4271 58.4323 33.5169 58.4453 33.6133 58.4531C33.7096 58.4635 33.8047 58.4688 33.8984 58.4688C34.1042 58.4688 34.2812 58.4375 34.4297 58.375C34.5781 58.3125 34.6953 58.2122 34.7812 58.0742L34.8477 57.9453L32.7812 53.6953H34.3125L35.7852 57.0664L35.5352 56.7812H35.8672L35.6211 57.0664L37.0156 53.6953H38.5156L36.6133 57.7422C36.4128 58.1641 36.1966 58.5013 35.9648 58.7539C35.7357 59.0091 35.4688 59.194 35.1641 59.3086C34.862 59.4232 34.5 59.4805 34.0781 59.4805Z" fill="#F9F9F3"/>
<defs>
<filter id="filter0_d_426_3517" x="0" y="0" width="53" height="53" filterUnits="userSpaceOnUse" color-interpolation-filters="sRGB">
<feFlood flood-opacity="0" result="BackgroundImageFix"/>
<feColorMatrix in="SourceAlpha" type="matrix" values="0 0 0 0 0 0 0 0 0 0 0 0 0 0 0 0 0 0 127 0" result="hardAlpha"/>
<feOffset dy="4"/>
<feGaussianBlur stdDeviation="2"/>
<feComposite in2="hardAlpha" operator="out"/>
<feColorMatrix type="matrix" values="0 0 0 0 0 0 0 0 0 0 0 0 0 0 0 0 0 0 0.25 0"/>
<feBlend mode="normal" in2="BackgroundImageFix" result="effect1_dropShadow_426_3517"/>
<feBlend mode="normal" in="SourceGraphic" in2="effect1_dropShadow_426_3517" result="shape"/>
</filter>
</defs>
</svg>
