<svg width="53" height="53" viewBox="0 0 53 53" fill="none" xmlns="http://www.w3.org/2000/svg">
<g filter="url(#filter0_d_432_1780)">
<path d="M48.55 10.35C48.7985 10.35 49 10.5515 49 10.8V44.55C49 44.7985 48.7985 45 48.55 45H4.45C4.20147 45 4 44.7985 4 44.55V10.8C4 10.5515 4.20147 10.35 4.45 10.35H48.55ZM14.08 12.15C13.8315 12.15 13.63 12.3515 13.63 12.6V17.55H7.15C6.90147 17.55 6.7 17.7515 6.7 18V18.9C6.7 19.1485 6.90147 19.35 7.15 19.35H13.63V26.82H7.15C6.90147 26.82 6.7 27.0215 6.7 27.27V28.17C6.7 28.4185 6.90147 28.62 7.15 28.62H13.63V36.09H7.15C6.90147 36.09 6.7 36.2915 6.7 36.54V37.44C6.7 37.6885 6.90147 37.89 7.15 37.89H13.63V42.84C13.63 43.0885 13.8315 43.29 14.08 43.29H14.98C15.2285 43.29 15.43 43.0885 15.43 42.84V37.89H25.6V42.84C25.6 43.0885 25.8015 43.29 26.05 43.29H26.95C27.1985 43.29 27.4 43.0885 27.4 42.84V37.89H37.57V42.84C37.57 43.0885 37.7715 43.29 38.02 43.29H38.92C39.1685 43.29 39.37 43.0885 39.37 42.84V37.89H45.85C46.0985 37.89 46.3 37.6885 46.3 37.44V36.54C46.3 36.2915 46.0985 36.09 45.85 36.09H39.37V28.62H45.85C46.0985 28.62 46.3 28.4185 46.3 28.17V27.27C46.3 27.0215 46.0985 26.82 45.85 26.82H39.37V19.35H45.85C46.0985 19.35 46.3 19.1485 46.3 18.9V18C46.3 17.7515 46.0985 17.55 45.85 17.55H39.37V12.6C39.37 12.3515 39.1685 12.15 38.92 12.15H38.02C37.7715 12.15 37.57 12.3515 37.57 12.6V17.55H27.4V12.6C27.4 12.3515 27.1985 12.15 26.95 12.15H26.05C25.8015 12.15 25.6 12.3515 25.6 12.6V17.55H15.43V12.6C15.43 12.3515 15.2285 12.15 14.98 12.15H14.08ZM25.6 36.09H15.43V28.62H25.6V36.09ZM37.57 36.09H27.4V28.62H37.57V36.09ZM25.6 26.82H15.43V19.35H25.6V26.82ZM37.57 26.82H27.4V19.35H37.57V26.82ZM10.3 0C10.7971 0 11.2 0.402944 11.2 0.9V4.95H41.8V0.9C41.8 0.402944 42.2029 7.2479e-09 42.7 0H45.4C45.8971 0 46.3 0.402944 46.3 0.9V4.95H48.55C48.7985 4.95 49 5.15147 49 5.4V9C49 9.24853 48.7985 9.45 48.55 9.45H4.45C4.20147 9.45 4 9.24853 4 9V5.4C4 5.15147 4.20147 4.95 4.45 4.95H6.7V0.9C6.7 0.402944 7.10294 7.2479e-09 7.6 0H10.3Z" fill="#3D5A47"/>
</g>
<defs>
<filter id="filter0_d_432_1780" x="0" y="0" width="53" height="53" filterUnits="userSpaceOnUse" color-interpolation-filters="sRGB">
<feFlood flood-opacity="0" result="BackgroundImageFix"/>
<feColorMatrix in="SourceAlpha" type="matrix" values="0 0 0 0 0 0 0 0 0 0 0 0 0 0 0 0 0 0 127 0" result="hardAlpha"/>
<feOffset dy="4"/>
<feGaussianBlur stdDeviation="2"/>
<feComposite in2="hardAlpha" operator="out"/>
<feColorMatrix type="matrix" values="0 0 0 0 0 0 0 0 0 0 0 0 0 0 0 0 0 0 0.25 0"/>
<feBlend mode="normal" in2="BackgroundImageFix" result="effect1_dropShadow_432_1780"/>
<feBlend mode="normal" in="SourceGraphic" in2="effect1_dropShadow_432_1780" result="shape"/>
</filter>
</defs>
</svg>
