<svg width="53" height="62" viewBox="0 0 53 62" fill="none" xmlns="http://www.w3.org/2000/svg">
<path d="M13.5391 59.1289C12.9089 59.1289 12.3672 59.0612 11.9141 58.9258C11.4635 58.7904 11.1068 58.5924 10.8438 58.332C10.5833 58.0716 10.4271 57.7565 10.375 57.3867L10.3672 57.332H11.8242L11.832 57.3672C11.8685 57.5156 11.957 57.6406 12.0977 57.7422C12.2409 57.8438 12.4349 57.9219 12.6797 57.9766C12.9271 58.0312 13.2266 58.0586 13.5781 58.0586C13.8672 58.0586 14.1159 58.0312 14.3242 57.9766C14.5326 57.9193 14.6927 57.8385 14.8047 57.7344C14.9167 57.6302 14.9727 57.5078 14.9727 57.3672V57.3633C14.9727 57.1836 14.8971 57.0495 14.7461 56.9609C14.5977 56.8724 14.3398 56.8086 13.9727 56.7695L12.5781 56.6562C11.8698 56.5859 11.3464 56.418 11.0078 56.1523C10.6693 55.8841 10.5 55.513 10.5 55.0391V55.0312C10.5 54.6589 10.6146 54.3385 10.8438 54.0703C11.0729 53.8021 11.3984 53.5964 11.8203 53.4531C12.2448 53.3073 12.7474 53.2344 13.3281 53.2344C13.9219 53.2344 14.4323 53.3034 14.8594 53.4414C15.2865 53.5768 15.6237 53.7734 15.8711 54.0312C16.1185 54.2891 16.2695 54.5964 16.3242 54.9531L16.3359 55.0078H14.8906L14.8789 54.9727C14.8372 54.8268 14.7539 54.7044 14.6289 54.6055C14.5039 54.5065 14.3333 54.4323 14.1172 54.3828C13.9036 54.3307 13.6445 54.3047 13.3398 54.3047C13.0508 54.3047 12.806 54.3307 12.6055 54.3828C12.4049 54.4323 12.2526 54.5052 12.1484 54.6016C12.0469 54.6953 11.9961 54.8086 11.9961 54.9414V54.9453C11.9961 55.1172 12.0729 55.2487 12.2266 55.3398C12.3802 55.431 12.6354 55.4961 12.9922 55.5352L14.4023 55.6445C14.8737 55.694 15.2604 55.7839 15.5625 55.9141C15.8672 56.0443 16.0938 56.2201 16.2422 56.4414C16.3906 56.6602 16.4648 56.9284 16.4648 57.2461V57.25C16.4648 57.6432 16.349 57.9805 16.1172 58.2617C15.888 58.5404 15.5547 58.7552 15.1172 58.9062C14.6823 59.0547 14.1562 59.1289 13.5391 59.1289ZM20.1055 59.1055C19.5326 59.1055 19.0391 59.0169 18.625 58.8398C18.2135 58.6628 17.8958 58.4076 17.6719 58.0742C17.4479 57.7383 17.3359 57.3346 17.3359 56.8633V56.8594C17.3359 56.3906 17.4492 55.987 17.6758 55.6484C17.9023 55.3073 18.2188 55.0456 18.625 54.8633C19.0339 54.6784 19.5078 54.5872 20.0469 54.5898C20.599 54.5898 21.0755 54.6849 21.4766 54.875C21.8776 55.0651 22.1862 55.332 22.4023 55.6758C22.6185 56.0169 22.7266 56.4193 22.7266 56.8828V57.1523H18.0859V56.4062H21.793L21.3711 56.957V56.6875C21.3711 56.4479 21.319 56.2422 21.2148 56.0703C21.1133 55.8958 20.9661 55.7617 20.7734 55.668C20.5807 55.5742 20.349 55.5273 20.0781 55.5273C19.7969 55.5273 19.556 55.5729 19.3555 55.6641C19.1549 55.7552 19.0013 55.8906 18.8945 56.0703C18.7878 56.2474 18.7344 56.4674 18.7344 56.7305V56.9492C18.7344 57.2409 18.7943 57.4779 18.9141 57.6602C19.0365 57.8398 19.2031 57.9714 19.4141 58.0547C19.6276 58.1354 19.8737 58.1758 20.1523 58.1758C20.3346 58.1758 20.5013 58.1562 20.6523 58.1172C20.806 58.0755 20.9388 58.0195 21.0508 57.9492C21.1654 57.8789 21.25 57.7982 21.3047 57.707L21.3164 57.6836L22.668 57.6797L22.6562 57.7227C22.5964 57.931 22.4922 58.1211 22.3438 58.293C22.1979 58.4622 22.0143 58.6081 21.793 58.7305C21.5742 58.8503 21.3216 58.9427 21.0352 59.0078C20.7513 59.0729 20.4414 59.1055 20.1055 59.1055ZM26.1836 59.0391C25.5091 59.0391 25.0195 58.9245 24.7148 58.6953C24.4128 58.4661 24.2617 58.0951 24.2617 57.582V55.6758H23.3828V54.6953H24.2617V53.6562H25.7109V54.6953H27.0547V55.6758H25.7109V57.3477C25.7109 57.5951 25.776 57.7734 25.9062 57.8828C26.0365 57.9922 26.2539 58.0469 26.5586 58.0469C26.6549 58.0469 26.7435 58.043 26.8242 58.0352C26.9076 58.0273 26.9844 58.0182 27.0547 58.0078V58.9727C26.9349 58.9909 26.7995 59.0065 26.6484 59.0195C26.4974 59.0326 26.3424 59.0391 26.1836 59.0391ZM28.0742 59V54.6953H29.5234V59H28.0742ZM28.7969 54.1562C28.5677 54.1562 28.3789 54.0911 28.2305 53.9609C28.0846 53.8281 28.0117 53.6628 28.0117 53.4648C28.0117 53.2695 28.0846 53.1068 28.2305 52.9766C28.3789 52.8464 28.5677 52.7812 28.7969 52.7812C29.0286 52.7812 29.2174 52.8464 29.3633 52.9766C29.5091 53.1068 29.582 53.2695 29.582 53.4648C29.582 53.6628 29.5091 53.8281 29.3633 53.9609C29.2174 54.0911 29.0286 54.1562 28.7969 54.1562ZM30.75 59V54.6953H32.1953V55.5234H32.2383C32.3841 55.2344 32.6068 55.0065 32.9062 54.8398C33.2057 54.6706 33.569 54.5859 33.9961 54.5859C34.6107 54.5859 35.0859 54.7539 35.4219 55.0898C35.7604 55.4232 35.9297 55.8958 35.9297 56.5078V59H34.4805V56.8125C34.4805 56.4323 34.3893 56.1445 34.207 55.9492C34.0273 55.7539 33.7604 55.6562 33.4062 55.6562C33.1562 55.6562 32.9414 55.7057 32.7617 55.8047C32.582 55.901 32.4427 56.0391 32.3438 56.2188C32.2448 56.3984 32.1953 56.612 32.1953 56.8594V59H30.75ZM39.6523 60.5352C39.1576 60.5352 38.7266 60.4805 38.3594 60.3711C37.9948 60.2643 37.7018 60.112 37.4805 59.9141C37.2591 59.7188 37.1172 59.4896 37.0547 59.2266L37.0469 59.1914H38.5039L38.5156 59.2148C38.5885 59.3451 38.7214 59.4466 38.9141 59.5195C39.1068 59.5951 39.3568 59.6328 39.6641 59.6328C40.1198 59.6328 40.4609 59.5456 40.6875 59.3711C40.9167 59.1992 41.0312 58.9505 41.0312 58.625V58.0625H40.9883C40.8841 58.2266 40.7448 58.3711 40.5703 58.4961C40.3958 58.6185 40.1901 58.7135 39.9531 58.7812C39.7188 58.849 39.457 58.8828 39.168 58.8828C38.7148 58.8828 38.3164 58.7943 37.9727 58.6172C37.6315 58.4401 37.3659 58.1927 37.1758 57.875C36.9857 57.5573 36.8906 57.1914 36.8906 56.7773V56.7695C36.8906 56.3398 36.9857 55.9622 37.1758 55.6367C37.3685 55.3112 37.6354 55.0573 37.9766 54.875C38.3177 54.6901 38.7174 54.5977 39.1758 54.5977C39.4648 54.5977 39.7266 54.6354 39.9609 54.7109C40.1979 54.7865 40.4036 54.8906 40.5781 55.0234C40.7526 55.1536 40.8919 55.3047 40.9961 55.4766H41.0312V54.6914H42.4766V58.5547C42.4766 58.9766 42.3659 59.3346 42.1445 59.6289C41.9232 59.9232 41.6016 60.1471 41.1797 60.3008C40.7604 60.457 40.2513 60.5352 39.6523 60.5352ZM39.6914 57.9375C39.9648 57.9375 40.2018 57.8893 40.4023 57.793C40.6029 57.6966 40.7578 57.5612 40.8672 57.3867C40.9792 57.2122 41.0352 57.0078 41.0352 56.7734V56.7656C41.0352 56.5312 40.9792 56.3268 40.8672 56.1523C40.7578 55.9779 40.6029 55.8438 40.4023 55.75C40.2018 55.6536 39.9648 55.6055 39.6914 55.6055C39.4232 55.6055 39.1888 55.6523 38.9883 55.7461C38.7904 55.8398 38.6367 55.974 38.5273 56.1484C38.4206 56.3203 38.3672 56.526 38.3672 56.7656V56.7734C38.3672 57.013 38.4206 57.2201 38.5273 57.3945C38.6367 57.5664 38.7904 57.7005 38.9883 57.7969C39.1888 57.8906 39.4232 57.9375 39.6914 57.9375Z" fill="#F9F9F3"/>
<g filter="url(#filter0_d_426_3521)">
<path d="M44.5 35.982C46.9853 35.982 49 38.0007 49 40.491C49 42.9812 46.9853 45 44.5 45H8.5C6.01472 45 4 42.9812 4 40.491C4 38.0007 6.01472 35.982 8.5 35.982H44.5ZM44.5 23.988C46.9853 23.988 49 26.0067 49 28.497C49 30.9873 46.9853 33.006 44.5 33.006H8.5C6.01472 33.006 4 30.9873 4 28.497C4 26.0067 6.01472 23.988 8.5 23.988H44.5ZM44.5 11.994C46.9853 11.994 49 14.0127 49 16.503C49 18.9933 46.9853 21.012 44.5 21.012H8.5C6.01472 21.012 4 18.9933 4 16.503C4 14.0127 6.01472 11.994 8.5 11.994H44.5ZM44.5 0C46.9853 1.04185e-07 49 2.01876 49 4.50902C49 6.99928 46.9853 9.01804 44.5 9.01804H8.5C6.01472 9.01804 4 6.99928 4 4.50902C4 2.01876 6.01472 1.08853e-07 8.5 0H44.5Z" fill="#3D5A47"/>
</g>
<defs>
<filter id="filter0_d_426_3521" x="0" y="0" width="53" height="53" filterUnits="userSpaceOnUse" color-interpolation-filters="sRGB">
<feFlood flood-opacity="0" result="BackgroundImageFix"/>
<feColorMatrix in="SourceAlpha" type="matrix" values="0 0 0 0 0 0 0 0 0 0 0 0 0 0 0 0 0 0 127 0" result="hardAlpha"/>
<feOffset dy="4"/>
<feGaussianBlur stdDeviation="2"/>
<feComposite in2="hardAlpha" operator="out"/>
<feColorMatrix type="matrix" values="0 0 0 0 0 0 0 0 0 0 0 0 0 0 0 0 0 0 0.25 0"/>
<feBlend mode="normal" in2="BackgroundImageFix" result="effect1_dropShadow_426_3521"/>
<feBlend mode="normal" in="SourceGraphic" in2="effect1_dropShadow_426_3521" result="shape"/>
</filter>
</defs>
</svg>
