<svg width="81" height="100" viewBox="0 0 81 100" fill="none" xmlns="http://www.w3.org/2000/svg">
<path d="M29.2948 26.717C30.2059 26.717 31.0045 26.2363 31.4506 25.5149H37.865L35.2565 28.1192L37.3706 30.23L35.9954 31.603L37.9369 33.5414V37.1195L40.4092 36.255L42.7264 37.0307V33.5414L44.6679 31.603L43.2927 30.23L45.4068 28.1192L42.7983 25.5149H49.5493C49.9948 26.2363 50.7934 26.717 51.7051 26.717C53.1029 26.717 54.2365 25.5857 54.2365 24.1896C54.2365 22.7936 53.1034 21.6623 51.7051 21.6623C50.7939 21.6623 49.9954 22.143 49.5493 22.8644H42.2716V8.91303C42.6406 8.47384 42.8631 7.90793 42.8631 7.29019C42.8631 6.29381 42.2849 5.43186 41.4458 5.02038V2.87883C41.7793 2.57612 41.989 2.1395 41.989 1.65413C41.989 0.740358 41.2469 0 40.3322 0C39.4174 0 38.6754 0.740871 38.6754 1.65413C38.6754 2.1395 38.885 2.57612 39.2186 2.87883V5.02038C38.3794 5.43186 37.8012 6.2933 37.8012 7.29019C37.8012 7.90793 38.0238 8.47384 38.3927 8.91303V22.8644H31.4516C31.0061 22.143 30.2075 21.6623 29.2958 21.6623C27.8981 21.6623 26.7644 22.7936 26.7644 24.1896C26.7644 25.5857 27.8975 26.717 29.2958 26.717H29.2948Z" fill="#F9F9F3"/>
<path d="M60.965 48.4922L60.9994 53.5398H76.9146L81 48.4922H60.965Z" fill="#F9F9F3"/>
<path d="M61.0349 58.674C61.0379 59.1014 61.0318 59.5283 61.0184 59.9536H68.7345L72.8199 54.9066H61.0087L61.0344 58.674H61.0349Z" fill="#F9F9F3"/>
<path d="M60.2131 66.2869H60.7687L64.8541 61.2393H60.9547C60.8355 62.9484 60.5862 64.6354 60.2136 66.2869H60.2131Z" fill="#F9F9F3"/>
<path d="M19.9996 48.4922H0L4.08543 53.5398H20.034L19.9996 48.4922Z" fill="#F9F9F3"/>
<path d="M20.0715 58.9439L20.0437 54.906H8.18005L12.2655 59.9531H20.0936C20.0813 59.6175 20.0735 59.281 20.0715 58.9434V58.9439Z" fill="#F9F9F3"/>
<path d="M16.146 61.2399L20.2314 66.2874H20.937C20.5547 64.6369 20.2957 62.9504 20.1667 61.2399H16.146Z" fill="#F9F9F3"/>
<path d="M40.4237 38.4237L22.03 44.8545L22.1271 58.93C22.1616 63.9494 23.4175 68.9539 25.7588 73.4027C28.1006 77.8525 31.5226 81.7339 35.6543 84.6281L40.7634 88.2068L45.817 84.5604C49.9055 81.6102 53.271 77.6832 55.5496 73.2036C57.8277 68.725 59.0137 63.7057 58.9788 58.6884L58.8817 44.6036L40.4232 38.4237H40.4237ZM44.6011 47.2357H48.722V51.35H44.6011V47.2357ZM32.7462 64.8339L26.8483 64.8986L38.6996 53.0662L41.6159 55.9778L32.7457 64.8339H32.7462ZM48.4368 68.4772H44.6006V64.818L39.3934 59.6191L42.3097 56.7074L44.6006 58.9947V55.9527L48.7251 51.743V63.1121L54.1616 68.5398L48.4368 68.4767V68.4772Z" fill="#F9F9F3"/>
<path d="M66.9199 91.7086H68.3423V96.5688H66.9199V91.7086ZM67.7946 93.6227H69.376V94.787H67.7946V93.6227ZM62.8559 96.8687H64.2695V97.3538H66.9376V96.8687H68.3423V99.903H62.8559V96.8687ZM64.2695 98.4123V98.8004H66.9376V98.4123H64.2695ZM61.7604 92.3525H66.6284V93.4639H61.7604V92.3525ZM64.1988 93.5962C64.6052 93.5962 64.9615 93.6579 65.2678 93.7814C65.58 93.9049 65.8244 94.0784 66.0011 94.3018C66.1778 94.5194 66.2661 94.7723 66.2661 95.0604C66.2661 95.3544 66.1778 95.6132 66.0011 95.8366C65.8244 96.0601 65.58 96.2336 65.2678 96.3571C64.9615 96.4806 64.6052 96.5423 64.1988 96.5423C63.7924 96.5423 63.4331 96.4806 63.1209 96.3571C62.8147 96.2336 62.5732 96.0601 62.3965 95.8366C62.2198 95.6132 62.1314 95.3544 62.1314 95.0604C62.1314 94.7723 62.2198 94.5194 62.3965 94.3018C62.5732 94.0784 62.8147 93.9049 63.1209 93.7814C63.4331 93.6579 63.7924 93.5962 64.1988 93.5962ZM64.1988 94.6194C63.9926 94.6194 63.8248 94.6576 63.6952 94.7341C63.5656 94.8046 63.5008 94.9164 63.5008 95.0692C63.5008 95.228 63.5656 95.3427 63.6952 95.4132C63.8248 95.4838 63.9926 95.5191 64.1988 95.5191C64.4049 95.5191 64.5728 95.4838 64.7024 95.4132C64.8319 95.3427 64.8967 95.228 64.8967 95.0692C64.8967 94.9164 64.8319 94.8046 64.7024 94.7341C64.5728 94.6576 64.4049 94.6194 64.1988 94.6194ZM63.4832 91.6468H64.9056V92.9787H63.4832V91.6468Z" fill="#F9F9F3"/>
<path d="M56.6634 94.6811H58.0858V96.1366H56.6634V94.6811ZM53.6418 95.5809H61.1426V96.6923H53.6418V95.5809ZM57.3701 97.0274C58.2772 97.0274 58.9869 97.1568 59.4993 97.4156C60.0117 97.6743 60.268 98.0418 60.268 98.5181C60.268 98.9886 60.0117 99.3502 59.4993 99.6031C58.9869 99.8618 58.2772 99.9912 57.3701 99.9912C56.4631 99.9912 55.7534 99.8618 55.2409 99.6031C54.7285 99.3502 54.4723 98.9886 54.4723 98.5181C54.4723 98.0418 54.7285 97.6743 55.2409 97.4156C55.7534 97.1568 56.4631 97.0274 57.3701 97.0274ZM57.3701 98.0859C56.8636 98.0859 56.4925 98.1183 56.2569 98.183C56.0272 98.2476 55.9124 98.3594 55.9124 98.5181C55.9124 98.6769 56.0272 98.7886 56.2569 98.8533C56.4925 98.9121 56.8636 98.9415 57.3701 98.9415C57.8767 98.9415 58.2448 98.9121 58.4745 98.8533C58.7101 98.7886 58.8279 98.6769 58.8279 98.5181C58.8279 98.3594 58.7101 98.2476 58.4745 98.183C58.2448 98.1183 57.8767 98.0859 57.3701 98.0859ZM56.3983 92.5377H57.6617V92.7141C57.6617 92.9552 57.6234 93.1875 57.5468 93.411C57.4703 93.6344 57.3495 93.8461 57.1846 94.0461C57.0256 94.2401 56.8165 94.4165 56.5573 94.5753C56.3041 94.7341 55.9978 94.8664 55.6385 94.9722C55.2792 95.0722 54.864 95.1428 54.3928 95.1839L53.9069 94.0725C54.3074 94.0431 54.649 93.9931 54.9317 93.9226C55.2203 93.852 55.4589 93.7697 55.6473 93.6756C55.8358 93.5756 55.9831 93.4698 56.0891 93.358C56.201 93.2463 56.2805 93.1346 56.3276 93.0229C56.3747 92.9111 56.3983 92.8082 56.3983 92.7141V92.5377ZM57.1228 92.5377H58.3861V92.7141C58.3861 92.8141 58.4068 92.92 58.448 93.0317C58.4951 93.1434 58.5717 93.2551 58.6777 93.3669C58.7896 93.4727 58.9398 93.5756 59.1283 93.6756C59.3226 93.7697 59.5612 93.852 59.8439 93.9226C60.1325 93.9931 60.477 94.0431 60.8776 94.0725L60.3916 95.1839C59.9205 95.1428 59.5052 95.0722 59.1459 94.9722C58.7866 94.8664 58.4774 94.737 58.2183 94.5841C57.965 94.4253 57.7559 94.2489 57.591 94.0549C57.432 93.8549 57.3142 93.6432 57.2376 93.4198C57.161 93.1905 57.1228 92.9552 57.1228 92.7141V92.5377ZM54.3221 92.0261H60.4712V93.1375H54.3221V92.0261Z" fill="#F9F9F3"/>
<path d="M47.573 95.9954H48.9954V97.786H47.573V95.9954ZM51.1776 91.6997H52.6V97.9536H51.1776V91.6997ZM46.4598 98.7298H52.7767V99.8589H46.4598V98.7298ZM46.4598 97.3714H47.8822V99.0297H46.4598V97.3714ZM45.6647 96.3923L45.4968 95.2721C45.9975 95.2662 46.5423 95.2604 47.1313 95.2545C47.7261 95.2427 48.3299 95.2192 48.9424 95.1839C49.5608 95.1486 50.1557 95.0957 50.727 95.0251L50.8154 96.0307C50.2323 96.1307 49.6374 96.2071 49.0308 96.26C48.43 96.313 47.841 96.3482 47.2638 96.3659C46.6925 96.3776 46.1594 96.3865 45.6647 96.3923ZM49.6845 96.4629H51.478V97.4155H49.6845V96.4629ZM48.1473 91.9555C48.5537 91.9555 48.913 92.0202 49.2251 92.1496C49.5373 92.2731 49.7817 92.4495 49.9584 92.6788C50.1351 92.9023 50.2235 93.161 50.2235 93.4551C50.2235 93.7491 50.1351 94.0108 49.9584 94.2401C49.7817 94.4635 49.5373 94.637 49.2251 94.7605C48.913 94.884 48.5537 94.9457 48.1473 94.9457C47.7409 94.9457 47.3786 94.884 47.0606 94.7605C46.7484 94.637 46.504 94.4635 46.3273 94.2401C46.1506 94.0108 46.0623 93.7491 46.0623 93.4551C46.0623 93.161 46.1506 92.9023 46.3273 92.6788C46.504 92.4495 46.7484 92.2731 47.0606 92.1496C47.3786 92.0202 47.7409 91.9555 48.1473 91.9555ZM48.1473 92.9876C47.9293 92.9876 47.7526 93.0228 47.6172 93.0934C47.4817 93.164 47.414 93.2845 47.414 93.4551C47.414 93.6197 47.4817 93.7403 47.6172 93.8167C47.7526 93.8873 47.9293 93.9225 48.1473 93.9225C48.3652 93.9225 48.5389 93.8873 48.6685 93.8167C48.804 93.7403 48.8717 93.6197 48.8717 93.4551C48.8717 93.3433 48.8393 93.2551 48.7745 93.1904C48.7156 93.1199 48.6332 93.0699 48.5272 93.0405C48.4211 93.0052 48.2945 92.9876 48.1473 92.9876Z" fill="#F9F9F3"/>
<path d="M42.9 91.7086H44.3313V97.6008H42.9V91.7086ZM38.7035 98.7298H44.5168V99.8589H38.7035V98.7298ZM38.7035 97.0186H40.1259V99.215H38.7035V97.0186ZM39.7814 92.2025C40.2113 92.2025 40.6 92.2937 40.9475 92.476C41.295 92.6583 41.5719 92.9111 41.778 93.2345C41.9842 93.5521 42.0872 93.9196 42.0872 94.3371C42.0872 94.7429 41.9842 95.1075 41.778 95.4309C41.5719 95.7543 41.295 96.0101 40.9475 96.1983C40.6 96.3806 40.2113 96.4717 39.7814 96.4717C39.3514 96.4717 38.9627 96.3806 38.6152 96.1983C38.2677 96.0101 37.9908 95.7543 37.7847 95.4309C37.5785 95.1075 37.4755 94.7429 37.4755 94.3371C37.4755 93.9196 37.5785 93.5521 37.7847 93.2345C37.9908 92.9111 38.2677 92.6583 38.6152 92.476C38.9627 92.2937 39.3514 92.2025 39.7814 92.2025ZM39.7814 93.4286C39.6105 93.4286 39.4545 93.4639 39.3131 93.5344C39.1776 93.5991 39.0687 93.6991 38.9862 93.8343C38.9096 93.9637 38.8714 94.1313 38.8714 94.3371C38.8714 94.5371 38.9096 94.7046 38.9862 94.8399C39.0687 94.9693 39.1776 95.0692 39.3131 95.1398C39.4545 95.2045 39.6105 95.2368 39.7814 95.2368C39.9522 95.2368 40.1053 95.2045 40.2408 95.1398C40.3821 95.0692 40.4911 94.9693 40.5676 94.8399C40.6501 94.7046 40.6913 94.5371 40.6913 94.3371C40.6913 94.1313 40.6501 93.9637 40.5676 93.8343C40.4911 93.6991 40.3821 93.5991 40.2408 93.5344C40.1053 93.4639 39.9522 93.4286 39.7814 93.4286Z" fill="#F9F9F3"/>
<path d="M34.6621 99.1444V92.9294H36.5516V99.1444H34.6621Z" fill="#F9F9F3"/>
<path d="M25.9827 99.1444L28.7694 92.9294H30.5856V94.3594H29.9644L27.9757 99.1444H25.9827ZM27.5227 97.8308L28.0361 96.599H31.8668L32.3758 97.8308H27.5227ZM31.9833 99.1444L29.9946 94.3594V92.9294H31.1895L33.9763 99.1444H31.9833Z" fill="#F9F9F3"/>
<path d="M21.8524 96.6834C22.4296 96.6834 22.9303 96.751 23.3544 96.8863C23.7784 97.0157 24.1053 97.2038 24.335 97.4508C24.5706 97.6978 24.6884 97.9948 24.6884 98.3417C24.6884 98.6887 24.5706 98.9856 24.335 99.2326C24.1053 99.4796 23.7784 99.6677 23.3544 99.7971C22.9303 99.9324 22.4296 100 21.8524 100C21.2693 100 20.7628 99.9324 20.3328 99.7971C19.9029 99.6677 19.5701 99.4796 19.3345 99.2326C19.1048 98.9856 18.99 98.6887 18.99 98.3417C18.99 97.9948 19.1048 97.6978 19.3345 97.4508C19.5701 97.2038 19.9029 97.0157 20.3328 96.8863C20.7628 96.751 21.2693 96.6834 21.8524 96.6834ZM21.8524 97.7948C21.5285 97.7948 21.2605 97.8125 21.0485 97.8477C20.8364 97.883 20.6774 97.9418 20.5714 98.0242C20.4654 98.1006 20.4124 98.2065 20.4124 98.3417C20.4124 98.477 20.4654 98.5857 20.5714 98.6681C20.6774 98.7504 20.8364 98.8121 21.0485 98.8533C21.2605 98.8886 21.5285 98.9062 21.8524 98.9062C22.1705 98.9062 22.4326 98.8886 22.6387 98.8533C22.8508 98.8121 23.0098 98.7504 23.1158 98.6681C23.2218 98.5857 23.2748 98.477 23.2748 98.3417C23.2748 98.2065 23.2218 98.1006 23.1158 98.0242C23.0098 97.9418 22.8508 97.883 22.6387 97.8477C22.4326 97.8125 22.1705 97.7948 21.8524 97.7948ZM23.16 91.7086H24.5824V96.5246H23.16V91.7086ZM24.1937 93.5433H25.6161V94.7076H24.1937V93.5433ZM18.1948 92.229H19.6084V93.1375H20.8453V92.229H22.2588V96.163H18.1948V92.229ZM19.6084 94.2224V95.0604H20.8453V94.2224H19.6084Z" fill="#F9F9F3"/>
<path d="M10.7919 92.0349H15.9956V93.1551H10.7919V92.0349ZM9.89075 94.8311H17.3915V95.9601H9.89075V94.8311ZM12.9211 95.6337H14.3435V97.2568H12.9211V95.6337ZM15.1563 92.0349H16.561V92.7229C16.561 93.0875 16.5493 93.4844 16.5257 93.9137C16.508 94.3371 16.4373 94.8134 16.3137 95.3427L14.9089 95.2192C15.0326 94.6958 15.1033 94.2401 15.121 93.852C15.1445 93.458 15.1563 93.0816 15.1563 92.7229V92.0349ZM10.6329 96.9392H16.5522V99.9823H15.1298V98.0506H10.6329V96.9392Z" fill="#F9F9F3"/>
</svg>
