<svg width="65" height="82" viewBox="0 0 65 82" fill="none" xmlns="http://www.w3.org/2000/svg">
<g filter="url(#filter0_d_426_3518)">
<path d="M54.2264 18.8257C54.5984 18.8257 54.9 19.0696 54.9 19.3705V54.4552C54.9 54.7561 54.5984 55 54.2264 55H19.8701C19.498 55 19.1964 54.7561 19.1964 54.4552V49.9879C19.1964 50.2888 19.498 50.5327 19.8701 50.5327H49.5108C49.8828 50.5327 50.1845 50.2888 50.1845 49.9879V18.8257H54.2264ZM44.93 10C45.302 10 45.6036 10.2439 45.6036 10.5448V45.5206C45.6036 45.8215 45.302 46.0654 44.93 46.0654H10.5737C10.2016 46.0654 9.90002 45.8215 9.90002 45.5206V10.5448C9.90002 10.2439 10.2016 10 10.5737 10H44.93Z" fill="#3D5A47"/>
</g>
<path d="M19.1525 69L21.7462 63.3633H23.1447V64.5547H22.6681L20.7345 69H19.1525ZM20.5002 67.7188L20.9337 66.7109H24.3908L24.8205 67.7188H20.5002ZM24.6408 69L22.7072 64.5547V63.3633H23.6252L26.2228 69H24.6408ZM27.2072 69V63.1484H28.6525V69H27.2072ZM31.5861 69.0703C31.2085 69.0703 30.8791 69.0195 30.5978 68.918C30.3192 68.8138 30.1017 68.6628 29.9455 68.4648C29.7918 68.2643 29.715 68.0182 29.715 67.7266V67.7227C29.715 67.4701 29.7814 67.2513 29.9142 67.0664C30.047 66.8789 30.2554 66.7318 30.5392 66.625C30.8257 66.5182 31.1968 66.4596 31.6525 66.4492L34.0783 66.4023V67.125L31.8908 67.1758C31.6226 67.1836 31.4272 67.2279 31.3048 67.3086C31.1851 67.3867 31.1252 67.4961 31.1252 67.6367V67.6445C31.1252 67.8216 31.2085 67.9544 31.3752 68.043C31.5444 68.1289 31.7645 68.1719 32.0353 68.1719C32.3035 68.1719 32.5366 68.1354 32.7345 68.0625C32.9351 67.9896 33.0887 67.8867 33.1955 67.7539C33.3048 67.6185 33.3595 67.4596 33.3595 67.2773V66.2656C33.3595 66.0365 33.2684 65.8594 33.0861 65.7344C32.9064 65.6094 32.6486 65.5469 32.3127 65.5469C32.021 65.5469 31.7892 65.5911 31.6173 65.6797C31.4481 65.7656 31.3374 65.8841 31.2853 66.0352L31.2736 66.0625H29.9142L29.922 66.0156C29.9741 65.7344 30.1004 65.487 30.3009 65.2734C30.5041 65.0573 30.7762 64.8893 31.1173 64.7695C31.4611 64.6497 31.8712 64.5898 32.3478 64.5898C32.866 64.5898 33.3074 64.6562 33.672 64.7891C34.0392 64.9193 34.3192 65.1107 34.5119 65.3633C34.7046 65.6159 34.8009 65.9219 34.8009 66.2812V69H33.3595V68.3164H33.3205C33.2241 68.4727 33.0913 68.6081 32.922 68.7227C32.7528 68.8346 32.5548 68.9206 32.3283 68.9805C32.1043 69.0404 31.8569 69.0703 31.5861 69.0703ZM36.0275 69V64.6953L37.4767 64.7031V65.5508H37.5197C37.6056 65.2513 37.7671 65.0208 38.0041 64.8594C38.241 64.6953 38.5366 64.6133 38.8908 64.6133C38.9793 64.6133 39.064 64.6185 39.1447 64.6289C39.228 64.6393 39.3022 64.6523 39.3673 64.668V65.8086C39.2788 65.7878 39.1864 65.7734 39.09 65.7656C38.9936 65.7552 38.896 65.75 38.797 65.75C38.5288 65.75 38.2957 65.7969 38.0978 65.8906C37.9025 65.9844 37.7502 66.125 37.6408 66.3125C37.5314 66.5 37.4767 66.7357 37.4767 67.0195V69H36.0275ZM40.2111 69V64.6914H41.6564V65.4844H41.6994C41.8348 65.1953 42.0431 64.974 42.3244 64.8203C42.6056 64.6641 42.9324 64.5859 43.3048 64.5859C43.5679 64.5859 43.8035 64.625 44.0119 64.7031C44.2228 64.7786 44.4025 64.888 44.5509 65.0312C44.6994 65.1745 44.814 65.3477 44.8947 65.5508H44.9377C45.0366 65.3424 45.1694 65.1667 45.3361 65.0234C45.5054 64.8802 45.702 64.7721 45.9259 64.6992C46.1499 64.6237 46.3934 64.5859 46.6564 64.5859C47.047 64.5859 47.3778 64.6602 47.6486 64.8086C47.9194 64.9544 48.1265 65.1641 48.2697 65.4375C48.4129 65.7083 48.4845 66.0339 48.4845 66.4141V69H47.0353V66.7266C47.0353 66.4948 47.0002 66.2995 46.9298 66.1406C46.8621 65.9818 46.758 65.862 46.6173 65.7812C46.4793 65.6979 46.3035 65.6562 46.09 65.6562C45.8712 65.6562 45.6837 65.7018 45.5275 65.793C45.3739 65.8841 45.2554 66.0143 45.172 66.1836C45.0887 66.3503 45.047 66.5469 45.047 66.7734V69H43.6408V66.7109C43.6408 66.487 43.6056 66.2969 43.5353 66.1406C43.4676 65.9818 43.3634 65.862 43.2228 65.7812C43.0822 65.6979 42.9077 65.6562 42.6994 65.6562C42.4832 65.6562 42.297 65.7031 42.1408 65.7969C41.9845 65.888 41.8647 66.0195 41.7814 66.1914C41.6981 66.3607 41.6564 66.5612 41.6564 66.793V69H40.2111Z" fill="#F9F9F3"/>
<defs>
<filter id="filter0_d_426_3518" x="5.90002" y="10" width="53" height="53" filterUnits="userSpaceOnUse" color-interpolation-filters="sRGB">
<feFlood flood-opacity="0" result="BackgroundImageFix"/>
<feColorMatrix in="SourceAlpha" type="matrix" values="0 0 0 0 0 0 0 0 0 0 0 0 0 0 0 0 0 0 127 0" result="hardAlpha"/>
<feOffset dy="4"/>
<feGaussianBlur stdDeviation="2"/>
<feComposite in2="hardAlpha" operator="out"/>
<feColorMatrix type="matrix" values="0 0 0 0 0 0 0 0 0 0 0 0 0 0 0 0 0 0 0.25 0"/>
<feBlend mode="normal" in2="BackgroundImageFix" result="effect1_dropShadow_426_3518"/>
<feBlend mode="normal" in="SourceGraphic" in2="effect1_dropShadow_426_3518" result="shape"/>
</filter>
</defs>
</svg>
