<svg width="65" height="82" viewBox="0 0 65 82" fill="none" xmlns="http://www.w3.org/2000/svg">
<g filter="url(#filter0_d_426_3514)">
<path d="M21.4742 39.4359C20.0639 38.3062 17.9231 38.438 16.6894 39.7296L10.7382 45.9672C9.50537 47.2588 9.64924 49.2214 11.0595 50.3512L15.1714 53.6472C17.4027 55.208 19.4091 54.9917 19.4436 54.9877C20.2939 54.8433 21.9911 55.1259 23.2316 54.7659C28.0706 53.3606 35.0333 50.5249 42.9642 42.2125C50.8952 33.9001 53.4848 26.7183 54.734 21.7438C55.1225 20.1957 54.6926 18.4083 54.8003 17.4673C54.8021 17.4365 54.8692 15.6144 53.1462 14.2336C53.0187 14.1318 52.9248 14.0425 52.8525 13.962L50.0026 11.6275L48.8215 10.7678C47.4121 9.63807 45.2696 9.77071 44.0368 11.0623L38.0856 17.2999C36.8527 18.5915 36.9958 20.5541 38.406 21.6846L43.5337 25.7923C41.5694 29.3575 39.4493 32.6567 35.806 36.4754C32.6297 39.8062 29.9504 41.7957 26.8999 43.7843L21.4742 39.4367V39.4359Z" fill="#3D5A47"/>
</g>
<path d="M15.6969 68.125C14.9886 68.125 14.3766 68.0052 13.861 67.7656C13.3453 67.526 12.9482 67.1862 12.6696 66.7461C12.3909 66.306 12.2516 65.7852 12.2516 65.1836V65.1758C12.2516 64.5742 12.3909 64.0534 12.6696 63.6133C12.9482 63.1732 13.344 62.8333 13.8571 62.5938C14.3727 62.3542 14.986 62.2344 15.6969 62.2344C16.3011 62.2344 16.8401 62.3294 17.3141 62.5195C17.7906 62.707 18.1761 62.9727 18.4703 63.3164C18.7646 63.6576 18.9443 64.0612 19.0094 64.5273L19.0133 64.5781H17.5328L17.525 64.5469C17.4573 64.3047 17.3414 64.099 17.1774 63.9297C17.0133 63.7578 16.8063 63.6276 16.5563 63.5391C16.3089 63.4479 16.0263 63.4023 15.7086 63.4023C15.3076 63.4023 14.9625 63.4753 14.6735 63.6211C14.387 63.7643 14.1656 63.9688 14.0094 64.2344C13.8558 64.5 13.7789 64.8138 13.7789 65.1758V65.1797C13.7789 65.5417 13.8558 65.8555 14.0094 66.1211C14.1656 66.3867 14.3883 66.5924 14.6774 66.7383C14.9664 66.8841 15.3102 66.957 15.7086 66.957C16.0237 66.957 16.305 66.9128 16.5524 66.8242C16.8024 66.7331 17.0094 66.6029 17.1735 66.4336C17.3401 66.2643 17.456 66.0599 17.5211 65.8203L17.5328 65.7852H19.0133L19.0094 65.8359C18.9443 66.3021 18.7646 66.707 18.4703 67.0508C18.1761 67.3919 17.792 67.6562 17.318 67.8438C16.844 68.0312 16.3037 68.125 15.6969 68.125ZM22.6227 68.1055C22.0576 68.1055 21.5667 68.0143 21.15 67.832C20.7334 67.6471 20.4104 67.3867 20.1813 67.0508C19.9547 66.7122 19.8414 66.3125 19.8414 65.8516V65.8398C19.8414 65.3789 19.956 64.9805 20.1852 64.6445C20.4143 64.3086 20.7373 64.0495 21.1539 63.8672C21.5706 63.6823 22.0602 63.5898 22.6227 63.5898C23.1878 63.5898 23.6787 63.681 24.0953 63.8633C24.512 64.0456 24.8336 64.306 25.0602 64.6445C25.2893 64.9805 25.4039 65.3789 25.4039 65.8398V65.8516C25.4039 66.3125 25.2893 66.7122 25.0602 67.0508C24.8336 67.3867 24.512 67.6471 24.0953 67.832C23.6787 68.0143 23.1878 68.1055 22.6227 68.1055ZM22.6227 67.0898C22.8857 67.0898 23.1149 67.0417 23.3102 66.9453C23.5055 66.8464 23.6565 66.7044 23.7633 66.5195C23.8727 66.3346 23.9274 66.112 23.9274 65.8516V65.8438C23.9274 65.5807 23.8727 65.3581 23.7633 65.1758C23.6565 64.9909 23.5055 64.849 23.3102 64.75C23.1149 64.651 22.8857 64.6016 22.6227 64.6016C22.3623 64.6016 22.1331 64.651 21.9352 64.75C21.7399 64.849 21.5875 64.9909 21.4781 65.1758C21.3714 65.3581 21.318 65.5807 21.318 65.8438V65.8516C21.318 66.112 21.3714 66.3346 21.4781 66.5195C21.5875 66.7044 21.7399 66.8464 21.9352 66.9453C22.1331 67.0417 22.3623 67.0898 22.6227 67.0898ZM26.4196 68V63.6953H27.8649V64.5234H27.9078C28.0537 64.2344 28.2763 64.0065 28.5758 63.8398C28.8753 63.6706 29.2386 63.5859 29.6656 63.5859C30.2802 63.5859 30.7555 63.7539 31.0914 64.0898C31.43 64.4232 31.5992 64.8958 31.5992 65.5078V68H30.15V65.8125C30.15 65.4323 30.0589 65.1445 29.8766 64.9492C29.6969 64.7539 29.43 64.6562 29.0758 64.6562C28.8258 64.6562 28.611 64.7057 28.4313 64.8047C28.2516 64.901 28.1123 65.0391 28.0133 65.2188C27.9143 65.3984 27.8649 65.612 27.8649 65.8594V68H26.4196ZM35.236 68.0391C34.5615 68.0391 34.0719 67.9245 33.7672 67.6953C33.4651 67.4661 33.3141 67.0951 33.3141 66.582V64.6758H32.4352V63.6953H33.3141V62.6562H34.7633V63.6953H36.1071V64.6758H34.7633V66.3477C34.7633 66.5951 34.8284 66.7734 34.9586 66.8828C35.0888 66.9922 35.3063 67.0469 35.611 67.0469C35.7073 67.0469 35.7959 67.043 35.8766 67.0352C35.9599 67.0273 36.0367 67.0182 36.1071 67.0078V67.9727C35.9873 67.9909 35.8518 68.0065 35.7008 68.0195C35.5498 68.0326 35.3948 68.0391 35.236 68.0391ZM38.7555 68.0703C38.3779 68.0703 38.0485 68.0195 37.7672 67.918C37.4886 67.8138 37.2711 67.6628 37.1149 67.4648C36.9612 67.2643 36.8844 67.0182 36.8844 66.7266V66.7227C36.8844 66.4701 36.9508 66.2513 37.0836 66.0664C37.2164 65.8789 37.4248 65.7318 37.7086 65.625C37.9951 65.5182 38.3662 65.4596 38.8219 65.4492L41.2477 65.4023V66.125L39.0602 66.1758C38.792 66.1836 38.5966 66.2279 38.4742 66.3086C38.3545 66.3867 38.2946 66.4961 38.2946 66.6367V66.6445C38.2946 66.8216 38.3779 66.9544 38.5446 67.043C38.7138 67.1289 38.9339 67.1719 39.2047 67.1719C39.4729 67.1719 39.706 67.1354 39.9039 67.0625C40.1045 66.9896 40.2581 66.8867 40.3649 66.7539C40.4742 66.6185 40.5289 66.4596 40.5289 66.2773V65.2656C40.5289 65.0365 40.4378 64.8594 40.2555 64.7344C40.0758 64.6094 39.818 64.5469 39.4821 64.5469C39.1904 64.5469 38.9586 64.5911 38.7867 64.6797C38.6175 64.7656 38.5068 64.8841 38.4547 65.0352L38.443 65.0625H37.0836L37.0914 65.0156C37.1435 64.7344 37.2698 64.487 37.4703 64.2734C37.6735 64.0573 37.9456 63.8893 38.2867 63.7695C38.6305 63.6497 39.0406 63.5898 39.5172 63.5898C40.0354 63.5898 40.4768 63.6562 40.8414 63.7891C41.2086 63.9193 41.4886 64.1107 41.6813 64.3633C41.874 64.6159 41.9703 64.9219 41.9703 65.2812V68H40.5289V67.3164H40.4899C40.3935 67.4727 40.2607 67.6081 40.0914 67.7227C39.9222 67.8346 39.7242 67.9206 39.4977 67.9805C39.2737 68.0404 39.0263 68.0703 38.7555 68.0703ZM45.7047 68.1055C45.1396 68.1055 44.6526 68.0156 44.2438 67.8359C43.8349 67.6536 43.5198 67.3945 43.2985 67.0586C43.0771 66.7201 42.9664 66.3164 42.9664 65.8477V65.8398C42.9664 65.3711 43.0771 64.9688 43.2985 64.6328C43.5198 64.2969 43.8349 64.0391 44.2438 63.8594C44.6526 63.6797 45.1396 63.5898 45.7047 63.5898C46.1943 63.5898 46.624 63.6602 46.9938 63.8008C47.3636 63.9414 47.6604 64.1419 47.8844 64.4023C48.111 64.6602 48.2516 64.9688 48.3063 65.3281L48.3102 65.3633H46.9274L46.9196 65.3398C46.8545 65.1055 46.719 64.9245 46.5133 64.7969C46.3076 64.6667 46.0498 64.6016 45.7399 64.6016C45.4664 64.6016 45.2321 64.651 45.0367 64.75C44.844 64.8464 44.6956 64.987 44.5914 65.1719C44.4899 65.3542 44.4391 65.5768 44.4391 65.8398V65.8477C44.4391 66.1107 44.4899 66.3346 44.5914 66.5195C44.6956 66.7044 44.844 66.8464 45.0367 66.9453C45.2321 67.0417 45.4664 67.0898 45.7399 67.0898C46.0472 67.0898 46.3024 67.0286 46.5055 66.9062C46.7112 66.7839 46.8492 66.6042 46.9196 66.3672L46.9274 66.3438L48.3063 66.3398L48.3024 66.3789C48.2477 66.7331 48.1071 67.0391 47.8805 67.2969C47.6565 67.5547 47.3597 67.7539 46.9899 67.8945C46.6201 68.0352 46.1917 68.1055 45.7047 68.1055ZM51.7281 68.0391C51.0537 68.0391 50.5641 67.9245 50.2594 67.6953C49.9573 67.4661 49.8063 67.0951 49.8063 66.582V64.6758H48.9274V63.6953H49.8063V62.6562H51.2555V63.6953H52.5992V64.6758H51.2555V66.3477C51.2555 66.5951 51.3206 66.7734 51.4508 66.8828C51.581 66.9922 51.7985 67.0469 52.1031 67.0469C52.1995 67.0469 52.288 67.043 52.3688 67.0352C52.4521 67.0273 52.5289 67.0182 52.5992 67.0078V67.9727C52.4795 67.9909 52.344 68.0065 52.193 68.0195C52.042 68.0326 51.887 68.0391 51.7281 68.0391Z" fill="#F9F9F3"/>
<defs>
<filter id="filter0_d_426_3514" x="5.90002" y="10" width="53" height="53" filterUnits="userSpaceOnUse" color-interpolation-filters="sRGB">
<feFlood flood-opacity="0" result="BackgroundImageFix"/>
<feColorMatrix in="SourceAlpha" type="matrix" values="0 0 0 0 0 0 0 0 0 0 0 0 0 0 0 0 0 0 127 0" result="hardAlpha"/>
<feOffset dy="4"/>
<feGaussianBlur stdDeviation="2"/>
<feComposite in2="hardAlpha" operator="out"/>
<feColorMatrix type="matrix" values="0 0 0 0 0 0 0 0 0 0 0 0 0 0 0 0 0 0 0.25 0"/>
<feBlend mode="normal" in2="BackgroundImageFix" result="effect1_dropShadow_426_3514"/>
<feBlend mode="normal" in="SourceGraphic" in2="effect1_dropShadow_426_3514" result="shape"/>
</filter>
</defs>
</svg>
