<svg width="65" height="82" viewBox="0 0 65 82" fill="none" xmlns="http://www.w3.org/2000/svg">
<g filter="url(#filter0_d_426_3516)">
<path d="M54.45 20.35C54.6986 20.35 54.9 20.5515 54.9 20.8V54.55C54.9 54.7985 54.6986 55 54.45 55H10.35C10.1015 55 9.90002 54.7985 9.90002 54.55V20.8C9.90002 20.5515 10.1015 20.35 10.35 20.35H54.45ZM19.98 22.15C19.7315 22.15 19.53 22.3515 19.53 22.6V27.55H13.05C12.8015 27.55 12.6 27.7515 12.6 28V28.9C12.6 29.1485 12.8015 29.35 13.05 29.35H19.53V36.82H13.05C12.8015 36.82 12.6 37.0215 12.6 37.27V38.17C12.6 38.4185 12.8015 38.62 13.05 38.62H19.53V46.09H13.05C12.8015 46.09 12.6 46.2915 12.6 46.54V47.44C12.6 47.6885 12.8015 47.89 13.05 47.89H19.53V52.84C19.53 53.0885 19.7315 53.29 19.98 53.29H20.88C21.1286 53.29 21.33 53.0885 21.33 52.84V47.89H31.5V52.84C31.5 53.0885 31.7015 53.29 31.95 53.29H32.85C33.0986 53.29 33.3 53.0885 33.3 52.84V47.89H43.47V52.84C43.47 53.0885 43.6715 53.29 43.92 53.29H44.82C45.0686 53.29 45.27 53.0885 45.27 52.84V47.89H51.75C51.9986 47.89 52.2 47.6885 52.2 47.44V46.54C52.2 46.2915 51.9986 46.09 51.75 46.09H45.27V38.62H51.75C51.9986 38.62 52.2 38.4185 52.2 38.17V37.27C52.2 37.0215 51.9986 36.82 51.75 36.82H45.27V29.35H51.75C51.9986 29.35 52.2 29.1485 52.2 28.9V28C52.2 27.7515 51.9986 27.55 51.75 27.55H45.27V22.6C45.27 22.3515 45.0686 22.15 44.82 22.15H43.92C43.6715 22.15 43.47 22.3515 43.47 22.6V27.55H33.3V22.6C33.3 22.3515 33.0986 22.15 32.85 22.15H31.95C31.7015 22.15 31.5 22.3515 31.5 22.6V27.55H21.33V22.6C21.33 22.3515 21.1286 22.15 20.88 22.15H19.98ZM31.5 46.09H21.33V38.62H31.5V46.09ZM43.47 46.09H33.3V38.62H43.47V46.09ZM31.5 36.82H21.33V29.35H31.5V36.82ZM43.47 36.82H33.3V29.35H43.47V36.82ZM16.2 10C16.6971 10 17.1 10.4029 17.1 10.9V14.95H47.7V10.9C47.7 10.4029 48.103 10 48.6 10H51.3C51.7971 10 52.2 10.4029 52.2 10.9V14.95H54.45C54.6986 14.95 54.9 15.1515 54.9 15.4V19C54.9 19.2485 54.6986 19.45 54.45 19.45H10.35C10.1015 19.45 9.90002 19.2485 9.90002 19V15.4C9.90002 15.1515 10.1015 14.95 10.35 14.95H12.6V10.9C12.6 10.4029 13.003 10 13.5 10H16.2Z" fill="#3D5A47"/>
</g>
<path d="M20.8571 68V62.3633H24.0094C24.7047 62.3633 25.292 62.4714 25.7711 62.6875C26.2529 62.9036 26.6188 63.2201 26.8688 63.6367C27.1188 64.0508 27.2438 64.5534 27.2438 65.1445V65.1523C27.2438 65.7643 27.1188 66.2826 26.8688 66.707C26.6188 67.1315 26.2529 67.4531 25.7711 67.6719C25.292 67.8906 24.7047 68 24.0094 68H20.8571ZM22.3531 66.8633H23.8922C24.2802 66.8633 24.6097 66.8008 24.8805 66.6758C25.1539 66.5508 25.361 66.3633 25.5016 66.1133C25.6448 65.8633 25.7164 65.5534 25.7164 65.1836V65.1758C25.7164 64.8138 25.6474 64.5091 25.5094 64.2617C25.374 64.0117 25.1696 63.8229 24.8961 63.6953C24.6253 63.5651 24.2906 63.5 23.8922 63.5H22.3531V66.8633ZM30.2086 68.1055C29.805 68.1055 29.4599 68.0312 29.1735 67.8828C28.8896 67.7344 28.6709 67.5182 28.5172 67.2344C28.3662 66.9505 28.2906 66.6042 28.2906 66.1953V63.6914H29.7399V65.8906C29.7399 66.2604 29.8284 66.5443 30.0055 66.7422C30.1826 66.9401 30.4456 67.0391 30.7946 67.0391C30.9768 67.0391 31.1409 67.0117 31.2867 66.957C31.4352 66.8997 31.5628 66.8203 31.6696 66.7188C31.7763 66.6146 31.8584 66.4883 31.9156 66.3398C31.9729 66.1914 32.0016 66.0221 32.0016 65.832V63.6914H33.4469V68H32.0016V67.1719H31.9586C31.8623 67.362 31.7308 67.5273 31.5641 67.668C31.3974 67.806 31.1995 67.9141 30.9703 67.9922C30.7412 68.0677 30.4873 68.1055 30.2086 68.1055ZM37.1305 68.0391C36.456 68.0391 35.9664 67.9245 35.6617 67.6953C35.3597 67.4661 35.2086 67.0951 35.2086 66.582V64.6758H34.3297V63.6953H35.2086V62.6562H36.6578V63.6953H38.0016V64.6758H36.6578V66.3477C36.6578 66.5951 36.7229 66.7734 36.8531 66.8828C36.9834 66.9922 37.2008 67.0469 37.5055 67.0469C37.6018 67.0469 37.6904 67.043 37.7711 67.0352C37.8545 67.0273 37.9313 67.0182 38.0016 67.0078V67.9727C37.8818 67.9909 37.7464 68.0065 37.5953 68.0195C37.4443 68.0326 37.2893 68.0391 37.1305 68.0391ZM39.9781 69.4805C39.8401 69.4805 39.7073 69.4727 39.5797 69.457C39.4547 69.444 39.3427 69.4258 39.2438 69.4023V68.4141C39.3271 68.4323 39.417 68.4453 39.5133 68.4531C39.6097 68.4635 39.7047 68.4688 39.7985 68.4688C40.0042 68.4688 40.1813 68.4375 40.3297 68.375C40.4781 68.3125 40.5953 68.2122 40.6813 68.0742L40.7477 67.9453L38.6813 63.6953H40.2125L41.6852 67.0664L41.4352 66.7812H41.7672L41.5211 67.0664L42.9156 63.6953H44.4156L42.5133 67.7422C42.3128 68.1641 42.0966 68.5013 41.8649 68.7539C41.6357 69.0091 41.3688 69.194 41.0641 69.3086C40.762 69.4232 40.4 69.4805 39.9781 69.4805Z" fill="#F9F9F3"/>
<defs>
<filter id="filter0_d_426_3516" x="5.90002" y="10" width="53" height="53" filterUnits="userSpaceOnUse" color-interpolation-filters="sRGB">
<feFlood flood-opacity="0" result="BackgroundImageFix"/>
<feColorMatrix in="SourceAlpha" type="matrix" values="0 0 0 0 0 0 0 0 0 0 0 0 0 0 0 0 0 0 127 0" result="hardAlpha"/>
<feOffset dy="4"/>
<feGaussianBlur stdDeviation="2"/>
<feComposite in2="hardAlpha" operator="out"/>
<feColorMatrix type="matrix" values="0 0 0 0 0 0 0 0 0 0 0 0 0 0 0 0 0 0 0.25 0"/>
<feBlend mode="normal" in2="BackgroundImageFix" result="effect1_dropShadow_426_3516"/>
<feBlend mode="normal" in="SourceGraphic" in2="effect1_dropShadow_426_3516" result="shape"/>
</filter>
</defs>
</svg>
