<svg width="65" height="82" viewBox="0 0 65 82" fill="none" xmlns="http://www.w3.org/2000/svg">
<g filter="url(#filter0_d_home_bottom)">
<path d="M13 33.5L32.5 16L52 33.5V54C52 55.1046 51.1046 56 50 56H39V42H26V56H15C13.8954 56 13 55.1046 13 54V33.5Z" fill="#3D5A47"/>
<path d="M9.5 34.5L32.5 13.5L55.5 34.5" stroke="#3D5A47" stroke-width="6" stroke-linecap="round" stroke-linejoin="round"/>
</g>
<path d="M18.8961 69V63.3438H20.3727V65.6289H24.0367V63.3438H25.5133V69H24.0367V66.8125H20.3727V69H18.8961ZM29.0719 69.1055C28.5068 69.1055 28.0159 69.0143 27.5992 68.832C27.1826 68.6471 26.8597 68.3867 26.6305 68.0508C26.4039 67.7122 26.2906 67.3125 26.2906 66.8516V66.8398C26.2906 66.3789 26.4052 65.9805 26.6344 65.6445C26.8636 65.3086 27.1865 65.0495 27.6031 64.8672C28.0198 64.6823 28.5094 64.5898 29.0719 64.5898C29.637 64.5898 30.1279 64.681 30.5446 64.8633C30.9612 65.0456 31.2828 65.306 31.5094 65.6445C31.7386 65.9805 31.8531 66.3789 31.8531 66.8398V66.8516C31.8531 67.3125 31.7386 67.7122 31.5094 68.0508C31.2828 68.3867 30.9612 68.6471 30.5446 68.832C30.1279 69.0143 29.637 69.1055 29.0719 69.1055ZM29.0719 68.0898C29.3349 68.0898 29.5641 68.0417 29.7594 67.9453C29.9547 67.8464 30.1058 67.7044 30.2125 67.5195C30.3219 67.3346 30.3766 67.112 30.3766 66.8516V66.8438C30.3766 66.5807 30.3219 66.3581 30.2125 66.1758C30.1058 65.9909 29.9547 65.849 29.7594 65.75C29.5641 65.651 29.3349 65.6016 29.0719 65.6016C28.8115 65.6016 28.5823 65.651 28.3844 65.75C28.1891 65.849 28.0367 65.9909 27.9274 66.1758C27.8206 66.3581 27.7672 66.5807 27.7672 66.8438V66.8516C27.7672 67.112 27.8206 67.3346 27.9274 67.5195C28.0367 67.7044 28.1891 67.8464 28.3844 67.9453C28.5823 68.0417 28.8115 68.0898 29.0719 68.0898ZM32.8688 69V64.6953H34.3141V65.5234H34.3571C34.4951 65.237 34.7047 65.0104 34.986 64.8438C35.2698 64.6745 35.6068 64.5898 35.9967 64.5898C36.4075 64.5898 36.7594 64.6849 37.0524 64.875C37.3479 65.0651 37.5667 65.3385 37.7086 65.6953H37.7516C37.9128 65.3464 38.1589 65.0742 38.4899 64.8789C38.8232 64.6862 39.2073 64.5898 39.6422 64.5898C40.2672 64.5898 40.7477 64.7578 41.0836 65.0938C41.4222 65.4271 41.5914 65.8997 41.5914 66.5117V69H40.1422V66.8125C40.1422 66.4323 40.0563 66.1445 39.8844 65.9492C39.7125 65.7539 39.4625 65.6562 39.1344 65.6562C38.8997 65.6562 38.6982 65.7057 38.5299 65.8047C38.361 65.901 38.2308 66.0391 38.1393 66.2188C38.0485 66.3984 38.0031 66.612 38.0031 66.8594V69H36.5539V66.8125C36.5539 66.4323 36.468 66.1445 36.2961 65.9492C36.1242 65.7539 35.8753 65.6562 35.5495 65.6562C35.3151 65.6562 35.1123 65.7057 34.941 65.8047C34.7711 65.901 34.6396 66.0391 34.5466 66.2188C34.4534 66.3984 34.4068 66.612 34.4068 66.8594V69H32.8688ZM45.3219 69.1055C44.749 69.1055 44.2555 69.0169 43.8414 68.8398C43.43 68.6628 43.1123 68.4076 42.8883 68.0742C42.6643 67.7383 42.5524 67.3346 42.5524 66.8633V66.8594C42.5524 66.3906 42.6656 65.987 42.8922 65.6484C43.1188 65.3073 43.4352 65.0456 43.8414 64.8633C44.2503 64.6784 44.7242 64.5872 45.2633 64.5898C45.8154 64.5898 46.2919 64.6849 46.693 64.875C47.094 65.0651 47.4026 65.332 47.6188 65.6758C47.8349 66.0169 47.943 66.4193 47.943 66.8828V67.1523H43.3024V66.4062H47.0094L46.5875 66.957V66.6875C46.5875 66.4479 46.5354 66.2422 46.4313 66.0703C46.3297 65.8958 46.1826 65.7617 45.9899 65.668C45.7972 65.5742 45.5654 65.5273 45.2946 65.5273C45.0133 65.5273 44.7724 65.5729 44.5719 65.6641C44.3714 65.7552 44.2177 65.8906 44.111 66.0703C44.0042 66.2474 43.9508 66.4674 43.9508 66.7305V66.9492C43.9508 67.2409 44.0107 67.4779 44.1305 67.6602C44.2529 67.8398 44.4196 67.9714 44.6305 68.0547C44.844 68.1354 45.0901 68.1758 45.3688 68.1758C45.5511 68.1758 45.7177 68.1562 45.8688 68.1172C46.0224 68.0755 46.1552 68.0195 46.2672 67.9492C46.3818 67.8789 46.4664 67.7982 46.5211 67.707L46.5328 67.6836L47.8844 67.6797L47.8727 67.7227C47.8128 67.931 47.7086 68.1211 47.5602 68.293C47.4143 68.4622 47.2308 68.6081 47.0094 68.7305C46.7906 68.8503 46.538 68.9427 46.2516 69.0078C45.9677 69.0729 45.6578 69.1055 45.3219 69.1055Z" fill="#F9F9F3"/>
<defs>
<filter id="filter0_d_home_bottom" x="5" y="10" width="55" height="54" filterUnits="userSpaceOnUse" color-interpolation-filters="sRGB">
<feFlood flood-opacity="0" result="BackgroundImageFix"/>
<feColorMatrix in="SourceAlpha" type="matrix" values="0 0 0 0 0 0 0 0 0 0 0 0 0 0 0 0 0 0 127 0" result="hardAlpha"/>
<feOffset dy="4"/>
<feGaussianBlur stdDeviation="2"/>
<feComposite in2="hardAlpha" operator="out"/>
<feColorMatrix type="matrix" values="0 0 0 0 0 0 0 0 0 0 0 0 0 0 0 0 0 0 0.25 0"/>
<feBlend mode="normal" in2="BackgroundImageFix" result="effect1_dropShadow_home_bottom"/>
<feBlend mode="normal" in="SourceGraphic" in2="effect1_dropShadow_home_bottom" result="shape"/>
</filter>
</defs>
</svg>
