<svg width="83" height="83" viewBox="0 0 83 83" fill="none" xmlns="http://www.w3.org/2000/svg">
<g filter="url(#filter0_d_363_3302)">
<path d="M78.9933 24.0525H79V75H4.00396V24.0543H4L41.4981 0L78.9933 24.0525ZM9.25 68.2499C8.42157 68.2499 7.75 68.9214 7.75 69.7499C7.75 70.5783 8.42157 71.2499 9.25 71.2499H73.75C74.5784 71.2499 75.25 70.5783 75.25 69.7499C75.25 68.9214 74.5784 68.2499 73.75 68.2499H9.25ZM9.25 25.65C8.42157 25.65 7.75 26.3215 7.75 27.1499C7.75 27.9784 8.42157 28.6499 9.25 28.6499H73.75C74.5784 28.6499 75.25 27.9784 75.25 27.1499C75.25 26.3215 74.5784 25.65 73.75 25.65H9.25Z" fill="#F9F9F3"/>
</g>
<defs>
<filter id="filter0_d_363_3302" x="0" y="0" width="83" height="83" filterUnits="userSpaceOnUse" color-interpolation-filters="sRGB">
<feFlood flood-opacity="0" result="BackgroundImageFix"/>
<feColorMatrix in="SourceAlpha" type="matrix" values="0 0 0 0 0 0 0 0 0 0 0 0 0 0 0 0 0 0 127 0" result="hardAlpha"/>
<feOffset dy="4"/>
<feGaussianBlur stdDeviation="2"/>
<feComposite in2="hardAlpha" operator="out"/>
<feColorMatrix type="matrix" values="0 0 0 0 0 0 0 0 0 0 0 0 0 0 0 0 0 0 0.25 0"/>
<feBlend mode="normal" in2="BackgroundImageFix" result="effect1_dropShadow_363_3302"/>
<feBlend mode="normal" in="SourceGraphic" in2="effect1_dropShadow_363_3302" result="shape"/>
</filter>
</defs>
</svg>
