<svg width="74" height="124" viewBox="0 0 74 124" fill="none" xmlns="http://www.w3.org/2000/svg">
<g filter="url(#filter0_d_203_2566)">
<path d="M69.34 44.18C69.7045 44.18 70 44.4755 70 44.84V94.34C70 94.7045 69.7045 95 69.34 95H4.66C4.29549 95 4 94.7045 4 94.34V44.84C4 44.4755 4.29549 44.18 4.66 44.18H69.34ZM18.784 46.82C18.4195 46.82 18.124 47.1155 18.124 47.48V54.74H8.62C8.25549 54.74 7.96 55.0355 7.96 55.4V56.72C7.96 57.0845 8.25549 57.38 8.62 57.38H18.124V68.336H8.62C8.25549 68.336 7.96 68.6315 7.96 68.996V70.316C7.96 70.6805 8.25549 70.976 8.62 70.976H18.124V81.932H8.62C8.25549 81.932 7.96 82.2275 7.96 82.592V83.912C7.96 84.2765 8.25549 84.572 8.62 84.572H18.124V91.832C18.124 92.1965 18.4195 92.492 18.784 92.492H20.104C20.4685 92.492 20.764 92.1965 20.764 91.832V84.572H35.68V91.832C35.68 92.1965 35.9755 92.492 36.34 92.492H37.66C38.0245 92.492 38.32 92.1965 38.32 91.832V84.572H53.236V91.832C53.236 92.1965 53.5315 92.492 53.896 92.492H55.216C55.5805 92.492 55.876 92.1965 55.876 91.832V84.572H65.38C65.7445 84.572 66.04 84.2765 66.04 83.912V82.592C66.04 82.2275 65.7445 81.932 65.38 81.932H55.876V70.976H65.38C65.7445 70.976 66.04 70.6805 66.04 70.316V68.996C66.04 68.6315 65.7445 68.336 65.38 68.336H55.876V57.38H65.38C65.7445 57.38 66.04 57.0845 66.04 56.72V55.4C66.04 55.0355 65.7445 54.74 65.38 54.74H55.876V47.48C55.876 47.1155 55.5805 46.82 55.216 46.82H53.896C53.5315 46.82 53.236 47.1155 53.236 47.48V54.74H38.32V47.48C38.32 47.1155 38.0245 46.82 37.66 46.82H36.34C35.9755 46.82 35.68 47.1155 35.68 47.48V54.74H20.764V47.48C20.764 47.1155 20.4685 46.82 20.104 46.82H18.784ZM35.68 81.932H20.764V70.976H35.68V81.932ZM53.236 81.932H38.32V70.976H53.236V81.932ZM35.68 68.336H20.764V57.38H35.68V68.336ZM53.236 68.336H38.32V57.38H53.236V68.336ZM13.24 29C13.969 29 14.56 29.591 14.56 30.32V36.26H59.44V30.32C59.44 29.591 60.031 29 60.76 29H64.72C65.449 29 66.04 29.591 66.04 30.32V36.26H69.34C69.7045 36.26 70 36.5555 70 36.92V42.2C70 42.5645 69.7045 42.86 69.34 42.86H4.66C4.29549 42.86 4 42.5645 4 42.2V36.92C4 36.5555 4.29549 36.26 4.66 36.26H7.96V30.32C7.96 29.591 8.55098 29 9.28 29H13.24Z" fill="#F7F7ED"/>
</g>
<defs>
<filter id="filter0_d_203_2566" x="0" y="29" width="74" height="74" filterUnits="userSpaceOnUse" color-interpolation-filters="sRGB">
<feFlood flood-opacity="0" result="BackgroundImageFix"/>
<feColorMatrix in="SourceAlpha" type="matrix" values="0 0 0 0 0 0 0 0 0 0 0 0 0 0 0 0 0 0 127 0" result="hardAlpha"/>
<feOffset dy="4"/>
<feGaussianBlur stdDeviation="2"/>
<feComposite in2="hardAlpha" operator="out"/>
<feColorMatrix type="matrix" values="0 0 0 0 0 0 0 0 0 0 0 0 0 0 0 0 0 0 0.25 0"/>
<feBlend mode="normal" in2="BackgroundImageFix" result="effect1_dropShadow_203_2566"/>
<feBlend mode="normal" in="SourceGraphic" in2="effect1_dropShadow_203_2566" result="shape"/>
</filter>
</defs>
</svg>
