<svg width="83" height="83" viewBox="0 0 83 83" fill="none" xmlns="http://www.w3.org/2000/svg">
<path d="M41.0616 0C56.5732 6.78032e-07 69.1478 12.5746 69.1478 28.0862V58.9645H73.911C78.4465 58.9645 82.1233 62.6413 82.1233 67.1768C82.1233 71.7124 78.4465 75.3892 73.911 75.3892H53.2831C50.7215 79.4361 46.2055 82.1233 41.0616 82.1233C35.9178 82.1233 31.4018 79.4361 28.8402 75.3892H8.21233C3.67679 75.3892 0 71.7124 0 67.1768C0 62.6413 3.67678 58.9645 8.21233 58.9645H12.9755V28.0862C12.9755 12.5746 25.5501 6.76797e-07 41.0616 0Z" fill="#3D5A47"/>
</svg>
