<svg width="82" height="82" viewBox="0 0 82 82" fill="none" xmlns="http://www.w3.org/2000/svg">
<path d="M80.2554 74.4911C81.0732 76.6733 81.5217 79.0437 81.5217 81.5217H0C0 79.0437 0.448525 76.6733 1.26629 74.4911H80.2554ZM18.913 68.7997H4.57254C8.03853 64.6385 13.1734 61.9867 18.913 61.9374V68.7997ZM57.0652 68.7997H24.4565V61.9364H57.0652V68.7997ZM62.6087 61.9374C68.3483 61.9867 73.4832 64.6385 76.9492 68.7997H62.6087V61.9374ZM49.4837 10.0437C50.3391 10.0437 51.0326 10.7557 51.0326 11.634C51.0326 12.0497 50.877 12.428 50.6226 12.7113C56.8034 16.2837 60.9783 23.0835 60.9783 30.8845V32.14H66.5217C68.5928 32.14 70.2717 33.8637 70.2717 35.9901C70.2717 38.1164 68.5928 39.8402 66.5217 39.8402H62.1196V49.7165C62.1196 50.5486 61.4626 51.2231 60.6522 51.2231C59.8418 51.2231 59.1848 50.5486 59.1848 49.7165V39.8402H59.1843C59.1406 50.2948 50.909 58.7559 40.7609 58.7559C30.6127 58.7559 22.3812 50.2948 22.3374 39.8402H22.337V49.7165C22.337 50.5486 21.68 51.2231 20.8696 51.2231C20.0591 51.2231 19.4022 50.5486 19.4022 49.7165V39.8402H15C12.9289 39.8402 11.25 38.1164 11.25 35.9901C11.25 33.8637 12.9289 32.14 15 32.14H20.3804V30.8845C20.3804 23.0376 24.6045 16.2038 30.8453 12.6487C30.6228 12.3733 30.4891 12.0197 30.4891 11.634C30.4891 10.7557 31.1826 10.0437 32.038 10.0437H49.4837ZM62.987 4.68708L58.0957 13.3853L55.2717 11.7113L60.163 3.01312L62.987 4.68708ZM25.8131 11.5439L22.9891 13.2179L18.0978 4.51969L20.9218 2.84573L25.8131 11.5439ZM40.7609 0C43.8224 1.03376e-07 46.3043 2.54815 46.3043 5.69146V9.03937H35.2174V5.69146C35.2174 2.54815 37.6993 -1.03376e-07 40.7609 0Z" fill="#F7F7ED"/>
</svg>
