<svg width="125" height="83" viewBox="0 0 125 83" fill="none" xmlns="http://www.w3.org/2000/svg">
<g filter="url(#filter0_d_131_262)">
<path d="M118.302 65.6625C120.034 68.5068 121 71.6688 121 75H46C46 71.6688 46.9656 68.5068 48.6978 65.6625H118.302ZM63.4 61.8375H51.6669C54.6675 58.7227 58.7049 56.2069 63.4 54.575V61.8375ZM91 52.5C93.5897 52.5 96.1029 52.7461 98.5 53.2088V61.8375H68.5V53.2088C70.8972 52.7461 73.4103 52.5 76 52.5H91ZM103.6 54.575C108.295 56.2069 112.333 58.7227 115.333 61.8375H103.6V54.575ZM83.425 0C94.8159 0 104.05 9.23413 104.05 20.625V21.9H109.75C111.821 21.9 113.5 23.5789 113.5 25.65C113.5 27.7211 111.821 29.4 109.75 29.4H105.25V39.15C105.25 39.9784 104.578 40.65 103.75 40.65C102.922 40.65 102.25 39.9784 102.25 39.15V29.4C102.25 39.7553 93.8553 48.15 83.5 48.15C73.1447 48.15 64.75 39.7553 64.75 29.4V39.15C64.75 39.9784 64.0784 40.65 63.25 40.65C62.4216 40.65 61.75 39.9784 61.75 39.15V29.4H57.25C55.1789 29.4 53.5 27.7211 53.5 25.65C53.5 23.5789 55.1789 21.9 57.25 21.9H62.8V20.625C62.8 9.23413 72.0341 0 83.425 0Z" fill="#F7F7ED"/>
</g>
<g filter="url(#filter1_d_131_262)">
<path d="M18.851 50V13.4096H18.508L4 21.9335V8.62786L18.8167 0H36V50H18.851Z" fill="#F7F7ED"/>
</g>
<defs>
<filter id="filter0_d_131_262" x="42" y="0" width="83" height="83" filterUnits="userSpaceOnUse" color-interpolation-filters="sRGB">
<feFlood flood-opacity="0" result="BackgroundImageFix"/>
<feColorMatrix in="SourceAlpha" type="matrix" values="0 0 0 0 0 0 0 0 0 0 0 0 0 0 0 0 0 0 127 0" result="hardAlpha"/>
<feOffset dy="4"/>
<feGaussianBlur stdDeviation="2"/>
<feComposite in2="hardAlpha" operator="out"/>
<feColorMatrix type="matrix" values="0 0 0 0 0 0 0 0 0 0 0 0 0 0 0 0 0 0 0.25 0"/>
<feBlend mode="normal" in2="BackgroundImageFix" result="effect1_dropShadow_131_262"/>
<feBlend mode="normal" in="SourceGraphic" in2="effect1_dropShadow_131_262" result="shape"/>
</filter>
<filter id="filter1_d_131_262" x="0" y="0" width="40" height="58" filterUnits="userSpaceOnUse" color-interpolation-filters="sRGB">
<feFlood flood-opacity="0" result="BackgroundImageFix"/>
<feColorMatrix in="SourceAlpha" type="matrix" values="0 0 0 0 0 0 0 0 0 0 0 0 0 0 0 0 0 0 127 0" result="hardAlpha"/>
<feOffset dy="4"/>
<feGaussianBlur stdDeviation="2"/>
<feComposite in2="hardAlpha" operator="out"/>
<feColorMatrix type="matrix" values="0 0 0 0 0 0 0 0 0 0 0 0 0 0 0 0 0 0 0.25 0"/>
<feBlend mode="normal" in2="BackgroundImageFix" result="effect1_dropShadow_131_262"/>
<feBlend mode="normal" in="SourceGraphic" in2="effect1_dropShadow_131_262" result="shape"/>
</filter>
</defs>
</svg>
