<svg width="50" height="50" viewBox="0 0 50 50" fill="none" xmlns="http://www.w3.org/2000/svg">
<path d="M48.9375 44.5996C49.6225 46.2643 50 48.0882 50 50H0C0 48.0882 0.378453 46.2643 1.06348 44.5996H48.9375ZM11.5996 41.2002H3.05469C5.14416 38.5575 8.15379 36.6758 11.5996 36.0381V41.2002ZM35 41.2002H15V35.7998H35V41.2002ZM38.4004 36.0381C41.8462 36.6758 44.8558 38.5575 46.9453 41.2002H38.4004V36.0381ZM20.5996 0C24.0645 0 27.1344 1.69434 29.0244 4.2998H35.0996C37.861 4.2998 40.0995 6.53847 40.0996 9.2998V14.0752C40.4736 14.5122 40.7002 15.0799 40.7002 15.7002C40.7001 17.0808 39.5808 18.2001 38.2002 18.2002H37.5C37.4999 25.1037 31.9035 30.7002 25 30.7002C18.0965 30.7002 12.5001 25.1037 12.5 18.2002H11.7998C10.4192 18.2001 9.29991 17.0808 9.2998 15.7002C9.2998 14.9281 9.65023 14.2379 10.2002 13.7793V10.4004C10.2002 4.65676 14.856 0.000211302 20.5996 0ZM18.0898 4.88574C18.03 4.70148 17.7698 4.70148 17.71 4.88574L17.0918 6.78711C17.065 6.86951 16.988 6.92577 16.9014 6.92578H14.9014C14.7078 6.92595 14.6276 7.17325 14.7842 7.28711L16.4023 8.46289C16.4723 8.5138 16.5013 8.60421 16.4746 8.68652L15.8564 10.5889C15.7967 10.773 16.0074 10.926 16.1641 10.8125L17.7822 9.63672C17.8523 9.58581 17.9475 9.58586 18.0176 9.63672L19.6357 10.8125C19.7925 10.9262 20.0032 10.7731 19.9434 10.5889L19.3252 8.68652C19.2985 8.60418 19.3284 8.51377 19.3984 8.46289L21.0156 7.28711C21.1724 7.17323 21.0922 6.92578 20.8984 6.92578H18.8984C18.8118 6.92577 18.7348 6.86951 18.708 6.78711L18.0898 4.88574Z" fill="#3D5A47"/>
</svg>
