<svg width="108" height="108" viewBox="0 0 108 108" fill="none" xmlns="http://www.w3.org/2000/svg">
<g filter="url(#filter0_d_126_313)">
<path d="M64.2217 2.09655C65.4063 -0.698851 69.3805 -0.698851 70.5651 2.09655L75.8718 14.6186C76.2206 15.4418 76.8779 16.0969 77.7037 16.4447L90.2656 21.7345C93.0699 22.9154 93.0699 26.8769 90.2656 28.0578L77.7037 33.3476C76.8779 33.6954 76.2206 34.3505 75.8718 35.1737L71.6466 45.1437V56.8268C71.9382 56.2994 72.4105 55.8531 73.0638 55.5891L80.4585 52.6001C81.169 52.3129 81.7327 51.751 82.0208 51.0428L85.0193 43.6715C85.9762 41.319 89.3176 41.319 90.2745 43.6715L93.273 51.0428C93.5611 51.751 94.1248 52.3129 94.8353 52.6001L102.23 55.5891C104.59 56.543 104.59 59.8739 102.23 60.8278L94.8353 63.8166C94.1248 64.1038 93.5611 64.6657 93.273 65.3739L90.2745 72.7454C89.3175 75.0977 85.9763 75.0978 85.0193 72.7454L82.0208 65.3739C81.7327 64.6657 81.169 64.1038 80.4585 63.8166L73.0638 60.8278C72.4104 60.5637 71.9382 60.1172 71.6466 59.5897V98.9905C71.6466 99.548 71.1932 100 70.634 100H18.9876C18.4283 100 17.9749 99.548 17.9749 98.9905V90.713C17.9749 91.2705 18.4283 91.7224 18.9876 91.7224H63.5452C64.1045 91.7224 64.5579 91.2705 64.5579 90.713V48.3143C64.4299 48.126 64.3167 47.9199 64.2217 47.6958L58.915 35.1737C58.6539 34.5575 58.2199 34.0355 57.6717 33.666V82.4354C57.6717 82.9929 57.2183 83.4449 56.6591 83.4449H5.01267C4.45339 83.4449 4 82.9929 4 82.4354V17.628C4.00001 17.0705 4.4534 16.6186 5.01267 16.6186H56.6591C56.6625 16.6186 56.6659 16.6187 56.6693 16.6188L57.0831 16.4447C57.9089 16.0969 58.5662 15.4418 58.915 14.6186L64.2217 2.09655Z" fill="#F7F7ED"/>
</g>
<defs>
<filter id="filter0_d_126_313" x="0" y="0" width="108" height="108" filterUnits="userSpaceOnUse" color-interpolation-filters="sRGB">
<feFlood flood-opacity="0" result="BackgroundImageFix"/>
<feColorMatrix in="SourceAlpha" type="matrix" values="0 0 0 0 0 0 0 0 0 0 0 0 0 0 0 0 0 0 127 0" result="hardAlpha"/>
<feOffset dy="4"/>
<feGaussianBlur stdDeviation="2"/>
<feComposite in2="hardAlpha" operator="out"/>
<feColorMatrix type="matrix" values="0 0 0 0 0 0 0 0 0 0 0 0 0 0 0 0 0 0 0.25 0"/>
<feBlend mode="normal" in2="BackgroundImageFix" result="effect1_dropShadow_126_313"/>
<feBlend mode="normal" in="SourceGraphic" in2="effect1_dropShadow_126_313" result="shape"/>
</filter>
</defs>
</svg>
