<svg width="93" height="93" viewBox="0 0 93 93" fill="none" xmlns="http://www.w3.org/2000/svg">
<g filter="url(#filter0_d_126_393)">
<path d="M88.15 19.55C88.6194 19.55 89 19.9306 89 20.4V84.15C89 84.6194 88.6194 85 88.15 85H4.85C4.38056 85 4 84.6194 4 84.15V20.4C4 19.9306 4.38056 19.55 4.85 19.55H88.15ZM23.04 22.95C22.5706 22.95 22.19 23.3306 22.19 23.8V33.15H9.95C9.48056 33.15 9.1 33.5306 9.1 34V35.7C9.1 36.1694 9.48056 36.55 9.95 36.55H22.19V50.66H9.95C9.48056 50.66 9.1 51.0406 9.1 51.51V53.21C9.1 53.6794 9.48056 54.06 9.95 54.06H22.19V68.17H9.95C9.48056 68.17 9.1 68.5506 9.1 69.02V70.72C9.1 71.1894 9.48056 71.57 9.95 71.57H22.19V80.92C22.19 81.3894 22.5706 81.77 23.04 81.77H24.74C25.2094 81.77 25.59 81.3894 25.59 80.92V71.57H44.8V80.92C44.8 81.3894 45.1806 81.77 45.65 81.77H47.35C47.8194 81.77 48.2 81.3894 48.2 80.92V71.57H67.41V80.92C67.41 81.3894 67.7906 81.77 68.26 81.77H69.96C70.4294 81.77 70.81 81.3894 70.81 80.92V71.57H83.05C83.5194 71.57 83.9 71.1894 83.9 70.72V69.02C83.9 68.5506 83.5194 68.17 83.05 68.17H70.81V54.06H83.05C83.5194 54.06 83.9 53.6794 83.9 53.21V51.51C83.9 51.0406 83.5194 50.66 83.05 50.66H70.81V36.55H83.05C83.5194 36.55 83.9 36.1694 83.9 35.7V34C83.9 33.5306 83.5194 33.15 83.05 33.15H70.81V23.8C70.81 23.3306 70.4294 22.95 69.96 22.95H68.26C67.7906 22.95 67.41 23.3306 67.41 23.8V33.15H48.2V23.8C48.2 23.3306 47.8194 22.95 47.35 22.95H45.65C45.1806 22.95 44.8 23.3306 44.8 23.8V33.15H25.59V23.8C25.59 23.3306 25.2094 22.95 24.74 22.95H23.04ZM44.8 68.17H25.59V54.06H44.8V68.17ZM67.41 68.17H48.2V54.06H67.41V68.17ZM44.8 50.66H25.59V36.55H44.8V50.66ZM67.41 50.66H48.2V36.55H67.41V50.66ZM15.9 0C16.8389 0 17.6 0.761116 17.6 1.7V9.35H75.4V1.7C75.4 0.761116 76.1611 1.36905e-08 77.1 0H82.2C83.1389 0 83.9 0.761116 83.9 1.7V9.35H88.15C88.6194 9.35 89 9.73056 89 10.2V17C89 17.4694 88.6194 17.85 88.15 17.85H4.85C4.38056 17.85 4 17.4694 4 17V10.2C4 9.73056 4.38056 9.35 4.85 9.35H9.1V1.7C9.1 0.761116 9.86112 1.36905e-08 10.8 0H15.9Z" fill="#F7F7ED"/>
</g>
<defs>
<filter id="filter0_d_126_393" x="0" y="0" width="93" height="93" filterUnits="userSpaceOnUse" color-interpolation-filters="sRGB">
<feFlood flood-opacity="0" result="BackgroundImageFix"/>
<feColorMatrix in="SourceAlpha" type="matrix" values="0 0 0 0 0 0 0 0 0 0 0 0 0 0 0 0 0 0 127 0" result="hardAlpha"/>
<feOffset dy="4"/>
<feGaussianBlur stdDeviation="2"/>
<feComposite in2="hardAlpha" operator="out"/>
<feColorMatrix type="matrix" values="0 0 0 0 0 0 0 0 0 0 0 0 0 0 0 0 0 0 0.25 0"/>
<feBlend mode="normal" in2="BackgroundImageFix" result="effect1_dropShadow_126_393"/>
<feBlend mode="normal" in="SourceGraphic" in2="effect1_dropShadow_126_393" result="shape"/>
</filter>
</defs>
</svg>
