<svg width="50" height="50" viewBox="0 0 50 50" fill="none" xmlns="http://www.w3.org/2000/svg">
<path d="M49.5 0C49.7761 0 50 0.223858 50 0.5V49.5C50 49.7761 49.7761 50 49.5 50H0.5C0.223858 50 0 49.7761 0 49.5V0.5C0 0.223858 0.223858 0 0.5 0H49.5ZM2.6 27.1C2.32386 27.1 2.1 27.3239 2.1 27.6V47.4C2.1 47.6761 2.32386 47.9 2.6 47.9H22.4C22.6761 47.9 22.9 47.6761 22.9 47.4V27.6C22.9 27.3239 22.6761 27.1 22.4 27.1H2.6ZM25.5 38.9C25.2239 38.9 25 39.1239 25 39.4V47.4C25 47.6761 25.2239 47.9 25.5 47.9H28C28.2761 47.9 28.5 47.6761 28.5 47.4V39.4C28.5 39.1239 28.2761 38.9 28 38.9H25.5ZM32 35.3C31.7239 35.3 31.5 35.5239 31.5 35.8V47.4C31.5 47.6761 31.7239 47.9 32 47.9H34.5C34.7761 47.9 35 47.6761 35 47.4V35.8C35 35.5239 34.7761 35.3 34.5 35.3H32ZM38.5 31.8C38.2239 31.8 38 32.0239 38 32.3V47.4C38 47.6761 38.2239 47.9 38.5 47.9H41C41.2761 47.9 41.5 47.6761 41.5 47.4V32.3C41.5 32.0239 41.2761 31.8 41 31.8H38.5ZM45 27.6C44.7239 27.6 44.5 27.8239 44.5 28.1V47.4C44.5 47.6761 44.7239 47.9 45 47.9H47.5C47.7761 47.9 48 47.6761 48 47.4V28.1C48 27.8239 47.7761 27.6 47.5 27.6H45ZM2.6 21.3C2.32386 21.3 2.1 21.5239 2.1 21.8V24.3C2.1 24.5761 2.32386 24.8 2.6 24.8H47.5C47.7761 24.8 48 24.5761 48 24.3V21.8C48 21.5239 47.7761 21.3 47.5 21.3H2.6ZM2.6 13.9C2.32386 13.9 2.1 14.1239 2.1 14.4V16.9C2.1 17.1761 2.32386 17.4 2.6 17.4H47.5C47.7761 17.4 48 17.1761 48 16.9V14.4C48 14.1239 47.7761 13.9 47.5 13.9H2.6ZM2.6 6.5C2.32386 6.5 2.1 6.72386 2.1 7V9.5C2.1 9.77614 2.32386 10 2.6 10H47.5C47.7761 10 48 9.77614 48 9.5V7C48 6.72386 47.7761 6.5 47.5 6.5H2.6ZM0.85 4.9C0.711929 4.9 0.6 5.01193 0.6 5.15C0.6 5.28807 0.711929 5.4 0.85 5.4H49.25C49.3881 5.4 49.5 5.28807 49.5 5.15C49.5 5.01193 49.3881 4.9 49.25 4.9H0.85ZM40.4 2.2C39.9582 2.2 39.6 2.55817 39.6 3C39.6 3.44183 39.9582 3.8 40.4 3.8C40.8418 3.8 41.2 3.44183 41.2 3C41.2 2.55817 40.8418 2.2 40.4 2.2ZM44.8 2.2C44.3582 2.2 44 2.55817 44 3C44 3.44183 44.3582 3.8 44.8 3.8C45.2418 3.8 45.6 3.44183 45.6 3C45.6 2.55817 45.2418 2.2 44.8 2.2Z" fill="#3D5A47"/>
</svg>
