<svg width="53" height="60" viewBox="0 0 53 60" fill="none" xmlns="http://www.w3.org/2000/svg">
<g filter="url(#filter0_d_426_3519)">
<path d="M48.3263 8.82567C48.6984 8.82567 49 9.06958 49 9.37046V44.4552C49 44.7561 48.6984 45 48.3263 45H13.9701C13.598 45 13.2964 44.7561 13.2964 44.4552V39.9879C13.2964 40.2888 13.598 40.5327 13.9701 40.5327H43.6108C43.9828 40.5327 44.2844 40.2888 44.2844 39.9879V8.82567H48.3263ZM39.0299 0C39.402 0 39.7036 0.243913 39.7036 0.544794V35.5206C39.7036 35.8215 39.402 36.0654 39.0299 36.0654H4.67365C4.3016 36.0654 4 35.8215 4 35.5206V0.544794C4 0.243913 4.3016 0 4.67365 0H39.0299Z" fill="#3D5A47"/>
</g>
<path d="M13.2524 59L15.8461 53.3633H17.2445V54.5547H16.768L14.8344 59H13.2524ZM14.6 57.7188L15.0336 56.7109H18.4906L18.9203 57.7188H14.6ZM18.7406 59L16.807 54.5547V53.3633H17.725L20.3227 59H18.7406ZM21.307 59V53.1484H22.7524V59H21.307ZM25.6859 59.0703C25.3083 59.0703 24.9789 59.0195 24.6977 58.918C24.419 58.8138 24.2016 58.6628 24.0453 58.4648C23.8917 58.2643 23.8149 58.0182 23.8149 57.7266V57.7227C23.8149 57.4701 23.8813 57.2513 24.0141 57.0664C24.1469 56.8789 24.3552 56.7318 24.6391 56.625C24.9255 56.5182 25.2966 56.4596 25.7524 56.4492L28.1781 56.4023V57.125L25.9906 57.1758C25.7224 57.1836 25.5271 57.2279 25.4047 57.3086C25.2849 57.3867 25.225 57.4961 25.225 57.6367V57.6445C25.225 57.8216 25.3083 57.9544 25.475 58.043C25.6443 58.1289 25.8643 58.1719 26.1352 58.1719C26.4034 58.1719 26.6365 58.1354 26.8344 58.0625C27.0349 57.9896 27.1885 57.8867 27.2953 57.7539C27.4047 57.6185 27.4594 57.4596 27.4594 57.2773V56.2656C27.4594 56.0365 27.3682 55.8594 27.1859 55.7344C27.0063 55.6094 26.7484 55.5469 26.4125 55.5469C26.1208 55.5469 25.8891 55.5911 25.7172 55.6797C25.5479 55.7656 25.4372 55.8841 25.3852 56.0352L25.3734 56.0625H24.0141L24.0219 56.0156C24.074 55.7344 24.2003 55.487 24.4008 55.2734C24.6039 55.0573 24.876 54.8893 25.2172 54.7695C25.5609 54.6497 25.9711 54.5898 26.4477 54.5898C26.9659 54.5898 27.4073 54.6562 27.7719 54.7891C28.1391 54.9193 28.419 55.1107 28.6117 55.3633C28.8044 55.6159 28.9008 55.9219 28.9008 56.2812V59H27.4594V58.3164H27.4203C27.324 58.4727 27.1912 58.6081 27.0219 58.7227C26.8526 58.8346 26.6547 58.9206 26.4281 58.9805C26.2042 59.0404 25.9568 59.0703 25.6859 59.0703ZM30.1274 59V54.6953L31.5766 54.7031V55.5508H31.6195C31.7055 55.2513 31.8669 55.0208 32.1039 54.8594C32.3409 54.6953 32.6365 54.6133 32.9906 54.6133C33.0792 54.6133 33.1638 54.6185 33.2445 54.6289C33.3279 54.6393 33.4021 54.6523 33.4672 54.668V55.8086C33.3787 55.7878 33.2862 55.7734 33.1899 55.7656C33.0935 55.7552 32.9958 55.75 32.8969 55.75C32.6287 55.75 32.3956 55.7969 32.1977 55.8906C32.0024 55.9844 31.85 56.125 31.7406 56.3125C31.6313 56.5 31.5766 56.7357 31.5766 57.0195V59H30.1274ZM34.3109 59V54.6914H35.7563V55.4844H35.7992C35.9346 55.1953 36.143 54.974 36.4242 54.8203C36.7055 54.6641 37.0323 54.5859 37.4047 54.5859C37.6677 54.5859 37.9034 54.625 38.1117 54.7031C38.3227 54.7786 38.5024 54.888 38.6508 55.0312C38.7992 55.1745 38.9138 55.3477 38.9945 55.5508H39.0375C39.1365 55.3424 39.2693 55.1667 39.4359 55.0234C39.6052 54.8802 39.8018 54.7721 40.0258 54.6992C40.2497 54.6237 40.4932 54.5859 40.7563 54.5859C41.1469 54.5859 41.4776 54.6602 41.7484 54.8086C42.0193 54.9544 42.2263 55.1641 42.3695 55.4375C42.5128 55.7083 42.5844 56.0339 42.5844 56.4141V59H41.1352V56.7266C41.1352 56.4948 41.1 56.2995 41.0297 56.1406C40.962 55.9818 40.8578 55.862 40.7172 55.7812C40.5792 55.6979 40.4034 55.6562 40.1899 55.6562C39.9711 55.6562 39.7836 55.7018 39.6274 55.793C39.4737 55.8841 39.3552 56.0143 39.2719 56.1836C39.1885 56.3503 39.1469 56.5469 39.1469 56.7734V59H37.7406V56.7109C37.7406 56.487 37.7055 56.2969 37.6352 56.1406C37.5675 55.9818 37.4633 55.862 37.3227 55.7812C37.182 55.6979 37.0076 55.6562 36.7992 55.6562C36.5831 55.6562 36.3969 55.7031 36.2406 55.7969C36.0844 55.888 35.9646 56.0195 35.8813 56.1914C35.7979 56.3607 35.7563 56.5612 35.7563 56.793V59H34.3109Z" fill="#F9F9F3"/>
<defs>
<filter id="filter0_d_426_3519" x="0" y="0" width="53" height="53" filterUnits="userSpaceOnUse" color-interpolation-filters="sRGB">
<feFlood flood-opacity="0" result="BackgroundImageFix"/>
<feColorMatrix in="SourceAlpha" type="matrix" values="0 0 0 0 0 0 0 0 0 0 0 0 0 0 0 0 0 0 127 0" result="hardAlpha"/>
<feOffset dy="4"/>
<feGaussianBlur stdDeviation="2"/>
<feComposite in2="hardAlpha" operator="out"/>
<feColorMatrix type="matrix" values="0 0 0 0 0 0 0 0 0 0 0 0 0 0 0 0 0 0 0.25 0"/>
<feBlend mode="normal" in2="BackgroundImageFix" result="effect1_dropShadow_426_3519"/>
<feBlend mode="normal" in="SourceGraphic" in2="effect1_dropShadow_426_3519" result="shape"/>
</filter>
</defs>
</svg>
