<svg width="50" height="50" viewBox="0 0 50 50" fill="none" xmlns="http://www.w3.org/2000/svg">
<path d="M48.2015 43.775C49.3562 45.6712 50 47.7792 50 50H0C0 47.7792 0.643761 45.6712 1.79854 43.775H48.2015ZM11.6 41.225H3.77793C5.77833 39.1485 8.46994 37.4713 11.6 36.3833V41.225ZM30 35C31.7265 35 33.4019 35.1641 35 35.4726V41.225H15V35.4726C16.5981 35.1641 18.2735 35 20 35H30ZM38.4 36.3833C41.5301 37.4713 44.2217 39.1485 46.2221 41.225H38.4V36.3833ZM24.95 0C32.5439 0 38.7 6.15609 38.7 13.75V14.6H42.5C43.8807 14.6 45 15.7193 45 17.1C45 18.4807 43.8807 19.6 42.5 19.6H39.5V26.1C39.5 26.6523 39.0523 27.1 38.5 27.1C37.9477 27.1 37.5 26.6523 37.5 26.1V19.6C37.5 26.5036 31.9036 32.1 25 32.1C18.0964 32.1 12.5 26.5036 12.5 19.6V26.1C12.5 26.6523 12.0523 27.1 11.5 27.1C10.9477 27.1 10.5 26.6523 10.5 26.1V19.6H7.5C6.11929 19.6 5 18.4807 5 17.1C5 15.7193 6.11929 14.6 7.5 14.6H11.2V13.75C11.2 6.15609 17.3561 0 24.95 0Z" fill="#F7F7ED"/>
</svg>
