<svg width="50" height="50" viewBox="0 0 50 50" fill="none" xmlns="http://www.w3.org/2000/svg">
<path d="M45 39.98C47.7614 39.98 50 42.223 50 44.99C50 47.7569 47.7614 50 45 50H5C2.23858 50 1.20706e-07 47.7569 0 44.99C4.97784e-07 42.223 2.23858 39.98 5 39.98H45ZM45 26.6533C47.7614 26.6533 50 28.8964 50 31.6633C50 34.4303 47.7614 36.6733 45 36.6733H5C2.23858 36.6733 1.20706e-07 34.4303 0 31.6633C4.97784e-07 28.8964 2.23858 26.6533 5 26.6533H45ZM45 13.3267C47.7614 13.3267 50 15.5697 50 18.3367C50 21.1036 47.7614 23.3467 45 23.3467H5C2.23858 23.3467 1.20706e-07 21.1036 0 18.3367C4.97784e-07 15.5697 2.23858 13.3267 5 13.3267H45ZM45 0C47.7614 1.15762e-07 50 2.24306 50 5.01002C50 7.77698 47.7614 10.02 45 10.02H5C2.23858 10.02 1.20706e-07 7.77698 0 5.01002C4.97784e-07 2.24306 2.23858 1.20948e-07 5 0H45Z" fill="#3D5A47"/>
</svg>
