<svg width="89" height="89" viewBox="0 0 89 89" fill="none" xmlns="http://www.w3.org/2000/svg">
<path d="M87.3155 81.044C88.2052 83.4182 88.6931 85.9972 88.6931 88.6931H0C0 85.9972 0.487981 83.4182 1.37769 81.044H87.3155ZM20.5768 74.8519H4.97478C8.74567 70.3247 14.3323 67.4397 20.5768 67.386V74.8519ZM62.0852 74.8519H26.6079V67.3849H62.0852V74.8519ZM68.1163 67.386C74.3609 67.4397 79.9475 70.3247 83.7184 74.8519H68.1163V67.386ZM53.8367 10.9273C54.7674 10.9273 55.5219 11.7019 55.5219 12.6574C55.5219 13.1097 55.3526 13.5212 55.0758 13.8295C61.8004 17.7161 66.3425 25.1141 66.3425 33.6014V34.9673H72.3736C74.6269 34.9673 76.4535 36.8427 76.4535 39.1561C76.4535 41.4695 74.6269 43.3449 72.3736 43.3449H67.5842V54.0901C67.5842 54.9953 66.8694 55.7292 65.9877 55.7292C65.106 55.7292 64.3912 54.9953 64.3912 54.0901V43.3449H64.3907C64.3431 54.7192 55.3875 63.9246 44.3466 63.9246C33.3057 63.9246 24.35 54.7192 24.3024 43.3449H24.3019V54.0901C24.3019 54.9953 23.5872 55.7292 22.7054 55.7292C21.8237 55.7292 21.109 54.9953 21.109 54.0901V43.3449H16.3195C14.0663 43.3449 12.2397 41.4695 12.2397 39.1561C12.2397 36.8427 14.0663 34.9673 16.3195 34.9673H22.1733V33.6014C22.1733 25.0642 26.7689 17.6293 33.5588 13.7614C33.3167 13.4618 33.1712 13.0771 33.1712 12.6574C33.1712 11.7019 33.9257 10.9273 34.8564 10.9273H53.8367ZM68.5279 5.0994L63.2063 14.5628L60.134 12.7416L65.4555 3.27819L68.5279 5.0994ZM28.0839 12.5594L25.0115 14.3807L19.6899 4.91728L22.7623 3.09606L28.0839 12.5594ZM44.3466 0C47.6775 1.1247e-07 50.3777 2.77231 50.3777 6.19213V9.83456H38.3154V6.19213C38.3154 2.77231 41.0157 -1.1247e-07 44.3466 0Z" fill="#FF7948"/>
</svg>
