<svg width="100" height="22" viewBox="0 0 100 22" fill="none" xmlns="http://www.w3.org/2000/svg">
<path fill-rule="evenodd" clip-rule="evenodd" d="M29.865 6.53307C29.865 5.90002 29.3875 5.38684 28.7984 5.38684H27.7317C27.1426 5.38684 26.665 5.90002 26.665 6.53307V16.467C26.665 17.1001 27.1426 17.6133 27.7317 17.6133H28.7984C29.3875 17.6133 29.865 17.1001 29.865 16.467V6.53307ZM22.4309 7.83212H23.4976C24.0867 7.83212 24.5643 8.35762 24.5643 9.00586V16.4395C24.5643 17.0878 24.0867 17.6133 23.4976 17.6133H22.4309C21.8418 17.6133 21.3643 17.0878 21.3643 16.4395V9.00586C21.3643 8.35762 21.8418 7.83212 22.4309 7.83212ZM18.0992 10.4812H17.0325C16.4434 10.4812 15.9658 11.0134 15.9658 11.6698V16.4246C15.9658 17.0811 16.4434 17.6132 17.0325 17.6132H18.0992C18.6883 17.6132 19.1658 17.0811 19.1658 16.4246V11.6698C19.1658 11.0134 18.6883 10.4812 18.0992 10.4812ZM12.7984 12.9265H11.7317C11.1426 12.9265 10.665 13.4511 10.665 14.0982V16.4416C10.665 17.0887 11.1426 17.6133 11.7317 17.6133H12.7984C13.3875 17.6133 13.865 17.0887 13.865 16.4416V14.0982C13.865 13.4511 13.3875 12.9265 12.7984 12.9265Z" fill="white"/>
<path fill-rule="evenodd" clip-rule="evenodd" d="M45.4365 7.8021C47.9236 7.8022 50.3157 8.72428 52.1182 10.3778C52.2539 10.5054 52.4709 10.5038 52.6045 10.3742L53.902 9.11069C53.9697 9.04493 54.0075 8.95585 54.0069 8.86317C54.0063 8.77049 53.9675 8.68184 53.899 8.61685C49.168 4.24214 41.7043 4.24214 36.9733 8.61685C36.9048 8.6818 36.8659 8.77041 36.8652 8.8631C36.8646 8.95578 36.9023 9.04488 36.9699 9.11069L38.2678 10.3742C38.4014 10.504 38.6185 10.5056 38.7542 10.3778C40.5569 8.72418 42.9492 7.80209 45.4365 7.8021ZM45.4332 12.0224C46.7905 12.0223 48.0994 12.534 49.1055 13.4582C49.2416 13.5893 49.4559 13.5865 49.5886 13.4517L50.8759 12.1324C50.9437 12.0632 50.9813 11.9694 50.9803 11.8718C50.9793 11.7743 50.9398 11.6812 50.8707 11.6134C47.8068 8.72254 43.0621 8.72254 39.9983 11.6134C39.9291 11.6812 39.8896 11.7743 39.8887 11.8719C39.8878 11.9695 39.9255 12.0633 39.9935 12.1324L41.2804 13.4517C41.413 13.5865 41.6274 13.5893 41.7635 13.4582C42.7689 12.5346 44.0768 12.0229 45.4332 12.0224ZM47.9576 14.8159C47.9595 14.9213 47.9225 15.0228 47.8552 15.0967L45.6785 17.5514C45.6147 17.6235 45.5277 17.6641 45.4369 17.6641C45.3462 17.6641 45.2592 17.6235 45.1954 17.5514L43.0183 15.0967C42.9511 15.0228 42.9141 14.9212 42.9161 14.8158C42.9181 14.7105 42.9589 14.6107 43.0289 14.5401C44.419 13.2262 46.4549 13.2262 47.845 14.5401C47.9149 14.6108 47.9557 14.7106 47.9576 14.8159Z" fill="white"/>
<rect opacity="0.35" x="61.5068" y="5.5" width="24" height="12" rx="3.8" stroke="white"/>
<path opacity="0.4" d="M87.0068 9.5V13.5755C87.8116 13.2303 88.3349 12.4273 88.3349 11.5377C88.3349 10.6481 87.8116 9.84517 87.0068 9.5Z" fill="white"/>
<rect x="63.0068" y="7" width="21" height="9" rx="2.5" fill="white"/>
</svg>
