<svg width="93" height="93" viewBox="0 0 93 93" fill="none" xmlns="http://www.w3.org/2000/svg">
<g filter="url(#filter0_d_249_5046)">
<path d="M88.15 0C88.6194 0 89 0.380558 89 0.85V84.15C89 84.6194 88.6194 85 88.15 85H4.85C4.38056 85 4 84.6194 4 84.15V0.85C4 0.380558 4.38056 0 4.85 0H88.15ZM8.42 46.07C7.95056 46.07 7.57 46.4506 7.57 46.92V80.58C7.57 81.0494 7.95056 81.43 8.42 81.43H42.08C42.5494 81.43 42.93 81.0494 42.93 80.58V46.92C42.93 46.4506 42.5494 46.07 42.08 46.07H8.42ZM47.35 66.13C46.8806 66.13 46.5 66.5106 46.5 66.98V80.58C46.5 81.0494 46.8806 81.43 47.35 81.43H51.6C52.0694 81.43 52.45 81.0494 52.45 80.58V66.98C52.45 66.5106 52.0694 66.13 51.6 66.13H47.35ZM58.4 60.01C57.9306 60.01 57.55 60.3906 57.55 60.86V80.58C57.55 81.0494 57.9306 81.43 58.4 81.43H62.65C63.1194 81.43 63.5 81.0494 63.5 80.58V60.86C63.5 60.3906 63.1194 60.01 62.65 60.01H58.4ZM69.45 54.06C68.9806 54.06 68.6 54.4406 68.6 54.91V80.58C68.6 81.0494 68.9806 81.43 69.45 81.43H73.7C74.1694 81.43 74.55 81.0494 74.55 80.58V54.91C74.55 54.4406 74.1694 54.06 73.7 54.06H69.45ZM80.5 46.92C80.0306 46.92 79.65 47.3006 79.65 47.77V80.58C79.65 81.0494 80.0306 81.43 80.5 81.43H84.75C85.2194 81.43 85.6 81.0494 85.6 80.58V47.77C85.6 47.3006 85.2194 46.92 84.75 46.92H80.5ZM8.42 36.21C7.95056 36.21 7.57 36.5906 7.57 37.06V41.31C7.57 41.7794 7.95056 42.16 8.42 42.16H84.75C85.2194 42.16 85.6 41.7794 85.6 41.31V37.06C85.6 36.5906 85.2194 36.21 84.75 36.21H8.42ZM8.42 23.63C7.95056 23.63 7.57 24.0106 7.57 24.48V28.73C7.57 29.1994 7.95056 29.58 8.42 29.58H84.75C85.2194 29.58 85.6 29.1994 85.6 28.73V24.48C85.6 24.0106 85.2194 23.63 84.75 23.63H8.42ZM8.42 11.05C7.95056 11.05 7.57 11.4306 7.57 11.9V16.15C7.57 16.6194 7.95056 17 8.42 17H84.75C85.2194 17 85.6 16.6194 85.6 16.15V11.9C85.6 11.4306 85.2194 11.05 84.75 11.05H8.42ZM5.445 8.33C5.21028 8.33 5.02 8.52028 5.02 8.755C5.02 8.98972 5.21028 9.18 5.445 9.18H87.725C87.9597 9.18 88.15 8.98972 88.15 8.755C88.15 8.52028 87.9597 8.33 87.725 8.33H5.445ZM72.68 3.74C71.9289 3.74 71.32 4.34889 71.32 5.1C71.32 5.85111 71.9289 6.46 72.68 6.46C73.4311 6.46 74.04 5.85111 74.04 5.1C74.04 4.34889 73.4311 3.74 72.68 3.74ZM80.16 3.74C79.4089 3.74 78.8 4.34889 78.8 5.1C78.8 5.85111 79.4089 6.46 80.16 6.46C80.9111 6.46 81.52 5.85111 81.52 5.1C81.52 4.34889 80.9111 3.74 80.16 3.74Z" fill="#F7F7ED"/>
</g>
<defs>
<filter id="filter0_d_249_5046" x="0" y="0" width="93" height="93" filterUnits="userSpaceOnUse" color-interpolation-filters="sRGB">
<feFlood flood-opacity="0" result="BackgroundImageFix"/>
<feColorMatrix in="SourceAlpha" type="matrix" values="0 0 0 0 0 0 0 0 0 0 0 0 0 0 0 0 0 0 127 0" result="hardAlpha"/>
<feOffset dy="4"/>
<feGaussianBlur stdDeviation="2"/>
<feComposite in2="hardAlpha" operator="out"/>
<feColorMatrix type="matrix" values="0 0 0 0 0 0 0 0 0 0 0 0 0 0 0 0 0 0 0.25 0"/>
<feBlend mode="normal" in2="BackgroundImageFix" result="effect1_dropShadow_249_5046"/>
<feBlend mode="normal" in="SourceGraphic" in2="effect1_dropShadow_249_5046" result="shape"/>
</filter>
</defs>
</svg>
