<svg width="93" height="93" viewBox="0 0 93 93" fill="none" xmlns="http://www.w3.org/2000/svg">
<g filter="url(#filter0_d_516_1682)">
<path d="M55.1884 1.78207C56.1954 -0.594023 59.5734 -0.594023 60.5804 1.78207L65.091 12.4258C65.3875 13.1255 65.9462 13.6824 66.6481 13.978L77.3258 18.4743C79.7094 19.4781 79.7094 22.8454 77.3258 23.8491L66.6481 28.3455C65.9462 28.6411 65.3875 29.198 65.091 29.8977L61.4996 38.3722V48.3028C61.7475 47.8545 62.1489 47.4752 62.7042 47.2507L68.9897 44.7101C69.5937 44.466 70.0728 43.9884 70.3177 43.3863L72.8664 37.1208C73.6798 35.1212 76.5199 35.1212 77.3333 37.1208L79.882 43.3863C80.1269 43.9884 80.606 44.466 81.21 44.7101L87.4955 47.2507C89.5015 48.0615 89.5015 50.8928 87.4955 51.7036L81.21 54.2441C80.606 54.4882 80.1269 54.9658 79.882 55.5678L77.3333 61.8336C76.5199 63.8331 73.6798 63.8331 72.8664 61.8336L70.3177 55.5678C70.0728 54.9658 69.5937 54.4882 68.9897 54.2441L62.7042 51.7036C62.1489 51.4792 61.7475 51.0996 61.4996 50.6512V84.142C61.4996 84.6158 61.1143 85 60.6389 85H16.7394C16.264 85 15.8787 84.6158 15.8787 84.142V77.106C15.8787 77.5799 16.264 77.9641 16.7394 77.9641H54.6135C55.0888 77.9641 55.4742 77.5799 55.4742 77.106V41.0671C55.3654 40.9071 55.2692 40.7319 55.1884 40.5414L50.6778 29.8977C50.4558 29.3739 50.0869 28.9301 49.621 28.6161V70.0701C49.621 70.544 49.2356 70.9281 48.7602 70.9281H4.86077C4.38538 70.9281 4 70.544 4 70.0701V14.9838C4.00001 14.51 4.38539 14.1258 4.86077 14.1258H48.7602C48.7631 14.1258 48.766 14.1259 48.7689 14.126L49.1206 13.978C49.8226 13.6824 50.3812 13.1255 50.6778 12.4258L55.1884 1.78207Z" fill="#F7F7ED"/>
</g>
<defs>
<filter id="filter0_d_516_1682" x="0" y="0" width="93" height="93" filterUnits="userSpaceOnUse" color-interpolation-filters="sRGB">
<feFlood flood-opacity="0" result="BackgroundImageFix"/>
<feColorMatrix in="SourceAlpha" type="matrix" values="0 0 0 0 0 0 0 0 0 0 0 0 0 0 0 0 0 0 127 0" result="hardAlpha"/>
<feOffset dy="4"/>
<feGaussianBlur stdDeviation="2"/>
<feComposite in2="hardAlpha" operator="out"/>
<feColorMatrix type="matrix" values="0 0 0 0 0 0 0 0 0 0 0 0 0 0 0 0 0 0 0.25 0"/>
<feBlend mode="normal" in2="BackgroundImageFix" result="effect1_dropShadow_516_1682"/>
<feBlend mode="normal" in="SourceGraphic" in2="effect1_dropShadow_516_1682" result="shape"/>
</filter>
</defs>
</svg>
