<svg width="139" height="24" viewBox="0 0 139 24" fill="none" xmlns="http://www.w3.org/2000/svg">
<path d="M-3.05176e-05 23.0127L9.47751 1.875H15.6445V6.73828H13.5205L6.76755 23.0127H-3.05176e-05ZM5.22946 18.5449L6.97263 14.3555H19.9951L21.7236 18.5449H5.22946ZM20.3906 23.0127L13.6377 6.73828V1.875H17.6806L27.1582 23.0127H20.3906ZM28.9013 23.0127V7.13379H35.0976V23.0127H28.9013ZM32.0068 5.53711C31.0498 5.53711 30.2685 5.27344 29.6631 4.74609C29.0674 4.21875 28.7695 3.55957 28.7695 2.76855C28.7695 1.9873 29.0674 1.33301 29.6631 0.805664C30.2685 0.268555 31.0498 0 32.0068 0C32.9736 0 33.75 0.268555 34.3359 0.805664C34.9316 1.33301 35.2295 1.9873 35.2295 2.76855C35.2295 3.55957 34.9316 4.21875 34.3359 4.74609C33.75 5.27344 32.9736 5.53711 32.0068 5.53711ZM51.3867 23.0127L44.414 1.875H51.0644L54.9463 15.7471H55.0488L59.7802 1.875H65.3613L70.0927 15.7471H70.1953L74.0771 1.875H80.7275L73.7549 23.0127H67.1924L62.6074 10.0342H62.5195L57.9345 23.0127H51.3867ZM90.4248 23.4082C88.2763 23.4082 86.416 23.0713 84.8437 22.3975C83.2715 21.7236 82.0556 20.7666 81.1963 19.5264C80.3369 18.2764 79.9072 16.792 79.9072 15.0732V15.0439C79.9072 13.3447 80.3369 11.875 81.1963 10.6348C82.0654 9.38477 83.2861 8.42285 84.8584 7.74902C86.4404 7.06543 88.2959 6.72363 90.4248 6.72363C92.5537 6.72363 94.4043 7.06543 95.9765 7.74902C97.5488 8.42285 98.7695 9.37988 99.6386 10.6201C100.508 11.8604 100.942 13.335 100.942 15.0439V15.0732C100.942 16.8018 100.508 18.2861 99.6386 19.5264C98.7793 20.7666 97.5634 21.7236 95.9912 22.3975C94.4189 23.0713 92.5634 23.4082 90.4248 23.4082ZM90.4248 19.1895C91.2646 19.1895 92.0019 19.0283 92.6367 18.7061C93.2715 18.3838 93.7646 17.9199 94.1162 17.3145C94.4677 16.6992 94.6435 15.9521 94.6435 15.0732V15.0439C94.6435 14.1846 94.4629 13.4521 94.1015 12.8467C93.75 12.2314 93.2568 11.7627 92.622 11.4404C91.997 11.1182 91.2646 10.957 90.4248 10.957C89.5752 10.957 88.833 11.1182 88.1982 11.4404C87.5732 11.7627 87.08 12.2314 86.7187 12.8467C86.3672 13.4521 86.1914 14.1846 86.1914 15.0439V15.0732C86.1914 15.9521 86.3672 16.6992 86.7187 17.3145C87.0703 17.9199 87.5634 18.3838 88.1982 18.7061C88.833 19.0283 89.5752 19.1895 90.4248 19.1895ZM103.008 23.0127V7.13379L109.189 7.16309V10.415H109.292C109.595 9.25293 110.156 8.35938 110.977 7.73438C111.797 7.10937 112.832 6.79688 114.082 6.79688C114.385 6.79688 114.678 6.81641 114.961 6.85547C115.254 6.89453 115.513 6.94336 115.737 7.00195V11.792C115.454 11.7139 115.137 11.6553 114.785 11.6162C114.443 11.5771 114.097 11.5576 113.745 11.5576C112.827 11.5576 112.026 11.7188 111.343 12.041C110.659 12.3535 110.127 12.8418 109.746 13.5059C109.375 14.1699 109.189 15.0195 109.189 16.0547V23.0127H103.008ZM117.466 23.0127V1.875H123.647V23.0127H117.466ZM130.752 23.0127L124.556 15.9229L128.686 12.1582L138.076 23.0127H130.752ZM122.988 18.8672V13.1396H123.75L130.518 7.11914H137.651L128.086 15.6006L126.548 15.8789L122.988 18.8672Z" fill="#F9F9F3"/>
</svg>
