<svg width="59" height="73" viewBox="0 0 59 73" fill="none" xmlns="http://www.w3.org/2000/svg">
<path d="M21.3383 19.5034C22.0019 19.5034 22.5836 19.1525 22.9085 18.6259H27.5807L25.6807 20.527L27.2206 22.0679L26.2189 23.0702L27.6331 24.4852V27.0972L29.4339 26.4661L31.1217 27.0324V24.4852L32.5359 23.0702L31.5342 22.0679L33.0742 20.527L31.1741 18.6259H36.0915C36.416 19.1525 36.9977 19.5034 37.6618 19.5034C38.6799 19.5034 39.5056 18.6776 39.5056 17.6584C39.5056 16.6393 38.6803 15.8135 37.6618 15.8135C36.9981 15.8135 36.4164 16.1644 36.0915 16.691H30.7905V6.50651C31.0592 6.1859 31.2213 5.77279 31.2213 5.32184C31.2213 4.59448 30.8002 3.96526 30.1889 3.66488V2.10154C30.4319 1.88057 30.5846 1.56183 30.5846 1.20752C30.5846 0.540461 30.0441 0 29.3778 0C28.7115 0 28.171 0.540836 28.171 1.20752C28.171 1.56183 28.3237 1.88057 28.5667 2.10154V3.66488C27.9554 3.96526 27.5343 4.59411 27.5343 5.32184C27.5343 5.77279 27.6964 6.1859 27.9651 6.50651V16.691H22.9092C22.5847 16.1644 22.003 15.8135 21.339 15.8135C20.3209 15.8135 19.4951 16.6393 19.4951 17.6584C19.4951 18.6776 20.3205 19.5034 21.339 19.5034H21.3383Z" fill="#3D5A47"/>
<path d="M44.4065 35.3993L44.4316 39.084H56.0241L58.9999 35.3993H44.4065Z" fill="#3D5A47"/>
<path d="M44.4576 42.832C44.4598 43.144 44.4553 43.4556 44.4456 43.7661H50.0659L53.0417 40.0818H44.4385L44.4572 42.832H44.4576Z" fill="#3D5A47"/>
<path d="M43.8589 48.3894H44.2635L47.2393 44.7047H44.399C44.3122 45.9523 44.1306 47.1838 43.8593 48.3894H43.8589Z" fill="#3D5A47"/>
<path d="M14.5676 35.3993H0L2.97581 39.084H14.5927L14.5676 35.3993Z" fill="#3D5A47"/>
<path d="M14.6199 43.029L14.5997 40.0814H5.95825L8.93406 43.7658H14.636C14.627 43.5208 14.6214 43.2751 14.6199 43.0287V43.029Z" fill="#3D5A47"/>
<path d="M11.7605 44.7051L14.7363 48.3898H15.2502C14.9718 47.1849 14.7831 45.9538 14.6891 44.7051H11.7605Z" fill="#3D5A47"/>
<path d="M29.4445 28.0493L16.0466 32.7438L16.1174 43.0189C16.1425 46.6831 17.0573 50.3363 18.7627 53.584C20.4684 56.8324 22.961 59.6657 25.9705 61.7785L29.6919 64.3909L33.3729 61.7291C36.351 59.5755 38.8024 56.7088 40.4621 53.4386C42.1215 50.1693 42.9854 46.5052 42.9599 42.8425L42.8892 32.5607L29.4441 28.0493H29.4445ZM32.4873 34.482H35.489V37.4855H32.4873V34.482ZM23.8522 47.3288L19.5562 47.376L28.1887 38.7383L30.3129 40.8638L23.8519 47.3288H23.8522ZM35.2812 49.9884H32.4869V47.3172L28.694 43.5219L30.8182 41.3964L32.4869 43.0661V40.8455L35.4912 37.7724V46.0718L39.4511 50.0341L35.2812 49.988V49.9884Z" fill="#3D5A47"/>
<path d="M48.744 66.9473H49.7801V70.4952H48.744V66.9473ZM49.3811 68.3446H50.533V69.1945H49.3811V68.3446ZM45.7838 70.7142H46.8134V71.0683H48.7569V70.7142H49.7801V72.9292H45.7838V70.7142ZM46.8134 71.841V72.1243H48.7569V71.841H46.8134ZM44.9858 67.4173H48.5317V68.2287H44.9858V67.4173ZM46.762 68.3253C47.058 68.3253 47.3175 68.3703 47.5406 68.4605C47.768 68.5506 47.946 68.6773 48.0748 68.8404C48.2035 68.9992 48.2678 69.1838 48.2678 69.3942C48.2678 69.6088 48.2035 69.7977 48.0748 69.9608C47.946 70.1239 47.768 70.2506 47.5406 70.3407C47.3175 70.4308 47.058 70.4759 46.762 70.4759C46.4659 70.4759 46.2042 70.4308 45.9769 70.3407C45.7538 70.2506 45.5779 70.1239 45.4492 69.9608C45.3205 69.7977 45.2561 69.6088 45.2561 69.3942C45.2561 69.1838 45.3205 68.9992 45.4492 68.8404C45.5779 68.6773 45.7538 68.5506 45.9769 68.4605C46.2042 68.3703 46.4659 68.3253 46.762 68.3253ZM46.762 69.0722C46.6118 69.0722 46.4895 69.1001 46.3952 69.1559C46.3008 69.2074 46.2536 69.289 46.2536 69.4006C46.2536 69.5165 46.3008 69.6002 46.3952 69.6517C46.4895 69.7032 46.6118 69.729 46.762 69.729C46.9121 69.729 47.0344 69.7032 47.1288 69.6517C47.2232 69.6002 47.2703 69.5165 47.2703 69.4006C47.2703 69.289 47.2232 69.2074 47.1288 69.1559C47.0344 69.1001 46.9121 69.0722 46.762 69.0722ZM46.2407 66.9022H47.2768V67.8745H46.2407V66.9022Z" fill="#3D5A47"/>
<path d="M41.2734 69.1172H42.3094V70.1797H41.2734V69.1172ZM39.0725 69.774H44.536V70.5854H39.0725V69.774ZM41.7882 70.83C42.4489 70.83 42.9658 70.9245 43.3391 71.1134C43.7123 71.3022 43.8989 71.5705 43.8989 71.9183C43.8989 72.2617 43.7123 72.5257 43.3391 72.7103C42.9658 72.8991 42.4489 72.9936 41.7882 72.9936C41.1275 72.9936 40.6105 72.8991 40.2373 72.7103C39.864 72.5257 39.6774 72.2617 39.6774 71.9183C39.6774 71.5705 39.864 71.3022 40.2373 71.1134C40.6105 70.9245 41.1275 70.83 41.7882 70.83ZM41.7882 71.6027C41.4192 71.6027 41.1489 71.6263 40.9773 71.6736C40.81 71.7208 40.7264 71.8023 40.7264 71.9183C40.7264 72.0342 40.81 72.1157 40.9773 72.1629C41.1489 72.2059 41.4192 72.2273 41.7882 72.2273C42.1571 72.2273 42.4253 72.2059 42.5926 72.1629C42.7642 72.1157 42.85 72.0342 42.85 71.9183C42.85 71.8023 42.7642 71.7208 42.5926 71.6736C42.4253 71.6263 42.1571 71.6027 41.7882 71.6027ZM41.0803 67.5525H42.0005V67.6813C42.0005 67.8573 41.9727 68.0269 41.9169 68.19C41.8611 68.3531 41.7732 68.5077 41.653 68.6536C41.5372 68.7953 41.3849 68.9241 41.1961 69.04C41.0117 69.1559 40.7886 69.2525 40.5269 69.3297C40.2652 69.4027 39.9627 69.4542 39.6195 69.4843L39.2656 68.6729C39.5573 68.6515 39.8061 68.615 40.0121 68.5635C40.2223 68.512 40.396 68.4519 40.5333 68.3832C40.6706 68.3102 40.7778 68.2329 40.8551 68.1514C40.9366 68.0698 40.9945 67.9883 41.0288 67.9067C41.0631 67.8251 41.0803 67.75 41.0803 67.6813V67.5525ZM41.608 67.5525H42.5282V67.6813C42.5282 67.7543 42.5432 67.8316 42.5733 67.9131C42.6076 67.9947 42.6634 68.0763 42.7406 68.1578C42.8221 68.2351 42.9315 68.3102 43.0688 68.3832C43.2104 68.4519 43.3841 68.512 43.59 68.5635C43.8003 68.615 44.0512 68.6515 44.343 68.6729L43.989 69.4843C43.6458 69.4542 43.3434 69.4027 43.0817 69.3297C42.82 69.2525 42.5947 69.158 42.406 69.0464C42.2215 68.9305 42.0692 68.8017 41.9491 68.6601C41.8332 68.5141 41.7474 68.3596 41.6917 68.1965C41.6359 68.029 41.608 67.8573 41.608 67.6813V67.5525ZM39.568 67.1791H44.0469V67.9904H39.568V67.1791Z" fill="#3D5A47"/>
<path d="M34.6519 70.0768H35.688V71.3839H34.6519V70.0768ZM37.2775 66.9409H38.3136V71.5062H37.2775V66.9409ZM33.8411 72.0729H38.4423V72.8971H33.8411V72.0729ZM33.8411 71.0813H34.8772V72.2918H33.8411V71.0813ZM33.2619 70.3665L33.1396 69.5488C33.5043 69.5445 33.9012 69.5402 34.3302 69.5359C34.7635 69.5273 35.2032 69.5101 35.6494 69.4844C36.0999 69.4586 36.5332 69.42 36.9493 69.3685L37.0137 70.1025C36.5889 70.1755 36.1556 70.2313 35.7137 70.2699C35.2761 70.3086 34.8471 70.3343 34.4267 70.3472C34.0106 70.3558 33.6223 70.3622 33.2619 70.3665ZM36.19 70.418H37.4963V71.1135H36.19V70.418ZM35.0702 67.1277C35.3662 67.1277 35.6279 67.1749 35.8553 67.2693C36.0827 67.3595 36.2607 67.4882 36.3894 67.6557C36.5181 67.8188 36.5825 68.0077 36.5825 68.2223C36.5825 68.4369 36.5181 68.628 36.3894 68.7954C36.2607 68.9585 36.0827 69.0851 35.8553 69.1753C35.6279 69.2654 35.3662 69.3105 35.0702 69.3105C34.7742 69.3105 34.5104 69.2654 34.2787 69.1753C34.0513 69.0851 33.8733 68.9585 33.7446 68.7954C33.6159 68.628 33.5515 68.4369 33.5515 68.2223C33.5515 68.0077 33.6159 67.8188 33.7446 67.6557C33.8733 67.4882 34.0513 67.3595 34.2787 67.2693C34.5104 67.1749 34.7742 67.1277 35.0702 67.1277ZM35.0702 67.881C34.9115 67.881 34.7828 67.9068 34.6841 67.9583C34.5854 68.0098 34.5361 68.0978 34.5361 68.2223C34.5361 68.3425 34.5854 68.4305 34.6841 68.4863C34.7828 68.5378 34.9115 68.5636 35.0702 68.5636C35.229 68.5636 35.3555 68.5378 35.4499 68.4863C35.5486 68.4305 35.5979 68.3425 35.5979 68.2223C35.5979 68.1407 35.5743 68.0763 35.5271 68.0291C35.4842 67.9776 35.4242 67.9411 35.3469 67.9197C35.2697 67.8939 35.1775 67.881 35.0702 67.881Z" fill="#3D5A47"/>
<path d="M31.2481 66.9473H32.2906V71.2486H31.2481V66.9473ZM28.1914 72.0728H32.4258V72.897H28.1914V72.0728ZM28.1914 70.8236H29.2274V72.4269H28.1914V70.8236ZM28.9765 67.3079C29.2897 67.3079 29.5728 67.3744 29.8259 67.5075C30.079 67.6405 30.2807 67.8251 30.4308 68.0612C30.581 68.293 30.6561 68.5613 30.6561 68.8661C30.6561 69.1623 30.581 69.4285 30.4308 69.6646C30.2807 69.9007 30.079 70.0874 29.8259 70.2248C29.5728 70.3578 29.2897 70.4244 28.9765 70.4244C28.6633 70.4244 28.3801 70.3578 28.127 70.2248C27.8739 70.0874 27.6723 69.9007 27.5221 69.6646C27.372 69.4285 27.2969 69.1623 27.2969 68.8661C27.2969 68.5613 27.372 68.293 27.5221 68.0612C27.6723 67.8251 27.8739 67.6405 28.127 67.5075C28.3801 67.3744 28.6633 67.3079 28.9765 67.3079ZM28.9765 68.2029C28.8521 68.2029 28.7384 68.2286 28.6354 68.2802C28.5367 68.3274 28.4574 68.4004 28.3973 68.4991C28.3415 68.5935 28.3136 68.7159 28.3136 68.8661C28.3136 69.0121 28.3415 69.1344 28.3973 69.2331C28.4574 69.3276 28.5367 69.4006 28.6354 69.4521C28.7384 69.4993 28.8521 69.5229 28.9765 69.5229C29.1009 69.5229 29.2124 69.4993 29.3111 69.4521C29.4141 69.4006 29.4934 69.3276 29.5492 69.2331C29.6093 69.1344 29.6393 69.0121 29.6393 68.8661C29.6393 68.7159 29.6093 68.5935 29.5492 68.4991C29.4934 68.4004 29.4141 68.3274 29.3111 68.2802C29.2124 68.2286 29.1009 68.2029 28.9765 68.2029Z" fill="#3D5A47"/>
<path d="M25.2478 72.3754V67.8385H26.6241V72.3754H25.2478Z" fill="#3D5A47"/>
<path d="M18.9255 72.3754L20.9554 67.8385H22.2783V68.8823H21.8258L20.3772 72.3754H18.9255ZM20.0473 71.4165L20.4212 70.5173H23.2115L23.5823 71.4165H20.0473ZM23.2963 72.3754L21.8478 68.8823V67.8385H22.7182L24.748 72.3754H23.2963Z" fill="#3D5A47"/>
<path d="M15.9171 70.5789C16.3376 70.5789 16.7022 70.6283 17.0111 70.727C17.32 70.8215 17.5581 70.9588 17.7254 71.1391C17.897 71.3194 17.9828 71.5362 17.9828 71.7895C17.9828 72.0427 17.897 72.2595 17.7254 72.4398C17.5581 72.6201 17.32 72.7575 17.0111 72.8519C16.7022 72.9506 16.3376 73 15.9171 73C15.4924 73 15.1234 72.9506 14.8103 72.8519C14.4971 72.7575 14.2547 72.6201 14.0831 72.4398C13.9158 72.2595 13.8321 72.0427 13.8321 71.7895C13.8321 71.5362 13.9158 71.3194 14.0831 71.1391C14.2547 70.9588 14.4971 70.8215 14.8103 70.727C15.1234 70.6283 15.4924 70.5789 15.9171 70.5789ZM15.9171 71.3902C15.6812 71.3902 15.486 71.4031 15.3315 71.4289C15.1771 71.4546 15.0612 71.4976 14.984 71.5577C14.9068 71.6135 14.8682 71.6907 14.8682 71.7895C14.8682 71.8882 14.9068 71.9676 14.984 72.0277C15.0612 72.0878 15.1771 72.1329 15.3315 72.1629C15.486 72.1887 15.6812 72.2016 15.9171 72.2016C16.1488 72.2016 16.3397 72.1887 16.4899 72.1629C16.6443 72.1329 16.7601 72.0878 16.8374 72.0277C16.9146 71.9676 16.9532 71.8882 16.9532 71.7895C16.9532 71.6907 16.9146 71.6135 16.8374 71.5577C16.7601 71.4976 16.6443 71.4546 16.4899 71.4289C16.3397 71.4031 16.1488 71.3902 15.9171 71.3902ZM16.8695 66.9473H17.9056V70.463H16.8695V66.9473ZM17.6225 68.2866H18.6585V69.1366H17.6225V68.2866ZM13.2529 67.3272H14.2826V67.9904H15.1835V67.3272H16.2131V70.199H13.2529V67.3272ZM14.2826 68.7824V69.3941H15.1835V68.7824H14.2826Z" fill="#3D5A47"/>
<path d="M7.86074 67.1855H11.6511V68.0033H7.86074V67.1855ZM7.20435 69.2267H12.6679V70.0509H7.20435V69.2267ZM9.41163 69.8127H10.4477V70.9975H9.41163V69.8127ZM11.0397 67.1855H12.0629V67.6878C12.0629 67.9539 12.0544 68.2437 12.0372 68.5571C12.0243 68.8662 11.9729 69.2139 11.8828 69.6002L10.8596 69.5101C10.9497 69.128 11.0011 68.7953 11.014 68.512C11.0312 68.2244 11.0397 67.9497 11.0397 67.6878V67.1855ZM7.7449 70.7657H12.0565V72.9872H11.0204V71.577H7.7449V70.7657Z" fill="#3D5A47"/>
</svg>
