<svg width="402" height="100" viewBox="0 0 402 100" fill="none" xmlns="http://www.w3.org/2000/svg">
<g filter="url(#filter0_n_388_3775)">
<rect width="402" height="100" fill="#566E5E"/>
<rect width="402" height="100" fill="url(#paint0_linear_388_3775)" fill-opacity="0.2"/>
<path d="M16.2925 50.7338C15.865 50.338 15.865 49.662 16.2925 49.2662L27.3206 39.055C27.9608 38.4622 29 38.9163 29 39.7888L29 60.2112C29 61.0837 27.9608 61.5378 27.3206 60.945L16.2925 50.7338Z" fill="#F9F9F3"/>
<g filter="url(#filter1_d_388_3775)">
<g filter="url(#filter2_d_388_3775)">
<path d="M73.0277 20.7337C73.2541 20.4947 73.6215 20.4947 73.848 20.7337L74.1097 21.0091C74.2736 21.1821 74.3235 21.442 74.2376 21.6693L73.6556 23.2103C73.5699 23.4374 73.6207 23.6966 73.7845 23.8695L76.0521 26.263C76.2564 26.4787 76.582 26.4974 76.807 26.306C77.0358 26.1115 77.3676 26.1345 77.5706 26.3587L89.346 39.3616C89.5636 39.6021 89.5589 39.9819 89.3363 40.2171L88.7025 40.887C88.476 41.126 88.4761 41.5132 88.7025 41.7523L89.7064 42.8128C89.8989 43.0161 90.1997 43.0507 90.429 42.8958L91.9466 41.8695C92.1759 41.7144 92.4766 41.7484 92.6693 41.9515L104.001 53.9134L109.577 59.8001L114.74 65.2493C114.968 65.4904 114.966 65.8823 114.735 66.1204L105.16 75.9837C104.83 76.3234 104.275 76.1406 104.186 75.6634L101.951 63.6663C101.929 63.5471 101.875 63.4368 101.793 63.3509L99.9378 61.3929C99.7114 61.1539 99.3439 61.1539 99.1175 61.3929L98.8773 61.6468L91.7005 69.223C91.4741 69.4619 91.1066 69.4618 90.8802 69.223L87.8617 66.0364C87.6352 65.7974 87.6352 65.4093 87.8617 65.1702L94.055 58.6331C94.2814 58.3941 94.2814 58.0059 94.055 57.7669L90.7904 54.3206C90.6441 54.1662 90.4307 54.1062 90.2308 54.1624L80.0404 57.0325C79.7314 57.1195 79.4145 56.9259 79.3314 56.5999L78.0267 51.4837C77.9472 51.1719 78.111 50.848 78.4007 50.7445L85.0999 48.3529C85.5072 48.2074 85.6285 47.6611 85.3245 47.3402L84.3665 46.3294C84.1401 46.0904 83.7727 46.0904 83.5462 46.3294L82.4945 47.4398C82.225 47.7241 81.7731 47.661 81.5824 47.3128L72.9495 31.5501C72.8183 31.3102 72.8558 31.0068 73.0413 30.8109L74.2679 29.5169C74.4942 29.278 74.4941 28.8907 74.2679 28.6517L69.221 23.3236C68.9947 23.0845 68.9946 22.6973 69.221 22.4583L70.1351 21.4935C70.3615 21.2545 70.729 21.2545 70.9554 21.4935L71.222 21.7747C71.4484 22.0134 71.815 22.0135 72.0413 21.7747L73.0277 20.7337Z" fill="#F7F7ED"/>
</g>
</g>
<path d="M160.855 47.3223C159.254 47.3223 157.874 47.1497 156.715 46.8047C155.556 46.4596 154.641 45.9551 153.971 45.291C153.307 44.627 152.906 43.8197 152.77 42.8691L152.76 42.7324H156.881L156.9 42.8105C156.985 43.1361 157.19 43.416 157.516 43.6504C157.848 43.8783 158.297 44.054 158.863 44.1777C159.436 44.2949 160.126 44.3535 160.934 44.3535C161.598 44.3535 162.164 44.2949 162.633 44.1777C163.108 44.054 163.473 43.8815 163.727 43.6602C163.987 43.4323 164.117 43.1654 164.117 42.8594V42.8496C164.117 42.4655 163.951 42.1823 163.619 42C163.294 41.8112 162.717 41.668 161.891 41.5703L158.355 41.3066C156.565 41.1309 155.237 40.7044 154.371 40.0273C153.512 39.3503 153.082 38.4095 153.082 37.2051V37.1855C153.082 36.2285 153.375 35.4082 153.961 34.7246C154.547 34.0345 155.383 33.5072 156.471 33.1426C157.558 32.7715 158.85 32.5859 160.348 32.5859C161.865 32.5859 163.167 32.7617 164.254 33.1133C165.341 33.4583 166.201 33.9564 166.832 34.6074C167.464 35.2585 167.851 36.0397 167.994 36.9512L168.023 37.1074H163.922L163.902 37.0195C163.811 36.694 163.622 36.4238 163.336 36.209C163.049 35.9941 162.659 35.8314 162.164 35.7207C161.676 35.61 161.083 35.5547 160.387 35.5547C159.723 35.5547 159.163 35.61 158.707 35.7207C158.258 35.8249 157.916 35.9811 157.682 36.1895C157.447 36.3913 157.33 36.6354 157.33 36.9219V36.9316C157.33 37.3027 157.503 37.5859 157.848 37.7812C158.199 37.9766 158.775 38.1165 159.576 38.2012L163.17 38.4746C164.348 38.5918 165.318 38.8132 166.08 39.1387C166.848 39.4642 167.421 39.9069 167.799 40.4668C168.176 41.0267 168.365 41.7103 168.365 42.5176V42.5273C168.365 43.5234 168.069 44.3796 167.477 45.0957C166.884 45.8118 166.028 46.362 164.908 46.7461C163.788 47.1302 162.438 47.3223 160.855 47.3223ZM177.242 47.2734C175.797 47.2734 174.55 47.0488 173.502 46.5996C172.46 46.1504 171.656 45.5026 171.09 44.6562C170.53 43.8099 170.25 42.7975 170.25 41.6191V41.5996C170.25 40.4147 170.53 39.4023 171.09 38.5625C171.656 37.7227 172.46 37.0781 173.502 36.6289C174.55 36.1797 175.797 35.9551 177.242 35.9551C178.499 35.9551 179.602 36.1374 180.553 36.502C181.51 36.86 182.275 37.3776 182.848 38.0547C183.427 38.7253 183.775 39.526 183.893 40.457L183.902 40.5449H179.996L179.977 40.4766C179.84 39.9232 179.537 39.5 179.068 39.207C178.606 38.9141 178.033 38.7676 177.35 38.7676C176.738 38.7676 176.214 38.8783 175.777 39.0996C175.348 39.321 175.016 39.6432 174.781 40.0664C174.553 40.4831 174.439 40.9941 174.439 41.5996V41.6191C174.439 42.2246 174.553 42.7389 174.781 43.1621C175.016 43.5853 175.348 43.9076 175.777 44.1289C176.214 44.3503 176.738 44.4609 177.35 44.4609C178.033 44.4609 178.606 44.321 179.068 44.041C179.531 43.7546 179.833 43.3314 179.977 42.7715L179.996 42.7031H183.902L183.893 42.8008C183.775 43.7122 183.427 44.5033 182.848 45.1738C182.268 45.8444 181.5 46.362 180.543 46.7266C179.592 47.0911 178.492 47.2734 177.242 47.2734ZM186.09 47V32.5078H190.221V38.2891H190.318C190.676 37.5664 191.223 36.9967 191.959 36.5801C192.701 36.1634 193.606 35.9551 194.674 35.9551C195.683 35.9551 196.542 36.1406 197.252 36.5117C197.968 36.8763 198.512 37.4134 198.883 38.123C199.26 38.8262 199.449 39.6823 199.449 40.6914V47H195.328V41.5898C195.328 40.7174 195.123 40.0566 194.713 39.6074C194.303 39.1582 193.697 38.9336 192.896 38.9336C192.343 38.9336 191.865 39.0443 191.461 39.2656C191.064 39.487 190.758 39.8027 190.543 40.2129C190.328 40.6165 190.221 41.0983 190.221 41.6582V47H186.09ZM208.6 47.2734C207.141 47.2734 205.885 47.0521 204.83 46.6094C203.775 46.1667 202.962 45.5254 202.389 44.6855C201.822 43.8457 201.539 42.8333 201.539 41.6484V41.6387C201.539 40.4603 201.829 39.4479 202.408 38.6016C202.988 37.7487 203.795 37.0944 204.83 36.6387C205.872 36.1764 207.083 35.9486 208.463 35.9551C209.869 35.9551 211.087 36.1927 212.115 36.668C213.144 37.1432 213.938 37.8138 214.498 38.6797C215.058 39.5391 215.338 40.5514 215.338 41.7168V42.459L203.678 42.4492V40.457H212.652L211.5 41.8926V41.1992C211.5 40.6393 211.383 40.1608 211.148 39.7637C210.921 39.36 210.589 39.054 210.152 38.8457C209.716 38.6309 209.186 38.5234 208.561 38.5234C207.923 38.5234 207.372 38.6276 206.91 38.8359C206.454 39.0443 206.106 39.3535 205.865 39.7637C205.624 40.1673 205.504 40.6719 205.504 41.2773V41.8926C205.504 42.5632 205.637 43.1068 205.904 43.5234C206.171 43.9401 206.546 44.2461 207.027 44.4414C207.516 44.6302 208.085 44.7246 208.736 44.7246C209.153 44.7246 209.534 44.679 209.879 44.5879C210.23 44.4902 210.533 44.3633 210.787 44.207C211.041 44.0443 211.233 43.8587 211.363 43.6504L211.393 43.6016L215.191 43.5918L215.172 43.6992C215.022 44.2331 214.762 44.7181 214.391 45.1543C214.026 45.5905 213.561 45.9681 212.994 46.2871C212.428 46.5996 211.773 46.8405 211.031 47.0098C210.296 47.1855 209.485 47.2734 208.6 47.2734ZM222.643 47.2441C221.523 47.2441 220.54 47.013 219.693 46.5508C218.847 46.0885 218.186 45.4375 217.711 44.5977C217.242 43.7513 217.008 42.7585 217.008 41.6191V41.5996C217.008 40.4538 217.242 39.4609 217.711 38.6211C218.18 37.7747 218.837 37.1237 219.684 36.668C220.53 36.2057 221.516 35.9746 222.643 35.9746C223.365 35.9746 224.016 36.069 224.596 36.2578C225.175 36.4401 225.676 36.694 226.1 37.0195C226.529 37.3451 226.871 37.7227 227.125 38.1523H227.223V32.498H231.354V47H227.223V45.0957H227.125C226.871 45.5189 226.533 45.8932 226.109 46.2188C225.686 46.5378 225.185 46.7884 224.605 46.9707C224.026 47.153 223.372 47.2441 222.643 47.2441ZM224.195 44.3633C224.814 44.3633 225.348 44.2526 225.797 44.0312C226.253 43.8099 226.604 43.4941 226.852 43.084C227.105 42.6738 227.232 42.1888 227.232 41.6289V41.5996C227.232 41.0332 227.105 40.5449 226.852 40.1348C226.604 39.7246 226.253 39.4121 225.797 39.1973C225.348 38.9759 224.814 38.8652 224.195 38.8652C223.59 38.8652 223.062 38.9759 222.613 39.1973C222.164 39.4121 221.816 39.7246 221.568 40.1348C221.321 40.5384 221.197 41.0267 221.197 41.5996V41.6289C221.197 42.1953 221.321 42.6836 221.568 43.0938C221.816 43.5039 222.164 43.8197 222.613 44.041C223.062 44.2559 223.59 44.3633 224.195 44.3633ZM238.824 47.2734C237.828 47.2734 236.975 47.0911 236.266 46.7266C235.562 46.362 235.022 45.8281 234.645 45.125C234.267 44.4219 234.078 43.5658 234.078 42.5566V36.2285H238.209V41.668C238.209 42.5143 238.411 43.1621 238.814 43.6113C239.218 44.0605 239.811 44.2852 240.592 44.2852C241.002 44.2852 241.37 44.2233 241.695 44.0996C242.021 43.9759 242.301 43.7969 242.535 43.5625C242.77 43.3281 242.949 43.0449 243.072 42.7129C243.202 42.3743 243.268 41.9935 243.268 41.5703V36.2285H247.398V47H243.268V44.9492H243.17C242.929 45.418 242.604 45.8281 242.193 46.1797C241.783 46.5247 241.295 46.7949 240.729 46.9902C240.169 47.179 239.534 47.2734 238.824 47.2734ZM250.211 47V32.5078H254.342V47H250.211ZM263.697 47.2734C262.239 47.2734 260.982 47.0521 259.928 46.6094C258.873 46.1667 258.059 45.5254 257.486 44.6855C256.92 43.8457 256.637 42.8333 256.637 41.6484V41.6387C256.637 40.4603 256.926 39.4479 257.506 38.6016C258.085 37.7487 258.893 37.0944 259.928 36.6387C260.969 36.1764 262.18 35.9486 263.561 35.9551C264.967 35.9551 266.184 36.1927 267.213 36.668C268.242 37.1432 269.036 37.8138 269.596 38.6797C270.156 39.5391 270.436 40.5514 270.436 41.7168V42.459L258.775 42.4492V40.457H267.75L266.598 41.8926V41.1992C266.598 40.6393 266.48 40.1608 266.246 39.7637C266.018 39.36 265.686 39.054 265.25 38.8457C264.814 38.6309 264.283 38.5234 263.658 38.5234C263.02 38.5234 262.47 38.6276 262.008 38.8359C261.552 39.0443 261.204 39.3535 260.963 39.7637C260.722 40.1673 260.602 40.6719 260.602 41.2773V41.8926C260.602 42.5632 260.735 43.1068 261.002 43.5234C261.269 43.9401 261.643 44.2461 262.125 44.4414C262.613 44.6302 263.183 44.7246 263.834 44.7246C264.251 44.7246 264.632 44.679 264.977 44.5879C265.328 44.4902 265.631 44.3633 265.885 44.207C266.139 44.0443 266.331 43.8587 266.461 43.6504L266.49 43.6016L270.289 43.5918L270.27 43.6992C270.12 44.2331 269.859 44.7181 269.488 45.1543C269.124 45.5905 268.658 45.9681 268.092 46.2871C267.525 46.5996 266.871 46.8405 266.129 47.0098C265.393 47.1855 264.583 47.2734 263.697 47.2734Z" fill="#F9F9F3"/>
<path d="M168.704 66.425H181.274V68H168.704V66.425ZM173.939 67.22H175.934V72.335H173.939V67.22ZM170.129 58.97H172.109V60.545H177.824V58.97H179.789V65.105H170.129V58.97ZM172.109 62.105V63.53H177.824V62.105H172.109ZM192.523 58.43H194.428V72.32H192.523V58.43ZM190.678 63.785H192.988V65.39H190.678V63.785ZM189.418 58.67H191.263V71.675H189.418V58.67ZM182.893 67.55H183.853C184.433 67.55 184.983 67.545 185.503 67.535C186.023 67.515 186.538 67.48 187.048 67.43C187.568 67.37 188.098 67.295 188.638 67.205L188.803 68.825C188.243 68.925 187.698 69.005 187.168 69.065C186.638 69.125 186.103 69.165 185.563 69.185C185.023 69.195 184.453 69.2 183.853 69.2H182.893V67.55ZM182.893 60.05H188.008V61.655H184.858V68.345H182.893V60.05ZM200.202 58.835C200.922 58.835 201.557 58.975 202.107 59.255C202.667 59.525 203.107 59.9 203.427 60.38C203.757 60.85 203.922 61.395 203.922 62.015C203.922 62.635 203.757 63.185 203.427 63.665C203.107 64.135 202.667 64.505 202.107 64.775C201.557 65.045 200.922 65.18 200.202 65.18C199.502 65.18 198.872 65.045 198.312 64.775C197.752 64.505 197.307 64.135 196.977 63.665C196.657 63.185 196.497 62.635 196.497 62.015C196.497 61.395 196.657 60.845 196.977 60.365C197.307 59.885 197.752 59.51 198.312 59.24C198.872 58.97 199.502 58.835 200.202 58.835ZM200.217 60.455C199.877 60.455 199.572 60.52 199.302 60.65C199.032 60.77 198.817 60.945 198.657 61.175C198.507 61.405 198.432 61.685 198.432 62.015C198.432 62.345 198.507 62.63 198.657 62.87C198.817 63.1 199.027 63.275 199.287 63.395C199.557 63.515 199.867 63.575 200.217 63.575C200.557 63.575 200.857 63.515 201.117 63.395C201.387 63.275 201.597 63.1 201.747 62.87C201.907 62.63 201.987 62.345 201.987 62.015C201.987 61.685 201.907 61.405 201.747 61.175C201.597 60.945 201.387 60.77 201.117 60.65C200.847 60.52 200.547 60.455 200.217 60.455ZM205.842 58.445H207.837V65.39H205.842V58.445ZM198.582 65.96H207.837V69.755H200.562V71.45H198.597V68.315H205.857V67.49H198.582V65.96ZM198.597 70.625H208.182V72.185H198.597V70.625ZM217.631 61.79H220.271V63.41H217.631V61.79ZM219.716 58.445H221.726V66.695H219.716V58.445ZM217.016 66.995C217.996 66.995 218.841 67.1 219.551 67.31C220.261 67.52 220.806 67.825 221.186 68.225C221.576 68.625 221.771 69.105 221.771 69.665C221.771 70.525 221.346 71.185 220.496 71.645C219.646 72.115 218.486 72.35 217.016 72.35C215.546 72.35 214.386 72.115 213.536 71.645C212.686 71.185 212.261 70.525 212.261 69.665C212.261 69.105 212.451 68.625 212.831 68.225C213.221 67.825 213.771 67.52 214.481 67.31C215.191 67.1 216.036 66.995 217.016 66.995ZM217.016 68.51C216.416 68.51 215.911 68.555 215.501 68.645C215.091 68.725 214.776 68.85 214.556 69.02C214.346 69.19 214.241 69.405 214.241 69.665C214.241 69.925 214.346 70.145 214.556 70.325C214.776 70.495 215.091 70.625 215.501 70.715C215.911 70.795 216.416 70.835 217.016 70.835C217.616 70.835 218.121 70.795 218.531 70.715C218.941 70.625 219.251 70.495 219.461 70.325C219.671 70.145 219.776 69.925 219.776 69.665C219.776 69.405 219.671 69.19 219.461 69.02C219.251 68.85 218.941 68.725 218.531 68.645C218.121 68.555 217.616 68.51 217.016 68.51ZM213.311 59.825H214.931V60.71C214.931 61.59 214.791 62.43 214.511 63.23C214.231 64.03 213.801 64.735 213.221 65.345C212.651 65.945 211.921 66.395 211.031 66.695L210.026 65.12C210.596 64.93 211.086 64.675 211.496 64.355C211.916 64.035 212.256 63.68 212.516 63.29C212.786 62.89 212.986 62.47 213.116 62.03C213.246 61.59 213.311 61.15 213.311 60.71V59.825ZM213.731 59.825H215.321V60.695C215.321 61.245 215.431 61.785 215.651 62.315C215.871 62.845 216.211 63.325 216.671 63.755C217.141 64.185 217.741 64.525 218.471 64.775L217.496 66.335C216.636 66.045 215.926 65.62 215.366 65.06C214.816 64.49 214.406 63.83 214.136 63.08C213.866 62.32 213.731 61.525 213.731 60.695V59.825ZM210.566 59.285H218.036V60.86H210.566V59.285ZM235.008 60.47H238.428V62.06H235.008V60.47ZM237.543 58.445H239.553V65.495H237.543V58.445ZM230.373 66.065H239.553V69.815H232.368V71.555H230.388V68.375H237.573V67.61H230.373V66.065ZM230.388 70.625H239.943V72.185H230.388V70.625ZM231.093 58.88H232.713V59.885C232.713 60.745 232.573 61.56 232.293 62.33C232.023 63.1 231.603 63.77 231.033 64.34C230.463 64.9 229.733 65.32 228.843 65.6L227.823 64.04C228.593 63.8 229.218 63.47 229.698 63.05C230.178 62.62 230.528 62.13 230.748 61.58C230.978 61.03 231.093 60.465 231.093 59.885V58.88ZM231.498 58.88H233.103V59.885C233.103 60.285 233.163 60.685 233.283 61.085C233.413 61.485 233.603 61.86 233.853 62.21C234.103 62.56 234.423 62.87 234.813 63.14C235.213 63.41 235.683 63.63 236.223 63.8L235.203 65.33C234.363 65.06 233.668 64.655 233.118 64.115C232.568 63.575 232.158 62.94 231.888 62.21C231.628 61.48 231.498 60.705 231.498 59.885V58.88ZM249.257 61.79H251.897V63.41H249.257V61.79ZM251.342 58.445H253.352V66.695H251.342V58.445ZM248.642 66.995C249.622 66.995 250.467 67.1 251.177 67.31C251.887 67.52 252.432 67.825 252.812 68.225C253.202 68.625 253.397 69.105 253.397 69.665C253.397 70.525 252.972 71.185 252.122 71.645C251.272 72.115 250.112 72.35 248.642 72.35C247.172 72.35 246.012 72.115 245.162 71.645C244.312 71.185 243.887 70.525 243.887 69.665C243.887 69.105 244.077 68.625 244.457 68.225C244.847 67.825 245.397 67.52 246.107 67.31C246.817 67.1 247.662 66.995 248.642 66.995ZM248.642 68.51C248.042 68.51 247.537 68.555 247.127 68.645C246.717 68.725 246.402 68.85 246.182 69.02C245.972 69.19 245.867 69.405 245.867 69.665C245.867 69.925 245.972 70.145 246.182 70.325C246.402 70.495 246.717 70.625 247.127 70.715C247.537 70.795 248.042 70.835 248.642 70.835C249.242 70.835 249.747 70.795 250.157 70.715C250.567 70.625 250.877 70.495 251.087 70.325C251.297 70.145 251.402 69.925 251.402 69.665C251.402 69.405 251.297 69.19 251.087 69.02C250.877 68.85 250.567 68.725 250.157 68.645C249.747 68.555 249.242 68.51 248.642 68.51ZM244.937 59.825H246.557V60.71C246.557 61.59 246.417 62.43 246.137 63.23C245.857 64.03 245.427 64.735 244.847 65.345C244.277 65.945 243.547 66.395 242.657 66.695L241.652 65.12C242.222 64.93 242.712 64.675 243.122 64.355C243.542 64.035 243.882 63.68 244.142 63.29C244.412 62.89 244.612 62.47 244.742 62.03C244.872 61.59 244.937 61.15 244.937 60.71V59.825ZM245.357 59.825H246.947V60.695C246.947 61.245 247.057 61.785 247.277 62.315C247.497 62.845 247.837 63.325 248.297 63.755C248.767 64.185 249.367 64.525 250.097 64.775L249.122 66.335C248.262 66.045 247.552 65.62 246.992 65.06C246.442 64.49 246.032 63.83 245.762 63.08C245.492 62.32 245.357 61.525 245.357 60.695V59.825ZM242.192 59.285H249.662V60.86H242.192V59.285Z" fill="#F9F9F3"/>
<path d="M340.5 37.5C345.222 37.5 349.05 41.328 349.05 46.05V55.45H350.5C351.881 55.45 353 56.5693 353 57.95C353 59.3307 351.881 60.45 350.5 60.45H344.22C343.441 61.682 342.066 62.5 340.5 62.5C338.934 62.5 337.559 61.682 336.78 60.45H330.5C329.119 60.45 328 59.3307 328 57.95C328 56.5693 329.119 55.45 330.5 55.45H331.95V46.05C331.95 41.328 335.778 37.5 340.5 37.5Z" fill="#D8D8CF"/>
</g>
<defs>
<filter id="filter0_n_388_3775" x="0" y="0" width="402" height="100" filterUnits="userSpaceOnUse" color-interpolation-filters="sRGB">
<feFlood flood-opacity="0" result="BackgroundImageFix"/>
<feBlend mode="normal" in="SourceGraphic" in2="BackgroundImageFix" result="shape"/>
<feTurbulence type="fractalNoise" baseFrequency="1.6666666269302368 1.6666666269302368" stitchTiles="stitch" numOctaves="3" result="noise" seed="7754" />
<feColorMatrix in="noise" type="luminanceToAlpha" result="alphaNoise" />
<feComponentTransfer in="alphaNoise" result="coloredNoise1">
<feFuncA type="discrete" tableValues="1 1 1 1 1 1 1 1 1 1 1 1 1 1 1 1 1 1 1 1 1 1 1 1 1 1 1 1 1 1 1 1 1 1 1 1 1 1 1 1 1 1 1 1 1 1 1 1 1 1 1 0 0 0 0 0 0 0 0 0 0 0 0 0 0 0 0 0 0 0 0 0 0 0 0 0 0 0 0 0 0 0 0 0 0 0 0 0 0 0 0 0 0 0 0 0 0 0 0 0 "/>
</feComponentTransfer>
<feComposite operator="in" in2="shape" in="coloredNoise1" result="noise1Clipped" />
<feFlood flood-color="rgba(0, 0, 0, 0.25)" result="color1Flood" />
<feComposite operator="in" in2="noise1Clipped" in="color1Flood" result="color1" />
<feMerge result="effect1_noise_388_3775">
<feMergeNode in="shape" />
<feMergeNode in="color1" />
</feMerge>
</filter>
<filter id="filter1_d_388_3775" x="57" y="19" width="70" height="70" filterUnits="userSpaceOnUse" color-interpolation-filters="sRGB">
<feFlood flood-opacity="0" result="BackgroundImageFix"/>
<feColorMatrix in="SourceAlpha" type="matrix" values="0 0 0 0 0 0 0 0 0 0 0 0 0 0 0 0 0 0 127 0" result="hardAlpha"/>
<feOffset dy="4"/>
<feGaussianBlur stdDeviation="2"/>
<feComposite in2="hardAlpha" operator="out"/>
<feColorMatrix type="matrix" values="0 0 0 0 0 0 0 0 0 0 0 0 0 0 0 0 0 0 0.25 0"/>
<feBlend mode="normal" in2="BackgroundImageFix" result="effect1_dropShadow_388_3775"/>
<feBlend mode="normal" in="SourceGraphic" in2="effect1_dropShadow_388_3775" result="shape"/>
</filter>
<filter id="filter2_d_388_3775" x="65.0513" y="20.5544" width="53.8582" height="63.6038" filterUnits="userSpaceOnUse" color-interpolation-filters="sRGB">
<feFlood flood-opacity="0" result="BackgroundImageFix"/>
<feColorMatrix in="SourceAlpha" type="matrix" values="0 0 0 0 0 0 0 0 0 0 0 0 0 0 0 0 0 0 127 0" result="hardAlpha"/>
<feOffset dy="4"/>
<feGaussianBlur stdDeviation="2"/>
<feComposite in2="hardAlpha" operator="out"/>
<feColorMatrix type="matrix" values="0 0 0 0 0 0 0 0 0 0 0 0 0 0 0 0 0 0 0.25 0"/>
<feBlend mode="normal" in2="BackgroundImageFix" result="effect1_dropShadow_388_3775"/>
<feBlend mode="normal" in="SourceGraphic" in2="effect1_dropShadow_388_3775" result="shape"/>
</filter>
<linearGradient id="paint0_linear_388_3775" x1="201" y1="0" x2="201" y2="100" gradientUnits="userSpaceOnUse">
<stop/>
<stop offset="0.05" stop-color="#566E5E"/>
</linearGradient>
</defs>
</svg>
