<svg width="35" height="35" viewBox="0 0 35 35" fill="none" xmlns="http://www.w3.org/2000/svg">
<path d="M34.9969 11.2245H35V35H0.0018457V11.2253H0L17.4991 0L34.9969 11.2245ZM2.45 31.8499C2.0634 31.8499 1.75 32.1633 1.75 32.5499C1.75 32.9365 2.0634 33.2499 2.45 33.2499H32.55C32.9366 33.2499 33.25 32.9365 33.25 32.5499C33.25 32.1633 32.9366 31.8499 32.55 31.8499H2.45ZM2.45 11.97C2.0634 11.97 1.75 12.2834 1.75 12.67C1.75 13.0566 2.0634 13.37 2.45 13.37H32.55C32.9366 13.37 33.25 13.0566 33.25 12.67C33.25 12.2834 32.9366 11.97 32.55 11.97H2.45Z" fill="#3D5A47"/>
</svg>
