<svg width="78" height="78" viewBox="0 0 78 78" fill="none" xmlns="http://www.w3.org/2000/svg">
<g filter="url(#filter0_d_426_3833)">
<path d="M71.4821 61.285C73.0987 63.9397 74 66.8909 74 70H4C4 66.8909 4.90126 63.9397 6.51795 61.285H71.4821ZM20.24 57.715H9.2891C12.0897 54.8079 15.8579 52.4598 20.24 50.9366V57.715ZM46 49C48.4171 49 50.7627 49.2297 53 49.6616V57.715H25V49.6616C27.2373 49.2297 29.5829 49 32 49H46ZM57.76 50.9366C62.1421 52.4598 65.9103 54.8079 68.7109 57.715H57.76V50.9366ZM38.93 0C49.5615 0 58.18 8.61852 58.18 19.25V20.44H63.5C65.433 20.44 67 22.007 67 23.94C67 25.873 65.433 27.44 63.5 27.44H59.3V36.54C59.3 37.3132 58.6732 37.94 57.9 37.94C57.1268 37.94 56.5 37.3132 56.5 36.54V27.44C56.5 37.105 48.665 44.94 39 44.94C29.335 44.94 21.5 37.105 21.5 27.44V36.54C21.5 37.3132 20.8732 37.94 20.1 37.94C19.3268 37.94 18.7 37.3132 18.7 36.54V27.44H14.5C12.567 27.44 11 25.873 11 23.94C11 22.007 12.567 20.44 14.5 20.44H19.68V19.25C19.68 8.61852 28.2985 0 38.93 0Z" fill="#F7F7ED"/>
</g>
<defs>
<filter id="filter0_d_426_3833" x="0" y="0" width="78" height="78" filterUnits="userSpaceOnUse" color-interpolation-filters="sRGB">
<feFlood flood-opacity="0" result="BackgroundImageFix"/>
<feColorMatrix in="SourceAlpha" type="matrix" values="0 0 0 0 0 0 0 0 0 0 0 0 0 0 0 0 0 0 127 0" result="hardAlpha"/>
<feOffset dy="4"/>
<feGaussianBlur stdDeviation="2"/>
<feComposite in2="hardAlpha" operator="out"/>
<feColorMatrix type="matrix" values="0 0 0 0 0 0 0 0 0 0 0 0 0 0 0 0 0 0 0.25 0"/>
<feBlend mode="normal" in2="BackgroundImageFix" result="effect1_dropShadow_426_3833"/>
<feBlend mode="normal" in="SourceGraphic" in2="effect1_dropShadow_426_3833" result="shape"/>
</filter>
</defs>
</svg>
