<svg width="30" height="30" viewBox="0 0 30 30" fill="none" xmlns="http://www.w3.org/2000/svg">
<path d="M5.43069 3.81336C8.54552 -0.805481 14.4627 -1.28247 18.2504 2.67762C20.7445 5.28812 21.596 9.3657 20.4214 12.8733C21.3284 12.449 23.5324 11.2444 26.3164 8.54104C28.2492 10.1655 28.58 14.3399 27.03 16.2352C27.03 16.2352 28.175 15.5362 28.9927 14.2592C30.4461 16.6879 29.4237 20.0623 28.1934 21.1898C27.2233 22.0787 26.1935 22.7332 24.9112 22.8989H24.9152C26.573 24.7901 28.3943 26.2935 30 26.5966C25.9187 29.797 19.7635 30.8394 15.1098 29.2998C10.3111 27.7359 7.89857 24.7659 5.765 20.7774C4.83576 19.0397 3.94364 15.9482 3.61284 13.2731L0 12.2308L2.16705 10.9578L0 8.40371H3.6985C3.97728 6.78735 4.52749 5.15495 5.43069 3.81336ZM10.4447 6.68628C9.79053 6.68636 9.25914 7.26437 9.25914 7.97554C9.25915 8.13105 9.28445 8.2802 9.33101 8.41831C9.33766 8.43804 9.34493 8.45746 9.35243 8.47672C9.35994 8.49601 9.36768 8.51514 9.37602 8.53394C9.40101 8.59027 9.42972 8.64431 9.46169 8.69574C9.67487 9.03871 10.0358 9.26435 10.4447 9.2644C10.8536 9.2644 11.2148 9.03877 11.428 8.69574C11.46 8.64431 11.4887 8.59027 11.5137 8.53394C11.522 8.51514 11.5298 8.49601 11.5373 8.47672C11.5448 8.45746 11.552 8.43804 11.5587 8.41831C11.6052 8.28021 11.6305 8.13104 11.6305 7.97554C11.6305 7.79772 11.5973 7.62816 11.5373 7.47396L11.5137 7.41674C11.5053 7.3979 11.4963 7.37942 11.4872 7.3611C11.2862 6.9594 10.8943 6.68628 10.4447 6.68628Z" fill="#3D5A47"/>
</svg>
