<svg width="65" height="82" viewBox="0 0 65 82" fill="none" xmlns="http://www.w3.org/2000/svg">
<path d="M17.2594 69.1289C16.6292 69.1289 16.0875 69.0612 15.6344 68.9258C15.1839 68.7904 14.8271 68.5924 14.5641 68.332C14.3037 68.0716 14.1474 67.7565 14.0953 67.3867L14.0875 67.332H15.5446L15.5524 67.3672C15.5888 67.5156 15.6774 67.6406 15.818 67.7422C15.9612 67.8438 16.1552 67.9219 16.4 67.9766C16.6474 68.0312 16.9469 68.0586 17.2985 68.0586C17.5875 68.0586 17.8362 68.0312 18.0446 67.9766C18.2529 67.9193 18.413 67.8385 18.525 67.7344C18.637 67.6302 18.693 67.5078 18.693 67.3672V67.3633C18.693 67.1836 18.6175 67.0495 18.4664 66.9609C18.318 66.8724 18.0602 66.8086 17.693 66.7695L16.2985 66.6562C15.5901 66.5859 15.0667 66.418 14.7281 66.1523C14.3896 65.8841 14.2203 65.513 14.2203 65.0391V65.0312C14.2203 64.6589 14.3349 64.3385 14.5641 64.0703C14.7933 63.8021 15.1188 63.5964 15.5406 63.4531C15.9651 63.3073 16.4677 63.2344 17.0485 63.2344C17.6422 63.2344 18.1526 63.3034 18.5797 63.4414C19.0068 63.5768 19.344 63.7734 19.5914 64.0312C19.8388 64.2891 19.9899 64.5964 20.0446 64.9531L20.0563 65.0078H18.611L18.5992 64.9727C18.5576 64.8268 18.4742 64.7044 18.3492 64.6055C18.2242 64.5065 18.0537 64.4323 17.8375 64.3828C17.624 64.3307 17.3649 64.3047 17.0602 64.3047C16.7711 64.3047 16.5263 64.3307 16.3258 64.3828C16.1253 64.4323 15.9729 64.5052 15.8688 64.6016C15.7672 64.6953 15.7164 64.8086 15.7164 64.9414V64.9453C15.7164 65.1172 15.7933 65.2487 15.9469 65.3398C16.1005 65.431 16.3558 65.4961 16.7125 65.5352L18.1227 65.6445C18.594 65.694 18.9808 65.7839 19.2828 65.9141C19.5875 66.0443 19.8141 66.2201 19.9625 66.4414C20.111 66.6602 20.1852 66.9284 20.1852 67.2461V67.25C20.1852 67.6432 20.0693 67.9805 19.8375 68.2617C19.6084 68.5404 19.275 68.7552 18.8375 68.9062C18.4026 69.0547 17.8766 69.1289 17.2594 69.1289ZM23.8258 69.1055C23.2529 69.1055 22.7594 69.0169 22.3453 68.8398C21.9339 68.6628 21.6162 68.4076 21.3922 68.0742C21.1683 67.7383 21.0563 67.3346 21.0563 66.8633V66.8594C21.0563 66.3906 21.1696 65.987 21.3961 65.6484C21.6227 65.3073 21.9391 65.0456 22.3453 64.8633C22.7542 64.6784 23.2281 64.5872 23.7672 64.5898C24.3193 64.5898 24.7959 64.6849 25.1969 64.875C25.5979 65.0651 25.9065 65.332 26.1227 65.6758C26.3388 66.0169 26.4469 66.4193 26.4469 66.8828V67.1523H21.8063V66.4062H25.5133L25.0914 66.957V66.6875C25.0914 66.4479 25.0393 66.2422 24.9352 66.0703C24.8336 65.8958 24.6865 65.7617 24.4938 65.668C24.3011 65.5742 24.0693 65.5273 23.7985 65.5273C23.5172 65.5273 23.2763 65.5729 23.0758 65.6641C22.8753 65.7552 22.7216 65.8906 22.6149 66.0703C22.5081 66.2474 22.4547 66.4674 22.4547 66.7305V66.9492C22.4547 67.2409 22.5146 67.4779 22.6344 67.6602C22.7568 67.8398 22.9235 67.9714 23.1344 68.0547C23.3479 68.1354 23.594 68.1758 23.8727 68.1758C24.055 68.1758 24.2216 68.1562 24.3727 68.1172C24.5263 68.0755 24.6591 68.0195 24.7711 67.9492C24.8857 67.8789 24.9703 67.7982 25.025 67.707L25.0367 67.6836L26.3883 67.6797L26.3766 67.7227C26.3167 67.931 26.2125 68.1211 26.0641 68.293C25.9183 68.4622 25.7347 68.6081 25.5133 68.7305C25.2946 68.8503 25.042 68.9427 24.7555 69.0078C24.4716 69.0729 24.1617 69.1055 23.8258 69.1055ZM29.9039 69.0391C29.2295 69.0391 28.7399 68.9245 28.4352 68.6953C28.1331 68.4661 27.9821 68.0951 27.9821 67.582V65.6758H27.1031V64.6953H27.9821V63.6562H29.4313V64.6953H30.775V65.6758H29.4313V67.3477C29.4313 67.5951 29.4964 67.7734 29.6266 67.8828C29.7568 67.9922 29.9742 68.0469 30.2789 68.0469C30.3753 68.0469 30.4638 68.043 30.5446 68.0352C30.6279 68.0273 30.7047 68.0182 30.775 68.0078V68.9727C30.6552 68.9909 30.5198 69.0065 30.3688 69.0195C30.2177 69.0326 30.0628 69.0391 29.9039 69.0391ZM34.2633 69.0391C33.5888 69.0391 33.0992 68.9245 32.7946 68.6953C32.4925 68.4661 32.3414 68.0951 32.3414 67.582V65.6758H31.4625V64.6953H32.3414V63.6562H33.7906V64.6953H35.1344V65.6758H33.7906V67.3477C33.7906 67.5951 33.8558 67.7734 33.986 67.8828C34.1162 67.9922 34.3336 68.0469 34.6383 68.0469C34.7347 68.0469 34.8232 68.043 34.9039 68.0352C34.9873 68.0273 35.0641 68.0182 35.1344 68.0078V68.9727C35.0146 68.9909 34.8792 69.0065 34.7281 69.0195C34.5771 69.0326 34.4222 69.0391 34.2633 69.0391ZM36.1539 69V64.6953H37.6031V69H36.1539ZM36.8766 64.1562C36.6474 64.1562 36.4586 64.0911 36.3102 63.9609C36.1643 63.8281 36.0914 63.6628 36.0914 63.4648C36.0914 63.2695 36.1643 63.1068 36.3102 62.9766C36.4586 62.8464 36.6474 62.7812 36.8766 62.7812C37.1084 62.7812 37.2972 62.8464 37.443 62.9766C37.5888 63.1068 37.6617 63.2695 37.6617 63.4648C37.6617 63.6628 37.5888 63.8281 37.443 63.9609C37.2972 64.0911 37.1084 64.1562 36.8766 64.1562ZM38.8297 69V64.6953H40.275V65.5234H40.318C40.4638 65.2344 40.6865 65.0065 40.986 64.8398C41.2854 64.6706 41.6487 64.5859 42.0758 64.5859C42.6904 64.5859 43.1656 64.7539 43.5016 65.0898C43.8401 65.4232 44.0094 65.8958 44.0094 66.5078V69H42.5602V66.8125C42.5602 66.4323 42.469 66.1445 42.2867 65.9492C42.1071 65.7539 41.8401 65.6562 41.486 65.6562C41.236 65.6562 41.0211 65.7057 40.8414 65.8047C40.6617 65.901 40.5224 66.0391 40.4235 66.2188C40.3245 66.3984 40.275 66.612 40.275 66.8594V69H38.8297ZM47.7321 70.5352C47.2373 70.5352 46.8063 70.4805 46.4391 70.3711C46.0745 70.2643 45.7815 70.112 45.5602 69.9141C45.3388 69.7188 45.1969 69.4896 45.1344 69.2266L45.1266 69.1914H46.5836L46.5953 69.2148C46.6683 69.3451 46.8011 69.4466 46.9938 69.5195C47.1865 69.5951 47.4365 69.6328 47.7438 69.6328C48.1995 69.6328 48.5406 69.5456 48.7672 69.3711C48.9964 69.1992 49.111 68.9505 49.111 68.625V68.0625H49.068C48.9638 68.2266 48.8245 68.3711 48.65 68.4961C48.4755 68.6185 48.2698 68.7135 48.0328 68.7812C47.7985 68.849 47.5367 68.8828 47.2477 68.8828C46.7946 68.8828 46.3961 68.7943 46.0524 68.6172C45.7112 68.4401 45.4456 68.1927 45.2555 67.875C45.0654 67.5573 44.9703 67.1914 44.9703 66.7773V66.7695C44.9703 66.3398 45.0654 65.9622 45.2555 65.6367C45.4482 65.3112 45.7151 65.0573 46.0563 64.875C46.3974 64.6901 46.7972 64.5977 47.2555 64.5977C47.5446 64.5977 47.8063 64.6354 48.0406 64.7109C48.2776 64.7865 48.4834 64.8906 48.6578 65.0234C48.8323 65.1536 48.9716 65.3047 49.0758 65.4766H49.111V64.6914H50.5563V68.5547C50.5563 68.9766 50.4456 69.3346 50.2242 69.6289C50.0029 69.9232 49.6813 70.1471 49.2594 70.3008C48.8401 70.457 48.331 70.5352 47.7321 70.5352ZM47.7711 67.9375C48.0446 67.9375 48.2815 67.8893 48.4821 67.793C48.6826 67.6966 48.8375 67.5612 48.9469 67.3867C49.0589 67.2122 49.1149 67.0078 49.1149 66.7734V66.7656C49.1149 66.5312 49.0589 66.3268 48.9469 66.1523C48.8375 65.9779 48.6826 65.8438 48.4821 65.75C48.2815 65.6536 48.0446 65.6055 47.7711 65.6055C47.5029 65.6055 47.2685 65.6523 47.068 65.7461C46.8701 65.8398 46.7164 65.974 46.6071 66.1484C46.5003 66.3203 46.4469 66.526 46.4469 66.7656V66.7734C46.4469 67.013 46.5003 67.2201 46.6071 67.3945C46.7164 67.5664 46.8701 67.7005 47.068 67.7969C47.2685 67.8906 47.5029 67.9375 47.7711 67.9375Z" fill="#F9F9F3"/>
<g filter="url(#filter0_d_653_4556)">
<path d="M50.4 45.982C52.8853 45.982 54.9 48.0007 54.9 50.491C54.9 52.9812 52.8853 55 50.4 55H14.4C11.9147 55 9.90002 52.9812 9.90002 50.491C9.90002 48.0007 11.9147 45.982 14.4 45.982H50.4ZM50.4 33.988C52.8853 33.988 54.9 36.0067 54.9 38.497C54.9 40.9873 52.8853 43.006 50.4 43.006H14.4C11.9147 43.006 9.90002 40.9873 9.90002 38.497C9.90002 36.0067 11.9147 33.988 14.4 33.988H50.4ZM50.4 21.994C52.8853 21.994 54.9 24.0127 54.9 26.503C54.9 28.9933 52.8853 31.012 50.4 31.012H14.4C11.9147 31.012 9.90002 28.9933 9.90002 26.503C9.90002 24.0127 11.9147 21.994 14.4 21.994H50.4ZM50.4 10C52.8853 10 54.9 12.0188 54.9 14.509C54.9 16.9993 52.8853 19.018 50.4 19.018H14.4C11.9147 19.018 9.90002 16.9993 9.90002 14.509C9.90002 12.0188 11.9147 10 14.4 10H50.4Z" fill="#3D5A47"/>
</g>
<defs>
<filter id="filter0_d_653_4556" x="5.90002" y="10" width="53" height="53" filterUnits="userSpaceOnUse" color-interpolation-filters="sRGB">
<feFlood flood-opacity="0" result="BackgroundImageFix"/>
<feColorMatrix in="SourceAlpha" type="matrix" values="0 0 0 0 0 0 0 0 0 0 0 0 0 0 0 0 0 0 127 0" result="hardAlpha"/>
<feOffset dy="4"/>
<feGaussianBlur stdDeviation="2"/>
<feComposite in2="hardAlpha" operator="out"/>
<feColorMatrix type="matrix" values="0 0 0 0 0 0 0 0 0 0 0 0 0 0 0 0 0 0 0.25 0"/>
<feBlend mode="normal" in2="BackgroundImageFix" result="effect1_dropShadow_653_4556"/>
<feBlend mode="normal" in="SourceGraphic" in2="effect1_dropShadow_653_4556" result="shape"/>
</filter>
</defs>
</svg>
