<svg width="53" height="61" viewBox="0 0 53 61" fill="none" xmlns="http://www.w3.org/2000/svg">
<g filter="url(#filter0_d_203_2798)">
<path d="M48.3263 8.82567C48.6984 8.82567 49 9.06958 49 9.37046V44.4552C49 44.7561 48.6984 45 48.3263 45H13.9701C13.598 45 13.2964 44.7561 13.2964 44.4552V39.9879C13.2964 40.2888 13.598 40.5327 13.9701 40.5327H43.6108C43.9828 40.5327 44.2844 40.2888 44.2844 39.9879V8.82567H48.3263ZM39.0299 0C39.402 0 39.7036 0.243913 39.7036 0.544794V35.5206C39.7036 35.8215 39.402 36.0654 39.0299 36.0654H4.67365C4.3016 36.0654 4 35.8215 4 35.5206V0.544794C4 0.243913 4.3016 0 4.67365 0H39.0299Z" fill="#3D5A47"/>
</g>
<path d="M11.3695 59V53.3633H14.9711C15.4659 53.3633 15.8826 53.4362 16.2211 53.582C16.5596 53.7253 16.8149 53.9323 16.9867 54.2031C17.1612 54.4714 17.2484 54.7943 17.2484 55.1719V55.1797C17.2484 55.5781 17.1469 55.9206 16.9438 56.207C16.7406 56.4909 16.4451 56.6953 16.057 56.8203L17.4594 59H15.7641L14.5727 57.0586C14.5622 57.0586 14.5505 57.0586 14.5375 57.0586C14.5271 57.0586 14.5154 57.0586 14.5024 57.0586H12.8656V59H11.3695ZM12.8656 56.0586H14.8344C15.1208 56.0586 15.3435 55.9883 15.5024 55.8477C15.6612 55.7044 15.7406 55.5052 15.7406 55.25V55.2422C15.7406 54.9922 15.6586 54.7956 15.4945 54.6523C15.3331 54.5091 15.1091 54.4375 14.8227 54.4375H12.8656V56.0586ZM20.9242 59.1055C20.3513 59.1055 19.8578 59.0169 19.4438 58.8398C19.0323 58.6628 18.7146 58.4076 18.4906 58.0742C18.2667 57.7383 18.1547 57.3346 18.1547 56.8633V56.8594C18.1547 56.3906 18.268 55.987 18.4945 55.6484C18.7211 55.3073 19.0375 55.0456 19.4438 54.8633C19.8526 54.6784 20.3266 54.5872 20.8656 54.5898C21.4177 54.5898 21.8943 54.6849 22.2953 54.875C22.6964 55.0651 23.005 55.332 23.2211 55.6758C23.4372 56.0169 23.5453 56.4193 23.5453 56.8828V57.1523H18.9047V56.4062H22.6117L22.1899 56.957V56.6875C22.1899 56.4479 22.1378 56.2422 22.0336 56.0703C21.932 55.8958 21.7849 55.7617 21.5922 55.668C21.3995 55.5742 21.1677 55.5273 20.8969 55.5273C20.6156 55.5273 20.3747 55.5729 20.1742 55.6641C19.9737 55.7552 19.8201 55.8906 19.7133 56.0703C19.6065 56.2474 19.5531 56.4674 19.5531 56.7305V56.9492C19.5531 57.2409 19.613 57.4779 19.7328 57.6602C19.8552 57.8398 20.0219 57.9714 20.2328 58.0547C20.4464 58.1354 20.6925 58.1758 20.9711 58.1758C21.1534 58.1758 21.3201 58.1562 21.4711 58.1172C21.6247 58.0755 21.7576 58.0195 21.8695 57.9492C21.9841 57.8789 22.0688 57.7982 22.1234 57.707L22.1352 57.6836L23.4867 57.6797L23.475 57.7227C23.4151 57.931 23.3109 58.1211 23.1625 58.293C23.0167 58.4622 22.8331 58.6081 22.6117 58.7305C22.393 58.8503 22.1404 58.9427 21.8539 59.0078C21.5701 59.0729 21.2602 59.1055 20.9242 59.1055ZM24.5649 60.4141V54.6914H26.0141V55.4648H26.0531C26.1599 55.2904 26.2992 55.1393 26.4711 55.0117C26.6456 54.8841 26.8513 54.7839 27.0883 54.7109C27.3253 54.6354 27.5922 54.5977 27.8891 54.5977C28.3448 54.5977 28.7432 54.6914 29.0844 54.8789C29.4281 55.0664 29.6938 55.3281 29.8813 55.6641C30.0714 56 30.1664 56.3932 30.1664 56.8438V56.8516C30.1664 57.3021 30.0727 57.6966 29.8852 58.0352C29.6977 58.3711 29.432 58.6328 29.0883 58.8203C28.7471 59.0052 28.3474 59.0977 27.8891 59.0977C27.5948 59.0977 27.3279 59.0612 27.0883 58.9883C26.8513 58.9128 26.6456 58.8099 26.4711 58.6797C26.2992 58.5469 26.1599 58.3945 26.0531 58.2227H26.0141V60.4141H24.5649ZM27.3617 58.0586C27.6352 58.0586 27.8708 58.0104 28.0688 57.9141C28.2693 57.8177 28.4242 57.6797 28.5336 57.5C28.643 57.3177 28.6977 57.1016 28.6977 56.8516V56.8438C28.6977 56.5911 28.643 56.375 28.5336 56.1953C28.4242 56.013 28.2693 55.8737 28.0688 55.7773C27.8708 55.681 27.6352 55.6328 27.3617 55.6328C27.0857 55.6328 26.8461 55.6823 26.643 55.7812C26.4425 55.8802 26.2862 56.0195 26.1742 56.1992C26.0649 56.3789 26.0102 56.5924 26.0102 56.8398V56.8516C26.0102 57.099 26.0649 57.3138 26.1742 57.4961C26.2862 57.6758 26.4425 57.8151 26.643 57.9141C26.8461 58.0104 27.0857 58.0586 27.3617 58.0586ZM33.7328 59.1055C33.1677 59.1055 32.6768 59.0143 32.2602 58.832C31.8435 58.6471 31.5206 58.3867 31.2914 58.0508C31.0649 57.7122 30.9516 57.3125 30.9516 56.8516V56.8398C30.9516 56.3789 31.0662 55.9805 31.2953 55.6445C31.5245 55.3086 31.8474 55.0495 32.2641 54.8672C32.6807 54.6823 33.1703 54.5898 33.7328 54.5898C34.2979 54.5898 34.7888 54.681 35.2055 54.8633C35.6221 55.0456 35.9438 55.306 36.1703 55.6445C36.3995 55.9805 36.5141 56.3789 36.5141 56.8398V56.8516C36.5141 57.3125 36.3995 57.7122 36.1703 58.0508C35.9438 58.3867 35.6221 58.6471 35.2055 58.832C34.7888 59.0143 34.2979 59.1055 33.7328 59.1055ZM33.7328 58.0898C33.9958 58.0898 34.225 58.0417 34.4203 57.9453C34.6156 57.8464 34.7667 57.7044 34.8734 57.5195C34.9828 57.3346 35.0375 57.112 35.0375 56.8516V56.8438C35.0375 56.5807 34.9828 56.3581 34.8734 56.1758C34.7667 55.9909 34.6156 55.849 34.4203 55.75C34.225 55.651 33.9958 55.6016 33.7328 55.6016C33.4724 55.6016 33.2432 55.651 33.0453 55.75C32.85 55.849 32.6977 55.9909 32.5883 56.1758C32.4815 56.3581 32.4281 56.5807 32.4281 56.8438V56.8516C32.4281 57.112 32.4815 57.3346 32.5883 57.5195C32.6977 57.7044 32.85 57.8464 33.0453 57.9453C33.2432 58.0417 33.4724 58.0898 33.7328 58.0898ZM37.5258 59V54.6953L38.975 54.7031V55.5508H39.018C39.1039 55.2513 39.2654 55.0208 39.5024 54.8594C39.7393 54.6953 40.0349 54.6133 40.3891 54.6133C40.4776 54.6133 40.5622 54.6185 40.643 54.6289C40.7263 54.6393 40.8005 54.6523 40.8656 54.668V55.8086C40.7771 55.7878 40.6846 55.7734 40.5883 55.7656C40.4919 55.7552 40.3943 55.75 40.2953 55.75C40.0271 55.75 39.794 55.7969 39.5961 55.8906C39.4008 55.9844 39.2484 56.125 39.1391 56.3125C39.0297 56.5 38.975 56.7357 38.975 57.0195V59H37.5258ZM44.1742 59.0391C43.4997 59.0391 43.0102 58.9245 42.7055 58.6953C42.4034 58.4661 42.2524 58.0951 42.2524 57.582V55.6758H41.3734V54.6953H42.2524V53.6562H43.7016V54.6953H45.0453V55.6758H43.7016V57.3477C43.7016 57.5951 43.7667 57.7734 43.8969 57.8828C44.0271 57.9922 44.2445 58.0469 44.5492 58.0469C44.6456 58.0469 44.7341 58.043 44.8149 58.0352C44.8982 58.0273 44.975 58.0182 45.0453 58.0078V58.9727C44.9255 58.9909 44.7901 59.0065 44.6391 59.0195C44.488 59.0326 44.3331 59.0391 44.1742 59.0391Z" fill="#F9F9F3"/>
<defs>
<filter id="filter0_d_203_2798" x="0" y="0" width="53" height="53" filterUnits="userSpaceOnUse" color-interpolation-filters="sRGB">
<feFlood flood-opacity="0" result="BackgroundImageFix"/>
<feColorMatrix in="SourceAlpha" type="matrix" values="0 0 0 0 0 0 0 0 0 0 0 0 0 0 0 0 0 0 127 0" result="hardAlpha"/>
<feOffset dy="4"/>
<feGaussianBlur stdDeviation="2"/>
<feComposite in2="hardAlpha" operator="out"/>
<feColorMatrix type="matrix" values="0 0 0 0 0 0 0 0 0 0 0 0 0 0 0 0 0 0 0.25 0"/>
<feBlend mode="normal" in2="BackgroundImageFix" result="effect1_dropShadow_203_2798"/>
<feBlend mode="normal" in="SourceGraphic" in2="effect1_dropShadow_203_2798" result="shape"/>
</filter>
</defs>
</svg>
