<svg width="49" height="50" viewBox="0 0 49 50" fill="none" xmlns="http://www.w3.org/2000/svg">
<path d="M2.75992 46.6096V49.2584H2.34909V47.1282L1.67967 49.2584H1.28093L0.613931 47.1282V49.2584H0.200684V46.6096H0.833846L1.48151 48.6719L2.12917 46.6096H2.76233H2.75992Z" fill="white"/>
<path d="M3.72888 46.7623C3.72888 46.835 3.7023 46.898 3.64913 46.9538C3.59596 47.0071 3.53313 47.0362 3.46063 47.0362C3.38813 47.0362 3.3253 47.0095 3.27213 46.9538C3.21897 46.9005 3.19238 46.835 3.19238 46.7623C3.19238 46.6896 3.21897 46.6218 3.27213 46.5684C3.3253 46.5151 3.38813 46.4861 3.46063 46.4861C3.53313 46.4861 3.59596 46.5127 3.64913 46.5684C3.7023 46.6218 3.72888 46.6872 3.72888 46.7623ZM3.25522 49.2584V47.3561H3.67571V49.2584H3.25522Z" fill="white"/>
<path d="M4.59166 48.3012V49.2584H4.17358V47.356H4.57716V47.6081C4.6255 47.5208 4.69558 47.4481 4.78983 47.3924C4.88408 47.3367 4.98558 47.31 5.09191 47.31C5.30699 47.31 5.48099 47.3875 5.61391 47.5402C5.74682 47.6929 5.81207 47.8989 5.81207 48.1558V49.2609H5.39399V48.2648C5.39399 48.0637 5.36258 47.9134 5.29733 47.8165C5.23208 47.7196 5.13541 47.6711 5.0025 47.6711C4.93483 47.6711 4.86716 47.6953 4.80191 47.7414C4.73666 47.7874 4.68591 47.8528 4.65208 47.9328C4.611 48.0273 4.59166 48.1509 4.59166 48.306V48.3012Z" fill="white"/>
<path d="M6.76672 46.7623C6.76672 46.835 6.74014 46.898 6.68697 46.9538C6.63381 47.0071 6.57097 47.0362 6.49847 47.0362C6.42597 47.0362 6.36314 47.0095 6.30997 46.9538C6.25681 46.9005 6.23022 46.835 6.23022 46.7623C6.23022 46.6896 6.25681 46.6218 6.30997 46.5684C6.36314 46.5151 6.42597 46.4861 6.49847 46.4861C6.57097 46.4861 6.63381 46.5127 6.68697 46.5684C6.74014 46.6218 6.76672 46.6872 6.76672 46.7623ZM6.29306 49.2584V47.3561H6.71355V49.2584H6.29306Z" fill="white"/>
<path d="M7.03979 48.9046L7.30321 48.6283C7.37571 48.7325 7.45546 48.8125 7.54487 48.8682C7.62946 48.924 7.72129 48.9506 7.82037 48.9506C7.91946 48.9506 7.99437 48.9312 8.05962 48.89C8.12245 48.8489 8.15629 48.798 8.15629 48.7325C8.15629 48.6671 8.12487 48.6162 8.06445 48.5799C8.00404 48.5411 7.92912 48.5071 7.83971 48.4756C7.73821 48.4417 7.63671 48.4054 7.53038 48.3617C7.39021 48.3108 7.28629 48.2406 7.22104 48.1582C7.15338 48.0734 7.12196 47.9788 7.12196 47.8722C7.12196 47.7171 7.19204 47.5838 7.33463 47.4723C7.47721 47.3633 7.64396 47.3076 7.83729 47.3076C8.04271 47.3076 8.21187 47.3584 8.34237 47.4602C8.41004 47.5111 8.4632 47.579 8.49945 47.659L8.24329 47.9158C8.20704 47.8552 8.16837 47.8068 8.12245 47.768C8.04029 47.6953 7.93879 47.659 7.81796 47.659C7.74546 47.659 7.68262 47.6759 7.62946 47.7123C7.57629 47.7486 7.54971 47.7922 7.54971 47.8456C7.54971 47.8989 7.57871 47.9473 7.63912 47.9837C7.69712 48.0225 7.78412 48.0588 7.90012 48.0952C7.94362 48.1073 7.98954 48.1242 8.0427 48.1412C8.22154 48.2018 8.35687 48.2793 8.4487 48.3739C8.54053 48.4708 8.58887 48.5847 8.58887 48.7204C8.58887 48.8779 8.51395 49.0161 8.36654 49.13C8.21912 49.2439 8.03062 49.302 7.80587 49.302C7.61254 49.302 7.44338 49.256 7.29838 49.1615C7.19929 49.1009 7.11471 49.0161 7.04221 48.8997L7.03979 48.9046Z" fill="white"/>
<path d="M9.43947 46.7429V47.3585H9.83822V47.705H9.43947V48.6744C9.43947 48.7689 9.46122 48.8319 9.5023 48.8658C9.5458 48.8998 9.60622 48.9167 9.68355 48.9167H9.83822V49.2633H9.58689C9.38872 49.2633 9.24372 49.2172 9.15431 49.1251C9.06489 49.0331 9.01897 48.8973 9.01897 48.718V47.7074H8.70239V47.3609H9.01897V46.7453H9.43947V46.7429Z" fill="white"/>
<path d="M10.1789 49.2584V47.356H10.5728V47.6396C10.6333 47.5451 10.7058 47.4748 10.7952 47.4215C10.9015 47.356 11.0248 47.3245 11.1673 47.3245H11.1963V47.7098H11.1504C10.9764 47.7098 10.8387 47.7632 10.7372 47.8722C10.6429 47.9788 10.5946 48.1436 10.5946 48.369V49.256H10.1765L10.1789 49.2584Z" fill="white"/>
<path d="M12.059 49.1857L11.3364 47.3585H11.769L12.2693 48.6574L12.7647 47.3585H13.1948L12.1726 50H11.7424L12.059 49.1881V49.1857Z" fill="white"/>
<path d="M15.7034 49.3045C15.4352 49.3045 15.2056 49.2075 15.0147 49.0161C14.8237 48.8246 14.7295 48.5871 14.7295 48.3084C14.7295 48.0297 14.8237 47.7898 15.0147 47.5959C15.2056 47.4045 15.4352 47.3076 15.7034 47.3076C15.9717 47.3076 16.2036 47.4045 16.3946 47.5959C16.5831 47.7874 16.6773 48.0249 16.6773 48.3084C16.6773 48.592 16.5831 48.8246 16.3946 49.0161C16.2061 49.2075 15.9741 49.3045 15.7034 49.3045ZM15.7034 48.9482C15.8557 48.9482 15.9861 48.8876 16.0949 48.7665C16.2036 48.6453 16.2568 48.4926 16.2568 48.3084C16.2568 48.1242 16.2036 47.9716 16.0949 47.8504C15.9861 47.7292 15.8557 47.6686 15.7034 47.6686C15.5512 47.6686 15.4231 47.7292 15.3143 47.8504C15.2056 47.9716 15.15 48.1242 15.15 48.3084C15.15 48.4926 15.2056 48.6453 15.3143 48.7665C15.4231 48.8876 15.5536 48.9482 15.7034 48.9482Z" fill="white"/>
<path d="M17.1413 46.9804C17.1413 46.8011 17.1896 46.6653 17.2863 46.5733C17.383 46.4812 17.5304 46.4351 17.7286 46.4351H17.9316V46.7817H17.8083C17.731 46.7817 17.6706 46.7986 17.6271 46.8326C17.5836 46.8665 17.5642 46.9295 17.5642 47.024V47.3584H17.934V47.705H17.5642V49.2608H17.1437V47.705H16.8271V47.3584H17.1437V46.9804H17.1413Z" fill="white"/>
<path d="M21.1288 49.2584L20.1646 47.0992V49.2584H19.7368V46.6096H20.37L21.3366 48.7762V46.6096H21.762V49.2584H21.1288Z" fill="white"/>
<path d="M23.0404 48.0298H23.4778C23.4778 47.9086 23.4295 47.8165 23.3376 47.7535C23.2434 47.6905 23.1081 47.6614 22.9341 47.6614H22.922C22.7576 47.6614 22.5788 47.7026 22.3927 47.7826L22.2864 47.4433C22.4797 47.3585 22.6924 47.3148 22.9268 47.31H22.9341C23.2434 47.31 23.4802 47.3706 23.6446 47.4942C23.8089 47.6178 23.8935 47.8116 23.8935 48.0806V49.2584H23.4947V49.0476C23.4174 49.1276 23.3207 49.1906 23.2071 49.2366C23.0936 49.2827 22.9776 49.3045 22.8591 49.3045C22.6416 49.3045 22.4628 49.2439 22.3275 49.1227C22.1897 49.0015 22.1221 48.8537 22.1221 48.6768C22.1221 48.4829 22.2067 48.3206 22.3782 48.1945C22.5329 48.0831 22.7552 48.0273 23.0428 48.0273L23.0404 48.0298ZM22.9268 48.9628C23.0356 48.9628 23.1419 48.9361 23.2458 48.8804C23.3521 48.8271 23.4271 48.7616 23.4754 48.6889V48.3666H23.1032C22.893 48.3666 22.7456 48.3957 22.6634 48.4514C22.5812 48.5144 22.5401 48.5896 22.5401 48.6768C22.5401 48.7592 22.574 48.8271 22.6441 48.8804C22.7141 48.9337 22.8084 48.9603 22.9268 48.9603V48.9628Z" fill="white"/>
<path d="M24.8987 46.7429V47.3585H25.2974V47.705H24.8987V48.6744C24.8987 48.7689 24.9204 48.8319 24.9615 48.8658C25.005 48.8998 25.0654 48.9167 25.1428 48.9167H25.2974V49.2633H25.0461C24.8479 49.2633 24.7029 49.2172 24.6135 49.1251C24.5241 49.0331 24.4782 48.8973 24.4782 48.718V47.7074H24.1616V47.3609H24.4782V46.7453H24.8987V46.7429Z" fill="white"/>
<path d="M26.1215 46.7623C26.1215 46.835 26.0949 46.898 26.0417 46.9538C25.9885 47.0071 25.9257 47.0362 25.8532 47.0362C25.7807 47.0362 25.7179 47.0095 25.6647 46.9538C25.6115 46.9005 25.585 46.835 25.585 46.7623C25.585 46.6896 25.6115 46.6218 25.6647 46.5684C25.7179 46.5151 25.7807 46.4861 25.8532 46.4861C25.9257 46.4861 25.9885 46.5127 26.0417 46.5684C26.0949 46.6218 26.1215 46.6872 26.1215 46.7623ZM25.6478 49.2584V47.3561H26.0683V49.2584H25.6478Z" fill="white"/>
<path d="M27.4121 49.3045C27.1439 49.3045 26.9143 49.2075 26.7234 49.0161C26.5325 48.8246 26.4382 48.5871 26.4382 48.3084C26.4382 48.0297 26.5325 47.7898 26.7234 47.5959C26.9143 47.4045 27.1439 47.3076 27.4121 47.3076C27.6804 47.3076 27.9124 47.4045 28.1033 47.5959C28.2918 47.7874 28.3861 48.0249 28.3861 48.3084C28.3861 48.592 28.2918 48.8246 28.1033 49.0161C27.9148 49.2075 27.6828 49.3045 27.4121 49.3045ZM27.4121 48.9482C27.5644 48.9482 27.6949 48.8876 27.8036 48.7665C27.9124 48.6453 27.9656 48.4926 27.9656 48.3084C27.9656 48.1242 27.9124 47.9716 27.8036 47.8504C27.6949 47.7292 27.5644 47.6686 27.4121 47.6686C27.2599 47.6686 27.1318 47.7292 27.0231 47.8504C26.9143 47.9716 26.8587 48.1242 26.8587 48.3084C26.8587 48.4926 26.9143 48.6453 27.0231 48.7665C27.1318 48.8876 27.2623 48.9482 27.4121 48.9482Z" fill="white"/>
<path d="M29.1495 48.3012V49.2584H28.7314V47.356H29.135V47.6081C29.1834 47.5208 29.2534 47.4481 29.3477 47.3924C29.4419 47.3367 29.5434 47.31 29.6498 47.31C29.8649 47.31 30.0389 47.3875 30.1718 47.5402C30.3047 47.6929 30.3699 47.8989 30.3699 48.1558V49.2609H29.9519V48.2648C29.9519 48.0637 29.9204 47.9134 29.8552 47.8165C29.7899 47.7196 29.6933 47.6711 29.5604 47.6711C29.4927 47.6711 29.425 47.6953 29.3598 47.7414C29.2945 47.7874 29.2438 47.8528 29.2099 47.9328C29.1689 48.0273 29.1495 48.1509 29.1495 48.306V48.3012Z" fill="white"/>
<path d="M31.6315 48.0298H32.0689C32.0689 47.9086 32.0205 47.8165 31.9287 47.7535C31.8345 47.6905 31.6991 47.6614 31.5251 47.6614H31.513C31.3487 47.6614 31.1699 47.7026 30.9838 47.7826L30.8775 47.4433C31.0708 47.3585 31.2835 47.3148 31.5179 47.31H31.5251C31.8345 47.31 32.0713 47.3706 32.2356 47.4942C32.4 47.6178 32.4845 47.8116 32.4845 48.0806V49.2584H32.0858V49.0476C32.0085 49.1276 31.9118 49.1906 31.7982 49.2366C31.6846 49.2827 31.5686 49.3045 31.4502 49.3045C31.2327 49.3045 31.0539 49.2439 30.9186 49.1227C30.7808 49.0015 30.7131 48.8537 30.7131 48.6768C30.7131 48.4829 30.7977 48.3206 30.9693 48.1945C31.124 48.0831 31.3463 48.0273 31.6339 48.0273L31.6315 48.0298ZM31.5203 48.9628C31.629 48.9628 31.7354 48.9361 31.8393 48.8804C31.9456 48.8271 32.0205 48.7616 32.0689 48.6889V48.3666H31.6967C31.4865 48.3666 31.339 48.3957 31.2569 48.4514C31.1747 48.5144 31.1336 48.5896 31.1336 48.6768C31.1336 48.7592 31.1675 48.8271 31.2375 48.8804C31.3076 48.9337 31.4019 48.9603 31.5203 48.9603V48.9628Z" fill="white"/>
<path d="M32.9534 49.2584V46.4351H33.3714V49.2584H32.9534Z" fill="white"/>
<path d="M37.4968 47.9376C37.4968 48.3181 37.376 48.6356 37.1319 48.8852C36.8878 49.1348 36.5713 49.2608 36.1798 49.2608H35.3291V46.612H36.1798C36.5713 46.612 36.8878 46.738 37.1319 46.9877C37.376 47.2373 37.4968 47.5547 37.4968 47.9376ZM37.0691 47.9376C37.0691 47.642 36.9845 47.4093 36.8129 47.2373C36.6413 47.0652 36.4093 46.9804 36.1169 46.9804H35.7593V48.89H36.1169C36.4093 48.89 36.6413 48.8052 36.8129 48.6332C36.9845 48.4611 37.0691 48.2309 37.0691 47.9376Z" fill="white"/>
<path d="M38.2047 48.4974C38.2289 48.6138 38.2821 48.7107 38.3618 48.7858C38.4802 48.8973 38.6349 48.953 38.8282 48.953C39.0312 48.953 39.2221 48.8755 39.401 48.7204L39.5242 49.0403C39.326 49.2196 39.0916 49.3093 38.8161 49.3093C38.5044 49.3093 38.2531 49.2172 38.0573 49.0354C37.864 48.8537 37.7649 48.6138 37.7649 48.3181C37.7649 48.0225 37.8519 47.785 38.0235 47.5959C38.1975 47.4069 38.4222 47.3148 38.7001 47.3148C38.978 47.3148 39.2004 47.4069 39.3744 47.5959C39.5484 47.7825 39.6354 48.0152 39.6354 48.2915C39.6354 48.3666 39.6281 48.4369 39.616 48.5023H38.1975L38.2047 48.4974ZM38.1975 48.1582H39.2197C39.2149 48.0346 39.1641 47.9207 39.0699 47.8189C38.9756 47.7171 38.8524 47.6662 38.705 47.6662C38.5576 47.6662 38.4295 47.722 38.3328 47.8334C38.2603 47.9158 38.2144 48.0249 38.1975 48.1606V48.1582Z" fill="white"/>
<path d="M40.0825 46.9804C40.0825 46.8011 40.1308 46.6653 40.2275 46.5733C40.3241 46.4812 40.4716 46.4351 40.6697 46.4351H40.8727V46.7817H40.7495C40.6721 46.7817 40.6117 46.7986 40.5682 46.8326C40.5247 46.8665 40.5054 46.9295 40.5054 47.024V47.3584H40.8751V47.705H40.5054V49.2608H40.0849V47.705H39.7683V47.3584H40.0849V46.9804H40.0825Z" fill="white"/>
<path d="M41.4433 48.4974C41.4674 48.6138 41.5206 48.7107 41.6003 48.7858C41.7187 48.8973 41.8734 48.953 42.0667 48.953C42.2697 48.953 42.4607 48.8755 42.6395 48.7204L42.7627 49.0403C42.5646 49.2196 42.3302 49.3093 42.0547 49.3093C41.7429 49.3093 41.4916 49.2172 41.2958 49.0354C41.1025 48.8537 41.0034 48.6138 41.0034 48.3181C41.0034 48.0225 41.0904 47.785 41.262 47.5959C41.436 47.4069 41.6607 47.3148 41.9387 47.3148C42.2166 47.3148 42.4389 47.4069 42.6129 47.5959C42.7869 47.7825 42.8739 48.0152 42.8739 48.2915C42.8739 48.3666 42.8667 48.4369 42.8546 48.5023H41.436L41.4433 48.4974ZM41.436 48.1582H42.4582C42.4534 48.0346 42.4027 47.9207 42.3084 47.8189C42.2142 47.7171 42.0909 47.6662 41.9435 47.6662C41.7961 47.6662 41.668 47.722 41.5713 47.8334C41.4988 47.9158 41.4529 48.0249 41.436 48.1606V48.1582Z" fill="white"/>
<path d="M43.6398 48.3012V49.2584H43.2217V47.356H43.6253V47.6081C43.6736 47.5208 43.7437 47.4481 43.8379 47.3924C43.9322 47.3367 44.0337 47.31 44.14 47.31C44.3551 47.31 44.5291 47.3875 44.662 47.5402C44.7949 47.6929 44.8602 47.8989 44.8602 48.1558V49.2609H44.4421V48.2648C44.4421 48.0637 44.4107 47.9134 44.3454 47.8165C44.2802 47.7196 44.1835 47.6711 44.0506 47.6711C43.9829 47.6711 43.9153 47.6953 43.85 47.7414C43.7848 47.7874 43.734 47.8528 43.7002 47.9328C43.6591 48.0273 43.6398 48.1509 43.6398 48.306V48.3012Z" fill="white"/>
<path d="M45.1599 48.9046L45.4233 48.6283C45.4958 48.7325 45.5756 48.8125 45.665 48.8682C45.7496 48.924 45.8414 48.9506 45.9405 48.9506C46.0396 48.9506 46.1145 48.9312 46.1797 48.89C46.2426 48.8489 46.2764 48.798 46.2764 48.7325C46.2764 48.6671 46.245 48.6162 46.1846 48.5799C46.1242 48.5411 46.0492 48.5071 45.9598 48.4756C45.8583 48.4417 45.7568 48.4054 45.6505 48.3617C45.5103 48.3108 45.4064 48.2406 45.3412 48.1582C45.2735 48.0734 45.2421 47.9788 45.2421 47.8722C45.2421 47.7171 45.3122 47.5838 45.4547 47.4723C45.5973 47.3633 45.7641 47.3076 45.9574 47.3076C46.1628 47.3076 46.332 47.3584 46.4625 47.4602C46.5302 47.5111 46.5833 47.579 46.6196 47.659L46.3634 47.9158C46.3272 47.8552 46.2885 47.8068 46.2426 47.768C46.1604 47.6953 46.0589 47.659 45.9381 47.659C45.8656 47.659 45.8027 47.6759 45.7496 47.7123C45.6964 47.7486 45.6698 47.7922 45.6698 47.8456C45.6698 47.8989 45.6988 47.9473 45.7592 47.9837C45.8172 48.0225 45.9042 48.0588 46.0202 48.0952C46.0637 48.1073 46.1097 48.1242 46.1628 48.1412C46.3417 48.2018 46.477 48.2793 46.5688 48.3739C46.6607 48.4708 46.709 48.5847 46.709 48.7204C46.709 48.8779 46.6341 49.0161 46.4867 49.13C46.3392 49.2439 46.1507 49.302 45.926 49.302C45.7327 49.302 45.5635 49.256 45.4185 49.1615C45.3194 49.1009 45.2348 49.0161 45.1623 48.8997L45.1599 48.9046Z" fill="white"/>
<path d="M47.3302 48.4974C47.3544 48.6138 47.4075 48.7107 47.4873 48.7858C47.6057 48.8973 47.7604 48.953 47.9537 48.953C48.1567 48.953 48.3476 48.8755 48.5265 48.7204L48.6497 49.0403C48.4515 49.2196 48.2171 49.3093 47.9416 49.3093C47.6299 49.3093 47.3785 49.2172 47.1828 49.0354C46.9895 48.8537 46.8904 48.6138 46.8904 48.3181C46.8904 48.0225 46.9774 47.785 47.149 47.5959C47.323 47.4069 47.5477 47.3148 47.8256 47.3148C48.1035 47.3148 48.3259 47.4069 48.4999 47.5959C48.6739 47.7825 48.7609 48.0152 48.7609 48.2915C48.7609 48.3666 48.7536 48.4369 48.7415 48.5023H47.323L47.3302 48.4974ZM47.323 48.1582H48.3452C48.3404 48.0346 48.2896 47.9207 48.1954 47.8189C48.1011 47.7171 47.9779 47.6662 47.8305 47.6662C47.683 47.6662 47.555 47.722 47.4583 47.8334C47.3858 47.9158 47.3399 48.0249 47.323 48.1606V48.1582Z" fill="white"/>
<path d="M0 38.198H2.86615V38.9323H0.853078V42.8509H2.95073V43.5852H0V38.198ZM5.1668 37.7811H5.98121V44.5134H5.1668V41.266H4.25814V44.4746H3.46789V37.7884H4.25814V40.5487H5.1668V37.7811Z" fill="white"/>
<path d="M6.78833 39.0025V38.2828H8.39299V37.6406H9.2944V38.2828H10.9063V39.0025H6.78833ZM7.09524 44.3825V42.3347H7.94832V43.6482H12.5907V44.3825H7.09283H7.09524ZM10.4302 40.6238C10.4302 40.8249 10.3891 41.0115 10.3046 41.1836C10.22 41.3557 10.1088 41.5108 9.96864 41.644C9.82123 41.7725 9.65448 41.8767 9.46356 41.9542C9.27265 42.0318 9.06723 42.0706 8.84973 42.0706C8.63223 42.0706 8.42682 42.0318 8.2359 41.9542C8.04499 41.8767 7.87582 41.7749 7.73082 41.644C7.59066 41.5108 7.47708 41.3557 7.39491 41.1836C7.31033 41.0115 7.26924 40.8249 7.26924 40.6238C7.26924 40.4226 7.31033 40.2336 7.39491 40.0591C7.47708 39.8846 7.59066 39.7295 7.73082 39.5963C7.87582 39.4678 8.04499 39.3636 8.2359 39.2861C8.42682 39.2085 8.63223 39.1697 8.84973 39.1697C9.06723 39.1697 9.27265 39.2085 9.46356 39.2861C9.65448 39.3636 9.82123 39.4654 9.96864 39.5963C10.1088 39.7295 10.2224 39.8846 10.3046 40.0591C10.3867 40.2336 10.4302 40.4226 10.4302 40.6238ZM9.60856 40.6165C9.60856 40.4105 9.53606 40.2336 9.38865 40.0858C9.24123 39.938 9.06482 39.8653 8.85698 39.8653C8.64915 39.8653 8.47032 39.938 8.32049 40.0858C8.17065 40.2336 8.09815 40.4081 8.09815 40.6165C8.09815 40.8249 8.17307 40.997 8.32049 41.1424C8.47032 41.2878 8.64673 41.3581 8.85698 41.3581C9.06723 41.3581 9.24365 41.2854 9.38865 41.1424C9.53364 40.9994 9.60856 40.8225 9.60856 40.6165ZM12.4505 39.6132H13.4293V40.3475H12.4505V42.0948H11.6047V37.7811H12.4505V39.6132Z" fill="white"/>
<path d="M13.915 41.4356V37.9726H17.424V41.4356H13.915ZM14.1108 44.3825V42.1336H14.9566V43.641H19.7005V44.3825H14.1108ZM16.5927 38.6996H14.7536V40.7183H16.5927V38.6996ZM18.7918 42.0948V37.7811H19.6377V42.0948H18.7918Z" fill="white"/>
<path d="M23.1081 42.1796V41.1981H20.4062V40.4638H26.6702V41.1981H23.9611V42.1796H26.17V44.5303H25.3241V42.9139H20.8292V42.1796H23.1081ZM26.153 37.9193V39.921H25.3072V38.6535H20.892V37.9193H26.153Z" fill="white"/>
<path d="M31.7983 42.1796V41.1981H29.0964V40.4638H35.3604V41.1981H32.6513V42.1796H34.8601V44.5303H34.0143V42.9139H29.5193V42.1796H31.7983ZM34.8456 37.9193V39.921H33.9998V38.6535H29.5846V37.9193H34.8456Z" fill="white"/>
<path d="M39.5725 41.1884H36.0249V37.9265H36.8635V38.8086H38.7509V37.9265H39.5725V41.1884ZM38.7509 39.5114H36.8635V40.4929H38.7509V39.5114ZM41.1796 43.0836C41.1796 43.3114 41.1337 43.5222 41.0395 43.7209C40.9452 43.9196 40.8195 44.0941 40.6649 44.2419C40.503 44.3922 40.3145 44.5109 40.097 44.5982C39.8795 44.6854 39.6523 44.7291 39.413 44.7291C39.1738 44.7291 38.9442 44.6854 38.7243 44.5982C38.5044 44.5109 38.3135 44.3922 38.1516 44.2419C37.9945 44.0917 37.8688 43.9196 37.777 43.7209C37.6851 43.5222 37.6368 43.3089 37.6368 43.0836C37.6368 42.8582 37.6851 42.6425 37.777 42.4413C37.8688 42.2402 37.9969 42.0657 38.1516 41.9155C38.3135 41.7652 38.5044 41.6465 38.7243 41.5592C38.9442 41.472 39.1738 41.4284 39.413 41.4284C39.6523 41.4284 39.8819 41.472 40.097 41.5592C40.3145 41.6465 40.503 41.7652 40.6649 41.9155C40.822 42.0657 40.9476 42.2402 41.0395 42.4413C41.1337 42.6425 41.1796 42.8557 41.1796 43.0836ZM40.3483 43.0763C40.3483 42.8242 40.254 42.6061 40.0655 42.422C39.877 42.2402 39.6547 42.1481 39.401 42.1481C39.1472 42.1481 38.9249 42.2402 38.7388 42.422C38.5527 42.6037 38.4609 42.8218 38.4609 43.0763C38.4609 43.3307 38.5527 43.5464 38.7388 43.7258C38.9249 43.9051 39.1448 43.9972 39.401 43.9972C39.6571 43.9972 39.8795 43.9075 40.0655 43.7258C40.254 43.5464 40.3483 43.3283 40.3483 43.0763ZM41.5228 41.3508H40.677V37.7787H41.5228V39.1019H42.5015V39.9283H41.5228V41.3508Z" fill="white"/>
<path d="M42.7361 42.0391H49V42.7806H46.291V44.5134H45.4379V42.7806H42.7361V42.0391ZM44.0773 38.7456H47.6636V37.895H48.5022V41.1351H43.2412V37.895H44.0797V38.7456H44.0773ZM47.6636 39.4727H44.0773V40.4008H47.6636V39.4727Z" fill="white"/>
<path d="M34.6089 13.3506C34.5944 13.3021 34.5799 13.2537 34.5629 13.2076L33.78 11.1186C33.5866 10.6025 33.2024 10.1929 32.6997 9.96268C32.359 9.80758 31.9916 9.75184 31.6291 9.79061L31.1651 9.04662C31.3029 8.7849 31.3851 8.49651 31.402 8.19116C31.431 7.63862 31.2449 7.10789 30.8776 6.69833L29.3913 5.04071C28.8355 4.42274 27.9921 4.21917 27.2453 4.4494L26.8103 3.96471C26.9046 3.67148 26.9577 3.35886 26.9577 3.03412C26.9577 1.36196 25.5996 0 23.9321 0C22.2646 0 20.9065 1.35954 20.9065 3.03412C20.9065 4.01318 21.3729 4.88319 22.093 5.43815H19.8165C19.1157 5.43815 18.5454 6.01008 18.5454 6.71287C18.5454 7.41566 19.1157 7.98759 19.8165 7.98759H22.4265L21.9456 16.0721L20.2419 14.4C19.3163 13.3579 17.7793 13.353 17.7165 13.353H2.50366L2.58583 13.7553C2.59066 13.782 3.09332 16.1085 5.19339 16.5956C5.19339 17.0124 5.26831 17.7903 5.79272 18.4446C6.23014 18.9899 6.8778 19.3243 7.71638 19.4431C7.89279 20.5773 8.66854 22.3318 10.6454 22.3318H14.8576L14.2679 26.2044L15.3892 25.8143C15.8242 26.7909 17.3806 29.8783 20.1935 31.3518C22.2042 32.406 22.963 32.9221 23.4222 33.6395L23.9321 34.3641L24.442 33.6371C24.9036 32.9197 25.6624 32.4035 27.6707 31.3494C30.4812 29.8759 32.0375 26.7885 32.475 25.8118L33.5963 26.202L33.0066 22.3294H37.2188C39.1981 22.3294 39.9714 20.5748 40.1478 19.4407C40.9864 19.3219 41.6341 18.9875 42.0715 18.4422C42.5959 17.7879 42.6708 17.0124 42.6708 16.5956C44.7709 16.1109 45.2735 13.782 45.2784 13.7553L45.3605 13.353H34.604L34.6089 13.3506ZM32.081 12.2625L32.0883 12.2577C32.1197 12.2383 32.1439 12.214 32.1729 12.1922L32.6079 13.3506H32.1173L31.7572 12.3885C31.8708 12.3691 31.982 12.3279 32.0835 12.2649L32.081 12.2625ZM32.2381 22.3294L29.5991 24.8037L30.4377 25.109C28.8476 27.0551 27.3323 27.8693 26.6412 28.1626L26.2932 22.3294H32.2381ZM29.1641 10.2074C29.2028 10.2074 29.2391 10.2099 29.2777 10.2099C29.4179 10.2099 29.5581 10.1953 29.6934 10.1662L30.0462 10.7333C29.691 11.2689 29.5871 11.9596 29.8287 12.6066L30.1066 13.3506C29.8432 13.3579 28.4778 13.4379 27.6247 14.3975L25.921 16.0697L25.4401 7.98517H26.356L27.7359 9.52404C28.1032 9.9336 28.6083 10.1759 29.1617 10.205L29.1641 10.2074ZM28.7171 7.79856C28.85 7.71617 28.9636 7.61196 29.0578 7.49079L29.4711 7.95366C29.4493 7.96578 29.4276 7.97305 29.4082 7.98517C29.2922 8.05787 29.2004 8.15481 29.1303 8.26144L28.7171 7.79856ZM27.8543 4.91469C28.2676 4.91469 28.6784 5.08433 28.9757 5.41392L30.4619 7.07154C30.7301 7.36962 30.8655 7.75736 30.8437 8.16208C30.8389 8.26386 30.822 8.36322 30.7978 8.46016L30.677 8.26871C30.532 8.03606 30.2951 7.89308 30.0414 7.8543C30.01 7.75736 29.9616 7.66527 29.8916 7.5853L29.3019 6.92856C29.314 6.85828 29.3212 6.788 29.3212 6.71287C29.3212 6.03189 28.7847 5.4745 28.1153 5.44058C28.096 5.4115 28.0791 5.38241 28.0549 5.35576L27.6731 4.92923C27.7335 4.92196 27.7915 4.91227 27.8519 4.91227L27.8543 4.91469ZM26.5614 4.52452L26.7185 4.69901L26.907 4.90985L27.0979 5.12068L27.3807 5.43815L27.4532 5.51813C27.2042 5.51813 26.9046 5.51813 26.6339 5.51813C26.5807 5.51813 26.5276 5.51813 26.4768 5.51813L26.4067 5.44058L26.3705 5.4018L26.182 5.19096L26.1216 5.12311L26.0733 5.06979L25.6769 4.62631L25.6286 4.57299L25.3241 4.23371L25.1863 4.08104L24.9616 3.829C24.9253 3.79023 24.9012 3.74418 24.8867 3.69571C24.848 3.56727 24.8843 3.41944 24.9954 3.31766C25.0123 3.30312 25.0317 3.28858 25.0486 3.27889C25.109 3.24253 25.1815 3.22315 25.2516 3.22799C25.3483 3.23284 25.4353 3.27404 25.4981 3.34432L25.5319 3.38067L25.6769 3.54304L26.0249 3.93079L26.0853 3.99864L26.5058 4.46879L26.5614 4.52937V4.52452ZM21.571 3.03412C21.571 1.7279 22.6295 0.66644 23.9321 0.66644C25.2347 0.66644 26.2932 1.7279 26.2932 3.03412C26.2932 3.1456 26.2835 3.25223 26.269 3.35886L26.1844 3.26435L25.9162 2.96627C25.8582 2.90083 25.7905 2.84994 25.718 2.8039C25.66 2.7627 25.5996 2.73604 25.5392 2.71423C25.3893 1.96055 24.7272 1.39104 23.9345 1.39104C23.0307 1.39104 22.296 2.12776 22.296 3.03412C22.296 3.94048 23.0307 4.6772 23.9345 4.6772C24.2414 4.6772 24.5266 4.58753 24.7707 4.4397L25.254 4.99709C24.877 5.25397 24.4227 5.4018 23.9345 5.4018C22.6319 5.4018 21.5734 4.34034 21.5734 3.03412H21.571ZM24.3719 3.89928C24.239 3.96714 24.0916 4.01076 23.9321 4.01076C23.3956 4.01076 22.9582 3.57212 22.9582 3.03412C22.9582 2.49612 23.3956 2.05748 23.9321 2.05748C24.3695 2.05748 24.7368 2.35072 24.8601 2.75058C24.7731 2.78936 24.6909 2.8354 24.616 2.90326C24.3308 3.16014 24.2487 3.55758 24.3743 3.89928H24.3719ZM21.5734 22.3294L21.2255 28.1626C20.5343 27.8693 19.0191 27.0551 17.4289 25.109L18.2675 24.8037L15.6285 22.3294H21.5734ZM32.098 24.9685L31.9795 25.269C31.965 25.3078 30.4305 29.144 27.3637 30.7532C25.4304 31.7686 24.5097 32.3526 23.9345 33.196C23.3569 32.3526 22.4386 31.7662 20.5053 30.7532C17.4361 29.144 15.904 25.3078 15.8895 25.269L15.7711 24.9685L15.0992 25.2011L15.4255 23.054L17.0132 24.5444L16.3342 24.7916L16.6121 25.1551C19.0215 28.2983 21.3511 28.9308 21.4502 28.955L21.8441 29.0568L22.2453 22.327L22.2864 21.6557L22.528 17.5771L22.5474 17.2329L22.5691 16.8791L22.5812 16.6901L23.1394 7.31388H19.819C19.4855 7.31388 19.2172 7.04246 19.2172 6.71045C19.2172 6.37844 19.4879 6.10702 19.819 6.10702H28.0549C28.1129 6.10702 28.1685 6.11671 28.2217 6.13367C28.4416 6.19668 28.6083 6.38086 28.647 6.60866C28.6518 6.64259 28.6567 6.67652 28.6567 6.71045C28.6567 6.80496 28.6325 6.8922 28.5962 6.96975C28.5286 7.11274 28.4053 7.22421 28.2555 7.27753C28.1927 7.29934 28.125 7.31388 28.0549 7.31388H24.7344L25.2927 16.6901L25.3048 16.8791L25.3265 17.2329L25.3483 17.5771L25.5899 21.6533L25.631 22.3245L26.0322 29.0544L26.4261 28.9526C26.5252 28.9284 28.8524 28.2958 31.2642 25.1527L31.5421 24.7892L30.8631 24.542L32.4508 23.0516L32.777 25.1987L32.1052 24.9661L32.098 24.9685Z" fill="#818383"/>
<path d="M28.0524 7.98759H27.1099L28.1539 9.15326C28.4221 9.45134 28.7894 9.62825 29.193 9.65006C29.251 9.65248 29.309 9.65006 29.367 9.65006L29.1181 9.25019C29.0359 9.11933 28.9949 8.97392 28.9852 8.82852C28.8982 8.79217 28.8039 8.73643 28.7218 8.64191L28.1321 7.98517C28.1055 7.98517 28.0789 7.99002 28.0524 7.99002V7.98759Z" fill="white"/>
<path d="M32.5159 11.5282C32.5256 11.5476 32.5353 11.5646 32.5425 11.5864L33.2047 13.3506H34.0215L33.2579 11.315C33.1177 10.9393 32.8374 10.6413 32.47 10.474C32.3105 10.4013 32.1438 10.3601 31.9746 10.3432L32.3806 10.9926C32.4845 11.1574 32.5256 11.344 32.5159 11.5282Z" fill="white"/>
<path d="M30.8195 11.9741L30.3845 11.2762C30.2322 11.6252 30.2105 12.0299 30.3531 12.4128L30.7059 13.3531H31.5227L31.1143 12.2625C30.9983 12.1898 30.8968 12.0929 30.8219 11.9741H30.8195Z" fill="white"/>
<path d="M30.6577 9.29139L30.5031 9.04177L30.2058 8.56678C30.1575 8.48923 30.085 8.43834 30.0028 8.41411C29.9714 8.40441 29.9376 8.39957 29.9037 8.39957C29.8385 8.39957 29.7732 8.41653 29.7152 8.45288C29.5775 8.5377 29.5195 8.69038 29.5461 8.83336C29.5533 8.87456 29.5678 8.91333 29.592 8.95211L29.9352 9.4998L30.0826 9.73729L30.2324 9.97721L30.433 10.2995L30.5828 10.5394L30.7327 10.7794L31.1556 11.4579L31.2909 11.676C31.3416 11.756 31.419 11.8117 31.5132 11.8336C31.5374 11.8384 31.5616 11.8432 31.5833 11.8432C31.6534 11.8432 31.7211 11.8263 31.7815 11.7899L31.7911 11.7851C31.8371 11.756 31.8733 11.7172 31.8999 11.676C31.9724 11.5621 31.9796 11.4143 31.9047 11.2931L31.7911 11.1114L31.361 10.4231L31.2087 10.1784L31.0565 9.93601L30.8076 9.53615L30.6553 9.29381L30.6577 9.29139Z" fill="white"/>
<path d="M25.9887 17.1869L26.0854 18.8033H39.8337C40.6119 18.7379 41.1895 18.4737 41.552 18.0206C41.9193 17.5625 41.9942 17.0076 42.0039 16.6756H27.6562C27.6562 16.6756 26.7113 16.6853 25.9863 17.1869H25.9887Z" fill="white"/>
<path d="M26.2545 21.6581H37.2213C38.8332 21.6581 39.3213 20.1822 39.4615 19.4746H26.1216L26.2521 21.6581H26.2545Z" fill="white"/>
<path d="M34.4107 14.0219H30.1502C30.1357 14.0219 28.8403 14.034 28.1178 14.8531L28.1008 14.8701L26.8394 16.1085C27.2864 16.0067 27.6272 16.0043 27.6562 16.0043H42.0812C43.6085 15.9025 44.261 14.6762 44.5027 14.0219H34.4083H34.4107Z" fill="white"/>
<path d="M21.7425 19.4746H8.40503C8.54761 20.1798 9.04061 21.6581 10.6453 21.6581H21.612L21.7425 19.4746Z" fill="white"/>
<path d="M21.8804 17.1869C21.1578 16.6853 20.2226 16.6756 20.2105 16.6756H5.86523C5.8749 17.01 5.95223 17.5698 6.31956 18.0254C6.68206 18.4762 7.25964 18.7379 8.03539 18.8033H21.7837L21.8804 17.1869Z" fill="white"/>
<path d="M21.0297 16.1109L19.7489 14.8531C19.0287 14.034 17.731 14.0219 17.7189 14.0219H3.36157C3.60324 14.6762 4.25573 15.9025 5.78306 16.0043H20.2105C20.2419 16.0043 20.5826 16.0091 21.0297 16.1109Z" fill="white"/>
<path d="M23.9296 4.67476C23.0258 4.67476 22.2912 3.93804 22.2912 3.03168C22.2912 2.12532 23.0258 1.3886 23.9296 1.3886C24.7247 1.3886 25.3869 1.95811 25.5343 2.71179C25.5947 2.7336 25.6551 2.76026 25.7131 2.80146C25.7856 2.8475 25.8533 2.89839 25.9113 2.96383L26.1795 3.26191L26.2641 3.35642C26.2786 3.24979 26.2883 3.14316 26.2883 3.03168C26.2883 1.72546 25.2298 0.664001 23.9272 0.664001C22.6247 0.664001 21.5662 1.72546 21.5662 3.03168C21.5662 4.33791 22.6247 5.39936 23.9272 5.39936C24.4154 5.39936 24.8697 5.24911 25.2467 4.99465L24.7634 4.43727C24.5169 4.58509 24.2341 4.67476 23.9272 4.67476H23.9296Z" fill="white"/>
<path d="M28.1178 5.44059C28.7872 5.47451 29.3237 6.0319 29.3237 6.71288C29.3237 6.78558 29.3165 6.85829 29.3044 6.92856L29.894 7.58531C29.9641 7.66528 30.0149 7.75737 30.0439 7.85431C30.2976 7.89309 30.532 8.03607 30.6795 8.26872L30.8003 8.46017C30.8245 8.36323 30.8414 8.26387 30.8462 8.16209C30.868 7.75737 30.7326 7.37205 30.4644 7.07155L28.9781 5.41393C28.6809 5.08192 28.2701 4.9147 27.8568 4.9147C27.7964 4.9147 27.7384 4.9244 27.678 4.93167L28.0598 5.35819C28.084 5.38485 28.1009 5.41393 28.1202 5.44301L28.1178 5.44059Z" fill="white"/>
<path d="M30.8559 24.5444L31.5349 24.7916L31.257 25.1551C28.8476 28.2983 26.518 28.9308 26.4189 28.955L26.025 29.0568L25.6238 22.327L25.5827 21.6557L25.3411 17.5795L25.3193 17.2354L25.2976 16.8815L25.2855 16.6925L24.7272 7.3163H28.0477C28.1178 7.3163 28.1855 7.30176 28.2483 7.27995C28.3981 7.22663 28.5214 7.11516 28.589 6.97217C28.6277 6.8922 28.6495 6.80496 28.6495 6.71287C28.6495 6.67652 28.6446 6.64259 28.6398 6.61108C28.6011 6.38328 28.432 6.1991 28.2145 6.13609C28.1613 6.12155 28.1057 6.10944 28.0477 6.10944H19.8118C19.4783 6.10944 19.21 6.38086 19.21 6.71287C19.21 7.04488 19.4807 7.3163 19.8118 7.3163H23.1322L22.574 16.6925L22.5619 16.8815L22.5402 17.2354L22.5208 17.5795L22.2792 21.6581L22.2381 22.3294L21.8369 29.0592L21.443 28.9574C21.3439 28.9332 19.0167 28.3007 16.6049 25.1575L16.3269 24.794L17.006 24.5468L15.4183 23.0564L15.092 25.2036L15.7639 24.9709L15.8823 25.2714C15.8968 25.3102 17.4314 29.1465 20.4981 30.7556C22.4314 31.771 23.3522 32.3551 23.9273 33.1984C24.5049 32.3551 25.4232 31.7686 27.3565 30.7556C30.4257 29.1465 31.9578 25.3102 31.9723 25.2714L32.0908 24.9709L32.7626 25.2036L32.4363 23.0564L30.8486 24.5468L30.8559 24.5444Z" fill="white"/>
<path d="M27.3805 5.43815L27.0978 5.12068L26.9069 4.90985L26.7184 4.69901L26.5613 4.52452L26.5057 4.46394L26.0852 3.99379L26.0248 3.92594L25.6768 3.53819L25.5318 3.37582L25.498 3.33947C25.4351 3.26919 25.3481 3.22799 25.2515 3.22315C25.179 3.2183 25.1089 3.23769 25.0485 3.27404C25.0291 3.28616 25.0122 3.29827 24.9953 3.31281C24.8841 3.4146 24.8479 3.56243 24.8865 3.69087C24.901 3.73933 24.9252 3.78538 24.9615 3.82415L25.1862 4.07619L25.324 4.22887L25.6285 4.56814L25.6768 4.62146L26.0731 5.06495L26.1215 5.11826L26.1819 5.18612L26.3704 5.39695L26.4066 5.43573L26.4767 5.51328C26.5275 5.51328 26.5806 5.51328 26.6338 5.51328C26.9045 5.51328 27.2041 5.51328 27.453 5.51328L27.3805 5.43331V5.43815Z" fill="white"/>
<path d="M23.8692 21.4182V20.8244V17.6158L19.0891 24.3141L23.8692 21.4182Z" fill="#F6E700"/>
<path d="M23.8694 17.2208V8.94L21.675 14.1431L23.8694 17.2208Z" fill="#F6E700"/>
<path d="M21.9746 17.9987L23.7291 17.4171L15.9958 14.8604L20.1767 18.5924L21.9746 17.9987Z" fill="#F6E700"/>
<path d="M24.0989 17.5407L28.4778 23.6768L28.8766 24.2366L27.6489 18.7161L24.0989 17.5407Z" fill="#F6E700"/>
<path d="M24.0989 17.296L31.8322 14.7368L26.2932 14.2206L25.0317 15.9849L24.0989 17.296Z" fill="#F6E700"/>
<path d="M24.1375 17.4171L27.6875 18.5924L31.8683 14.8604L28.8862 15.8467L24.1375 17.4171Z" fill="#E60C22"/>
<path d="M20.2176 18.7161L18.9875 24.2366L23.7677 17.5407L20.2176 18.7161Z" fill="#E60C22"/>
<path d="M21.5806 14.2303L21.5734 14.2206L16.0344 14.7368L23.7677 17.296L21.5806 14.2303Z" fill="#E60C22"/>
<path d="M23.9949 21.4182L28.775 24.3141L23.9949 17.6158V21.4182Z" fill="#E60C22"/>
<path d="M23.9949 8.94V17.2208L26.1892 14.1431L23.9949 8.94Z" fill="#E60C22"/>
<path d="M27.7746 18.687L32.2962 14.652L26.3077 14.0922L23.9926 8.60315L23.9346 8.45532L23.8741 8.60073L21.559 14.0898L15.7179 14.635L15.5681 14.6472L15.6817 14.7465L20.0945 18.6846L18.7702 24.6559L23.9346 21.5272L28.9757 24.5832L29.1062 24.6632L29.0651 24.5008L27.7746 18.6846V18.687ZM21.5735 14.2206L21.5807 14.2303L23.7678 17.296L16.0345 14.7368L21.5711 14.2206H21.5735ZM15.9959 14.8604L23.7291 17.4196L21.9747 17.9987L20.1791 18.5925L15.9983 14.8604H15.9959ZM20.2178 18.7161L23.7678 17.5407L18.9901 24.2391L20.2178 18.7161ZM23.8693 20.8245V21.4182L19.0892 24.3142L23.8693 17.6158V20.8245ZM23.8693 17.2208L21.675 14.1455L23.8693 8.94243V17.2208ZM27.6876 18.5925L24.1376 17.4171L28.8863 15.8468L31.8684 14.8604L27.6876 18.5925ZM31.8322 14.7368L24.0989 17.296L25.0341 15.9849L26.2932 14.2182L31.8322 14.7344V14.7368ZM23.995 8.94001L26.1893 14.1431L23.995 17.2184V8.94001ZM23.995 21.4182V17.6158L28.7751 24.3142L23.995 21.4182ZM28.4779 23.6768L24.0989 17.5383L27.649 18.7137L28.8766 24.2366L28.4779 23.6768Z" fill="#818383"/>
</svg>
